<svg width="70" height="92" viewBox="0 0 70 92" fill="none" xmlns="http://www.w3.org/2000/svg">
<path fill-rule="evenodd" clip-rule="evenodd" d="M13.8854 91.2019C14.9956 91.2019 15.8955 90.2962 15.8955 89.179V59.1645C15.8955 58.0473 16.7955 57.1416 17.9057 57.1416H34.0986C34.8866 57.1416 35.6019 57.6049 35.9282 58.3267L50.2554 90.0167C50.5817 90.7386 51.2971 91.2019 52.0851 91.2019H65.0279C66.4968 91.2019 67.4696 89.6681 66.8513 88.3273L51.7975 55.6856C51.3869 54.7952 53.6392 53.7685 54.9463 53.1726C55.1708 53.0703 55.3673 52.9806 55.5178 52.9066C59.959 50.721 63.3789 47.7659 65.7777 44.0414C68.5926 39.7163 70 34.5178 70 28.446C70 19.4631 67.1024 12.4763 61.3071 7.48579C55.5947 2.49526 44.9132 0 34.6473 0H2.01013C0.899967 0 0 0.905712 0 2.02296V89.179C0 90.2962 0.899965 91.2019 2.01013 91.2019H13.8854ZM15.9858 28.4376C15.9858 35.4891 21.6893 41.2261 28.6998 41.2261C34.7487 41.2261 39.8238 36.9549 41.1026 31.2537H51.3472V35.0443C51.3472 36.1264 52.1774 37.0067 53.1979 37.0067C54.2184 37.0067 55.0486 36.1264 55.0486 35.0443V34.9684C55.0486 34.6078 55.3403 34.3143 55.6989 34.3143H56.7342C57.0928 34.3143 57.3845 34.6078 57.3845 34.9684V35.0443C57.3845 36.1264 58.2147 37.0067 59.2352 37.0067C60.2556 37.0067 61.0858 36.1264 61.0858 35.0443V31.2537H61.9843C63.528 31.2537 64.7839 29.9904 64.7839 28.4376C64.7839 26.8849 63.528 25.6216 61.9843 25.6216L41.1025 25.6216C39.8238 19.9204 34.7486 15.6492 28.6998 15.6492C21.6893 15.6492 15.9858 21.3861 15.9858 28.4376Z" fill="white"/>
</svg>
