<svg width="18" height="18" viewBox="0 0 18 18" fill="none" xmlns="http://www.w3.org/2000/svg">
<g clip-path="url(#clip0_913_2559)">
<path d="M14.25 0.750488H3.75C2.7558 0.751679 1.80267 1.14715 1.09966 1.85015C0.396661 2.55316 0.00119089 3.50629 0 4.50049L0 13.5005C0.00119089 14.4947 0.396661 15.4478 1.09966 16.1508C1.80267 16.8538 2.7558 17.2493 3.75 17.2505H14.25C15.2442 17.2493 16.1973 16.8538 16.9003 16.1508C17.6033 15.4478 17.9988 14.4947 18 13.5005V4.50049C17.9988 3.50629 17.6033 2.55316 16.9003 1.85015C16.1973 1.14715 15.2442 0.751679 14.25 0.750488ZM3.75 2.25049H14.25C14.6991 2.25137 15.1376 2.38662 15.5092 2.63884C15.8808 2.89106 16.1684 3.2487 16.335 3.66574L10.5915 9.40999C10.1688 9.83097 9.59656 10.0673 9 10.0673C8.40344 10.0673 7.83118 9.83097 7.4085 9.40999L1.665 3.66574C1.83161 3.2487 2.11921 2.89106 2.49079 2.63884C2.86236 2.38662 3.30091 2.25137 3.75 2.25049ZM14.25 15.7505H3.75C3.15326 15.7505 2.58097 15.5134 2.15901 15.0915C1.73705 14.6695 1.5 14.0972 1.5 13.5005V5.62549L6.348 10.4705C7.05197 11.1727 8.00569 11.567 9 11.567C9.99431 11.567 10.948 11.1727 11.652 10.4705L16.5 5.62549V13.5005C16.5 14.0972 16.2629 14.6695 15.841 15.0915C15.419 15.5134 14.8467 15.7505 14.25 15.7505Z" fill="url(#paint0_linear_913_2559)"/>
</g>
<defs>
<linearGradient id="paint0_linear_913_2559" x1="0" y1="0.750488" x2="21.1727" y2="8.05869" gradientUnits="userSpaceOnUse">
<stop stop-color="#181BF2"/>
<stop offset="1" stop-color="#0ABEFF"/>
</linearGradient>
<clipPath id="clip0_913_2559">
<rect width="18" height="18" fill="white"/>
</clipPath>
</defs>
</svg>
