<?xml version="1.0" encoding="utf-8"?>
<svg fill="none" height="20" width="20" xmlns="http://www.w3.org/2000/svg"><defs><linearGradient id="grad1" x1="0%" x2="100%" y1="0%" y2="100%"><stop offset="0%" style="stop-color:#181BF2;stop-opacity:1"/><stop offset="100%" style="stop-color:#0ABEFF;stop-opacity:1"/></linearGradient></defs><path d="M3.749 1.703c-.93.155-1.698.837-1.988 1.764l-.078.25v12.566l.078.25a2.595 2.595 0 0 0 1.689 1.705l.233.079 6.584.009c4.504.006 6.636-.003 6.752-.026.429-.09.929-.468 1.124-.853.182-.359.19-.449.191-2.035V13.95l.118-.08c.172-.118.439-.422.533-.607.16-.315.181-.499.181-1.596s-.021-1.282-.181-1.596c-.096-.191-.376-.506-.537-.606l-.115-.07V7.952c0-.842-.014-1.518-.034-1.622a1.566 1.566 0 0 0-.457-.827 1.568 1.568 0 0 0-.917-.477l-.258-.041-.001-.918c0-.991-.024-1.188-.182-1.498-.112-.222-.403-.528-.636-.668-.409-.246.023-.231-6.281-.229-3.108.002-5.726.015-5.818.031M15 4.167v.834l-5.542-.009-5.541-.009-.153-.09a.822.822 0 0 1-.178-1.307.785.785 0 0 1 .308-.2c.133-.041.964-.048 5.631-.05L15 3.333v.834M3.517 6.592c.155.054.591.059 6.658.067l6.492.009V9.161l-1.059.013c-1.01.013-1.07.018-1.325.096a2.564 2.564 0 0 0-1.688 1.697c-.113.361-.113 1.038 0 1.4.253.813.87 1.436 1.688 1.703.219.071.299.077 1.309.089l1.075.013v2.495l-6.375-.008-6.375-.009-.153-.09a.85.85 0 0 1-.385-.485c-.038-.126-.046-.965-.046-4.847 0-2.582.004-4.695.009-4.694.004 0 .083.026.175.058M17.5 11.668v.835l-1.375-.01-1.375-.01-.153-.09a.821.821 0 0 1-.175-1.31c.241-.24.271-.245 1.77-.247l1.308-.003v.835" fill="url(#grad1)" fill-rule="evenodd"/></svg>