<svg width="17" height="20" viewBox="0 0 17 20" fill="none" xmlns="http://www.w3.org/2000/svg">
<path d="M8.14416 9.63402C9.45599 9.63402 10.5919 9.15932 11.5201 8.22275C12.4482 7.28632 12.9187 6.14055 12.9187 4.81686C12.9187 3.49363 12.4482 2.3477 11.5199 1.41097C10.5916 0.474697 9.45584 0 8.14416 0C6.83217 0 5.69652 0.474697 4.76838 1.41112C3.84023 2.34755 3.36958 3.49347 3.36958 4.81686C3.36958 6.14055 3.84023 7.28647 4.76853 8.2229C5.69683 9.15917 6.83262 9.63402 8.14416 9.63402Z" fill="url(#paint0_linear_110_675)"/>
<path d="M16.4984 15.3789C16.4716 14.9892 16.4175 14.5641 16.3378 14.1152C16.2573 13.6629 16.1537 13.2354 16.0297 12.8446C15.9016 12.4407 15.7274 12.0418 15.512 11.6596C15.2885 11.2629 15.0259 10.9174 14.7313 10.6332C14.4233 10.3358 14.0461 10.0967 13.6099 9.92226C13.1752 9.74877 12.6935 9.66088 12.1783 9.66088C11.9759 9.66088 11.7802 9.74465 11.4023 9.9929C11.1697 10.1459 10.8976 10.3229 10.5939 10.5187C10.3342 10.6856 9.98245 10.842 9.54795 10.9837C9.12403 11.122 8.6936 11.1922 8.26878 11.1922C7.84395 11.1922 7.41368 11.122 6.98931 10.9837C6.55525 10.8422 6.20347 10.6858 5.9441 10.5189C5.64329 10.3249 5.37106 10.1479 5.13498 9.99275C4.75749 9.74449 4.56164 9.66072 4.35928 9.66072C3.84386 9.66072 3.36232 9.74877 2.92781 9.92241C2.49195 10.0965 2.11461 10.3356 1.80623 10.6333C1.51177 10.9177 1.24907 11.263 1.02585 11.6596C0.810635 12.0418 0.636409 12.4405 0.508159 12.8448C0.384295 13.2355 0.280697 13.6629 0.200239 14.1152C0.120537 14.5635 0.0663934 14.9887 0.0396243 15.3794C0.0133089 15.7621 0 16.1592 0 16.5604C0 17.6044 0.328942 18.4496 0.977601 19.0729C1.61824 19.688 2.46593 20 3.49677 20H13.0417C14.0725 20 14.9199 19.6881 15.5607 19.0729C16.2095 18.45 16.5385 17.6047 16.5385 16.5602C16.5383 16.1573 16.5249 15.7598 16.4984 15.3789Z" fill="url(#paint1_linear_110_675)"/>
<defs>
<linearGradient id="paint0_linear_110_675" x1="0" y1="0" x2="20.3764" y2="5.33136" gradientUnits="userSpaceOnUse">
<stop stop-color="#181BF2"/>
<stop offset="1" stop-color="#0ABEFF"/>
</linearGradient>
<linearGradient id="paint1_linear_110_675" x1="0" y1="0" x2="20.3764" y2="5.33136" gradientUnits="userSpaceOnUse">
<stop stop-color="#181BF2"/>
<stop offset="1" stop-color="#0ABEFF"/>
</linearGradient>
</defs>
</svg>
