<svg width="28" height="28" viewBox="0 0 28 28" fill="none" xmlns="http://www.w3.org/2000/svg">
<g clip-path="url(#clip0_913_1830)">
<path d="M28 8.1025C27.967 6.29633 27.2327 4.57383 25.9525 3.29933L22.9915 0.341833C22.7715 0.129316 22.4768 0.0117221 22.1709 0.0143803C21.865 0.0170384 21.5724 0.139736 21.356 0.356045C21.1397 0.572354 21.017 0.864969 21.0144 1.17087C21.0117 1.47676 21.1293 1.77146 21.3418 1.9915L23.3333 3.983V7C23.3333 7.61884 23.5792 8.21233 24.0168 8.64992C24.4543 9.0875 25.0478 9.33333 25.6667 9.33333V21C25.6667 21.3094 25.5438 21.6062 25.325 21.825C25.1062 22.0438 24.8094 22.1667 24.5 22.1667C24.1906 22.1667 23.8938 22.0438 23.675 21.825C23.4562 21.6062 23.3333 21.3094 23.3333 21V19.8333C23.3333 18.9051 22.9646 18.0148 22.3082 17.3585C21.6518 16.7021 20.7616 16.3333 19.8333 16.3333H18.6667V5.83333C18.6648 4.28681 18.0496 2.80415 16.9561 1.71059C15.8625 0.617029 14.3799 0.0018525 12.8333 0L5.83333 0C4.28681 0.0018525 2.80415 0.617029 1.71059 1.71059C0.617029 2.80415 0.0018525 4.28681 0 5.83333L0 22.1667C0.0018525 23.7132 0.617029 25.1959 1.71059 26.2894C2.80415 27.383 4.28681 27.9981 5.83333 28H12.8333C14.3799 27.9981 15.8625 27.383 16.9561 26.2894C18.0496 25.1959 18.6648 23.7132 18.6667 22.1667V18.6667H19.8333C20.1428 18.6667 20.4395 18.7896 20.6583 19.0084C20.8771 19.2272 21 19.5239 21 19.8333V21C21 21.9283 21.3687 22.8185 22.0251 23.4749C22.6815 24.1313 23.5717 24.5 24.5 24.5C25.4283 24.5 26.3185 24.1313 26.9749 23.4749C27.6313 22.8185 28 21.9283 28 21C28 21 28 8.1235 28 8.1025ZM5.83333 2.33333H12.8333C13.7616 2.33333 14.6518 2.70208 15.3082 3.35846C15.9646 4.01484 16.3333 4.90508 16.3333 5.83333V10.5H2.33333V5.83333C2.33333 4.90508 2.70208 4.01484 3.35846 3.35846C4.01484 2.70208 4.90508 2.33333 5.83333 2.33333ZM16.3333 22.1667C16.3333 23.0949 15.9646 23.9852 15.3082 24.6415C14.6518 25.2979 13.7616 25.6667 12.8333 25.6667H5.83333C4.90508 25.6667 4.01484 25.2979 3.35846 24.6415C2.70208 23.9852 2.33333 23.0949 2.33333 22.1667V12.8333H16.3333V22.1667Z" fill="url(#paint0_linear_913_1830)"/>
</g>
<defs>
<linearGradient id="paint0_linear_913_1830" x1="0" y1="0" x2="33.5051" y2="10.6012" gradientUnits="userSpaceOnUse">
<stop stop-color="#181BF2"/>
<stop offset="1" stop-color="#0ABEFF"/>
</linearGradient>
<clipPath id="clip0_913_1830">
<rect width="28" height="28" fill="white"/>
</clipPath>
</defs>
</svg>
