<svg width="28" height="28" viewBox="0 0 28 28" fill="none" xmlns="http://www.w3.org/2000/svg">
<g clip-path="url(#clip0_913_1822)">
<path d="M15.1667 12.8334C15.1667 11.9724 14.6942 11.2281 14 10.8232V5.83341C14 5.18941 13.4773 4.66675 12.8333 4.66675C12.1893 4.66675 11.6667 5.18941 11.6667 5.83341V10.8232C10.9725 11.2269 10.5 11.9712 10.5 12.8334C10.5 14.1226 11.5442 15.1667 12.8333 15.1667C14.1225 15.1667 15.1667 14.1226 15.1667 12.8334Z" fill="url(#paint0_linear_913_1822)"/>
<path d="M21 13.9976C17.1337 13.9976 14 17.1312 14 20.9976C14 24.8639 17.1337 27.9976 21 27.9976C24.8663 27.9976 28 24.8639 28 20.9976C28 17.1312 24.8663 13.9976 21 13.9976ZM24.1862 22.7382L22.0582 25.8171C21.6953 26.3421 20.9778 26.4774 20.4493 26.1204C19.9103 25.7576 19.7727 25.0226 20.1437 24.4894L21.7595 22.1666H19.3853C18.7915 22.1666 18.2257 21.8819 17.8722 21.4059C17.5187 20.9287 17.4102 20.3046 17.5817 19.7364L19.8275 16.2247C20.1833 15.6822 20.9125 15.5329 21.4527 15.8934C21.9858 16.2492 22.1328 16.9667 21.7828 17.5034L20.2627 19.8344H22.6298C23.3205 19.8344 23.9517 20.2124 24.2783 20.8214C24.605 21.4304 24.57 22.1642 24.1885 22.7406L24.1862 22.7382Z" fill="url(#paint1_linear_913_1822)"/>
<path d="M7.82804 19.3751L6.73837 20.3166C6.36154 20.6409 5.79104 20.6281 5.44337 20.2828C3.10421 17.9658 2.00171 14.7481 2.42054 11.4558C3.01904 6.74011 6.88654 2.93328 11.6127 2.40245C17.5627 1.74445 22.6914 5.98761 23.2782 11.7591C23.3435 12.3996 23.9117 12.8628 24.5569 12.8021C25.1974 12.7368 25.6652 12.1639 25.5999 11.5234C24.8835 4.46978 18.5485 -0.720721 11.3537 0.0831119C5.56937 0.731779 0.838541 5.39145 0.105874 11.1618C-0.403959 15.1809 0.943541 19.1091 3.80187 21.9406C4.43304 22.5659 5.26837 22.8821 6.10721 22.8821C6.87487 22.8821 7.64604 22.6161 8.26437 22.0818L9.35287 21.1403C9.84054 20.7191 9.89421 19.9818 9.47304 19.4953C9.05071 19.0076 8.31454 18.9539 7.82804 19.3751Z" fill="url(#paint2_linear_913_1822)"/>
</g>
<defs>
<linearGradient id="paint0_linear_913_1822" x1="10.5" y1="4.66675" x2="16.5241" y2="5.51389" gradientUnits="userSpaceOnUse">
<stop stop-color="#181BF2"/>
<stop offset="1" stop-color="#0ABEFF"/>
</linearGradient>
<linearGradient id="paint1_linear_913_1822" x1="14" y1="13.9976" x2="30.7525" y2="19.2982" gradientUnits="userSpaceOnUse">
<stop stop-color="#181BF2"/>
<stop offset="1" stop-color="#0ABEFF"/>
</linearGradient>
<linearGradient id="paint2_linear_913_1822" x1="0" y1="0.000976562" x2="29.9525" y2="10.6067" gradientUnits="userSpaceOnUse">
<stop stop-color="#181BF2"/>
<stop offset="1" stop-color="#0ABEFF"/>
</linearGradient>
<clipPath id="clip0_913_1822">
<rect width="28" height="28" fill="white"/>
</clipPath>
</defs>
</svg>
