<svg width="32" height="32" viewBox="0 0 134 130" fill="none" xmlns="http://www.w3.org/2000/svg">
	<path fill-rule="evenodd" clip-rule="evenodd" d="M33.6766 81.7364C33.7985 82.54 33.8594 83.3617 33.8594 84.1986C33.8594 93.4677 26.2731 100.994 16.9297 100.994C7.58622 100.994 0 93.4677 0 84.1986C0 74.9294 7.58622 67.4036 16.9297 67.4036C23.2581 67.4036 28.7795 70.8539 31.6849 75.9628L38.5981 72.4551C37.8916 69.9444 37.517 67.2978 37.517 64.5636C37.517 57.5393 40.0051 51.086 44.156 46.0285L31.7793 33.7472C30.019 34.7653 27.9725 35.3484 25.792 35.3484C19.2199 35.3484 13.8842 30.0552 13.8842 23.5354C13.8842 17.0156 19.2199 11.7224 25.792 11.7224C32.3641 11.7224 37.6997 17.0156 37.6997 23.5354C37.6997 25.7016 37.1119 27.7289 36.0856 29.4751L48.4623 41.7534C53.5635 37.6385 60.0655 35.1671 67.1462 35.1671C74.2299 35.1671 80.7319 37.6385 85.8331 41.7534L99.8483 27.8496C97.7987 24.9734 96.5957 21.4628 96.5957 17.6742C96.5957 7.92168 104.578 0 114.412 0C124.245 0 132.228 7.92168 132.228 17.6742C132.228 27.4298 124.245 35.3484 114.412 35.3484C110.596 35.3484 107.057 34.155 104.155 32.1247L90.1394 46.0285C94.2903 51.086 96.7785 57.5393 96.7785 64.5636C96.7785 69.1136 95.7339 73.4249 93.87 77.2739L101.822 80.7786C105.065 76.4008 110.294 73.5579 116.184 73.5579C126.018 73.5579 134 81.4765 134 91.232C134 100.985 126.018 108.906 116.184 108.906C106.35 108.906 98.3682 100.985 98.3682 91.232C98.3682 89.4797 98.627 87.7908 99.1052 86.1926L90.6479 82.4645C85.8118 88.7003 78.5088 92.9632 70.1916 93.8062V105.891C75.2928 107.226 79.0539 111.837 79.0539 117.314C79.0539 123.834 73.7183 129.127 67.1462 129.127C60.5771 129.127 55.2415 123.834 55.2415 117.314C55.2415 111.837 59.0026 107.226 64.1007 105.891V93.8062C53.9685 92.7789 45.3407 86.673 40.8426 78.1018L33.6766 81.7364Z" fill="currentColor"/>
</svg>
