<svg width="17" height="22" viewBox="0 0 17 22" fill="none" xmlns="http://www.w3.org/2000/svg">
<path d="M14.4725 8.29639H13.7833V5.59273C13.7833 2.6106 11.3106 0.185425 8.27 0.185425C5.2294 0.185425 2.75667 2.6106 2.75667 5.59273V8.29639H2.0675C0.928078 8.29639 0 9.20572 0 10.3241V19.7869C0 20.9053 0.928078 21.8147 2.0675 21.8147H14.4725C15.6119 21.8147 16.54 20.9053 16.54 19.7869V10.3241C16.54 9.20572 15.6119 8.29639 14.4725 8.29639ZM4.59445 5.59273C4.59445 3.60465 6.24293 1.98786 8.27 1.98786C10.2971 1.98786 11.9456 3.60465 11.9456 5.59273V8.29639H4.59445V5.59273ZM9.18889 15.2556V17.3086C9.18889 17.806 8.77815 18.2098 8.27 18.2098C7.76186 18.2098 7.35111 17.806 7.35111 17.3086V15.2556C6.80437 14.9429 6.43222 14.3679 6.43222 13.7037C6.43222 12.7097 7.25647 11.9013 8.27 11.9013C9.28354 11.9013 10.1078 12.7097 10.1078 13.7037C10.1078 14.3679 9.73563 14.9429 9.18889 15.2556Z" fill="url(#paint0_linear_110_702)"/>
<defs>
<linearGradient id="paint0_linear_110_702" x1="0" y1="0.185425" x2="20.5692" y2="5.16229" gradientUnits="userSpaceOnUse">
<stop stop-color="#181BF2"/>
<stop offset="1" stop-color="#0ABEFF"/>
</linearGradient>
</defs>
</svg>
