<svg width="20" height="20" viewBox="0 0 20 20" fill="none" xmlns="http://www.w3.org/2000/svg">
<path d="M16.6609 5.84459V0.836375C16.6609 0.614999 16.7489 0.402689 16.9054 0.246152C17.0619 0.0896148 17.2742 0.00167327 17.4956 0.00167327C17.717 0.00167327 17.9293 0.0896148 18.0858 0.246152C18.2423 0.402689 18.3303 0.614999 18.3303 0.836375V5.84459C18.3303 6.06596 18.2423 6.27827 18.0858 6.43481C17.9293 6.59135 17.717 6.67929 17.4956 6.67929C17.2742 6.67929 17.0619 6.59135 16.9054 6.43481C16.7489 6.27827 16.6609 6.06596 16.6609 5.84459ZM14.1569 6.67929C14.3783 6.67929 14.5906 6.59135 14.7471 6.43481C14.9036 6.27827 14.9916 6.06596 14.9916 5.84459V0.836375C14.9916 0.614999 14.9036 0.402689 14.7471 0.246152C14.5906 0.0896148 14.3783 0.00167327 14.1569 0.00167327C13.9355 0.00167327 13.7232 0.0896148 13.5667 0.246152C13.4102 0.402689 13.3222 0.614999 13.3222 0.836375V5.84459C13.3222 6.06596 13.4102 6.27827 13.5667 6.43481C13.7232 6.59135 13.9355 6.67929 14.1569 6.67929ZM19.2443 17.6272L18.483 18.5037C11.647 25.0477 -4.98809 8.41714 1.45561 1.55923L2.41549 0.724525C2.90112 0.253974 3.55259 -0.00629016 4.22876 0.0001155C4.90492 0.00652116 5.55134 0.279081 6.02797 0.758748C6.05385 0.783789 7.59884 2.79292 7.59884 2.79292C8.05774 3.27481 8.31336 3.91498 8.31259 4.58043C8.31181 5.24589 8.0547 5.88546 7.59466 6.36628L6.62644 7.57826C7.16133 8.87833 7.94785 10.0599 8.9408 11.055C9.93375 12.0501 11.1136 12.8392 12.4124 13.3769L13.6344 12.4045C14.115 11.944 14.7546 11.6864 15.4203 11.6853C16.0859 11.6842 16.7263 11.9397 17.2085 12.3987C17.2085 12.3987 19.2175 13.9454 19.2434 13.9712C19.7277 14.4563 19.9998 15.1136 20 15.7991C20.0002 16.4845 19.7284 17.142 19.2443 17.6272ZM18.0957 15.1874C18.0957 15.1874 16.0925 13.6499 16.0716 13.6248C15.8975 13.4585 15.666 13.3656 15.4252 13.3656C15.1844 13.3656 14.9528 13.4585 14.7787 13.6248C14.757 13.6474 13.0726 14.9896 13.0726 14.9896C12.9591 15.0798 12.8241 15.1388 12.6808 15.1609C12.5375 15.183 12.3909 15.1674 12.2555 15.1156C10.5723 14.4895 9.04346 13.5086 7.77279 12.2395C6.50212 10.9704 5.51934 9.44271 4.89114 7.76023C4.83629 7.62337 4.81868 7.47441 4.84008 7.32853C4.86149 7.18265 4.92115 7.04504 5.01301 6.9297C5.01301 6.9297 6.35433 5.24611 6.3777 5.22357C6.54845 5.05157 6.64428 4.81904 6.64428 4.57668C6.64428 4.33431 6.54845 4.10178 6.3777 3.92978C6.35099 3.90557 4.81435 1.9073 4.81435 1.9073C4.63993 1.75069 4.41221 1.66673 4.17787 1.67262C3.94353 1.67852 3.72032 1.77383 3.55399 1.93902L2.59328 2.77789C-2.1143 8.43634 12.3014 22.0537 17.2611 17.366L18.0223 16.4895C18.2014 16.3246 18.3092 16.0964 18.3229 15.8534C18.3366 15.6103 18.2551 15.3714 18.0957 15.1874Z" fill="url(#paint0_linear_913_2004)"/>
<defs>
<linearGradient id="paint0_linear_913_2004" x1="0" y1="0" x2="23.9322" y2="7.5723" gradientUnits="userSpaceOnUse">
<stop stop-color="#181BF2"/>
<stop offset="1" stop-color="#0ABEFF"/>
</linearGradient>
</defs>
</svg>
