<svg width="17" height="17" viewBox="0 0 17 17" fill="none" xmlns="http://www.w3.org/2000/svg">
<g clip-path="url(#clip0_913_1582)">
<path d="M4.95833 0H2.83333C2.08189 0 1.36122 0.298511 0.829864 0.829864C0.298511 1.36122 0 2.08189 0 2.83333L0 4.95833C0 5.70978 0.298511 6.43045 0.829864 6.9618C1.36122 7.49316 2.08189 7.79167 2.83333 7.79167H4.95833C5.70978 7.79167 6.43045 7.49316 6.9618 6.9618C7.49316 6.43045 7.79167 5.70978 7.79167 4.95833V2.83333C7.79167 2.08189 7.49316 1.36122 6.9618 0.829864C6.43045 0.298511 5.70978 0 4.95833 0ZM6.375 4.95833C6.375 5.33406 6.22575 5.69439 5.96007 5.96007C5.69439 6.22575 5.33406 6.375 4.95833 6.375H2.83333C2.45761 6.375 2.09728 6.22575 1.8316 5.96007C1.56592 5.69439 1.41667 5.33406 1.41667 4.95833V2.83333C1.41667 2.45761 1.56592 2.09728 1.8316 1.8316C2.09728 1.56592 2.45761 1.41667 2.83333 1.41667H4.95833C5.33406 1.41667 5.69439 1.56592 5.96007 1.8316C6.22575 2.09728 6.375 2.45761 6.375 2.83333V4.95833Z" fill="url(#paint0_linear_913_1582)"/>
<path d="M14.1668 0H12.0418C11.2904 0 10.5697 0.298511 10.0384 0.829864C9.50701 1.36122 9.2085 2.08189 9.2085 2.83333V4.95833C9.2085 5.70978 9.50701 6.43045 10.0384 6.9618C10.5697 7.49316 11.2904 7.79167 12.0418 7.79167H14.1668C14.9183 7.79167 15.6389 7.49316 16.1703 6.9618C16.7017 6.43045 17.0002 5.70978 17.0002 4.95833V2.83333C17.0002 2.08189 16.7017 1.36122 16.1703 0.829864C15.6389 0.298511 14.9183 0 14.1668 0ZM15.5835 4.95833C15.5835 5.33406 15.4342 5.69439 15.1686 5.96007C14.9029 6.22575 14.5426 6.375 14.1668 6.375H12.0418C11.6661 6.375 11.3058 6.22575 11.0401 5.96007C10.7744 5.69439 10.6252 5.33406 10.6252 4.95833V2.83333C10.6252 2.45761 10.7744 2.09728 11.0401 1.8316C11.3058 1.56592 11.6661 1.41667 12.0418 1.41667H14.1668C14.5426 1.41667 14.9029 1.56592 15.1686 1.8316C15.4342 2.09728 15.5835 2.45761 15.5835 2.83333V4.95833Z" fill="url(#paint1_linear_913_1582)"/>
<path d="M4.95833 9.20834H2.83333C2.08189 9.20834 1.36122 9.50685 0.829864 10.0382C0.298511 10.5696 0 11.2902 0 12.0417L0 14.1667C0 14.9181 0.298511 15.6388 0.829864 16.1701C1.36122 16.7015 2.08189 17 2.83333 17H4.95833C5.70978 17 6.43045 16.7015 6.9618 16.1701C7.49316 15.6388 7.79167 14.9181 7.79167 14.1667V12.0417C7.79167 11.2902 7.49316 10.5696 6.9618 10.0382C6.43045 9.50685 5.70978 9.20834 4.95833 9.20834ZM6.375 14.1667C6.375 14.5424 6.22575 14.9027 5.96007 15.1684C5.69439 15.4341 5.33406 15.5833 4.95833 15.5833H2.83333C2.45761 15.5833 2.09728 15.4341 1.8316 15.1684C1.56592 14.9027 1.41667 14.5424 1.41667 14.1667V12.0417C1.41667 11.666 1.56592 11.3056 1.8316 11.0399C2.09728 10.7743 2.45761 10.625 2.83333 10.625H4.95833C5.33406 10.625 5.69439 10.7743 5.96007 11.0399C6.22575 11.3056 6.375 11.666 6.375 12.0417V14.1667Z" fill="url(#paint2_linear_913_1582)"/>
<path d="M14.1668 9.20834H12.0418C11.2904 9.20834 10.5697 9.50685 10.0384 10.0382C9.50701 10.5696 9.2085 11.2902 9.2085 12.0417V14.1667C9.2085 14.9181 9.50701 15.6388 10.0384 16.1701C10.5697 16.7015 11.2904 17 12.0418 17H14.1668C14.9183 17 15.6389 16.7015 16.1703 16.1701C16.7017 15.6388 17.0002 14.9181 17.0002 14.1667V12.0417C17.0002 11.2902 16.7017 10.5696 16.1703 10.0382C15.6389 9.50685 14.9183 9.20834 14.1668 9.20834ZM15.5835 14.1667C15.5835 14.5424 15.4342 14.9027 15.1686 15.1684C14.9029 15.4341 14.5426 15.5833 14.1668 15.5833H12.0418C11.6661 15.5833 11.3058 15.4341 11.0401 15.1684C10.7744 14.9027 10.6252 14.5424 10.6252 14.1667V12.0417C10.6252 11.666 10.7744 11.3056 11.0401 11.0399C11.3058 10.7743 11.6661 10.625 12.0418 10.625H14.1668C14.5426 10.625 14.9029 10.7743 15.1686 11.0399C15.4342 11.3056 15.5835 11.666 15.5835 12.0417V14.1667Z" fill="url(#paint3_linear_913_1582)"/>
</g>
<defs>
<linearGradient id="paint0_linear_913_1582" x1="0" y1="0" x2="9.32359" y2="2.95004" gradientUnits="userSpaceOnUse">
<stop stop-color="#181BF2"/>
<stop offset="1" stop-color="#0ABEFF"/>
</linearGradient>
<linearGradient id="paint1_linear_913_1582" x1="9.2085" y1="0" x2="18.5321" y2="2.95004" gradientUnits="userSpaceOnUse">
<stop stop-color="#181BF2"/>
<stop offset="1" stop-color="#0ABEFF"/>
</linearGradient>
<linearGradient id="paint2_linear_913_1582" x1="0" y1="9.20834" x2="9.32359" y2="12.1584" gradientUnits="userSpaceOnUse">
<stop stop-color="#181BF2"/>
<stop offset="1" stop-color="#0ABEFF"/>
</linearGradient>
<linearGradient id="paint3_linear_913_1582" x1="9.2085" y1="9.20834" x2="18.5321" y2="12.1584" gradientUnits="userSpaceOnUse">
<stop stop-color="#181BF2"/>
<stop offset="1" stop-color="#0ABEFF"/>
</linearGradient>
<clipPath id="clip0_913_1582">
<rect width="17" height="17" fill="white"/>
</clipPath>
</defs>
</svg>
