<svg width="1000" height="1000" viewBox="0 0 1000 1000" fill="none" xmlns="http://www.w3.org/2000/svg">
<rect width="1000" height="1000" fill="white"/>
<path d="M429.258 662.458C429.258 666.624 425.903 670 421.765 670H377.494C373.355 670 370 666.624 370 662.458V337.542C370 333.376 373.355 330 377.494 330H499.165C537.436 330 577.256 339.302 598.552 357.907C620.157 376.512 630.959 402.558 630.959 436.047C630.959 458.682 625.713 478.062 615.219 494.186C606.276 508.071 593.527 519.087 576.97 527.235C573.142 529.119 561.307 533.706 563.101 537.595L619.221 659.284C621.526 664.282 617.899 670 612.424 670H564.173C561.235 670 558.568 668.273 557.352 665.582L503.94 547.442C502.724 544.751 500.057 543.023 497.119 543.023H436.752C432.614 543.023 429.258 546.4 429.258 550.565V662.458Z" fill="#4B1D2B"/>
<path fill-rule="evenodd" clip-rule="evenodd" d="M466.677 454.17C466.798 454.974 466.859 455.796 466.859 456.633C466.859 465.902 459.273 473.428 449.93 473.428C440.586 473.428 433 465.902 433 456.633C433 447.364 440.586 439.838 449.93 439.838C456.258 439.838 461.78 443.288 464.685 448.397L471.598 444.889C470.892 442.379 470.517 439.732 470.517 436.998C470.517 429.973 473.005 423.52 477.156 418.463L464.779 406.181C463.019 407.199 460.973 407.782 458.792 407.782C452.22 407.782 446.884 402.489 446.884 395.969C446.884 389.45 452.22 384.156 458.792 384.156C465.364 384.156 470.7 389.45 470.7 395.969C470.7 398.136 470.112 400.163 469.086 401.909L481.462 414.187C486.563 410.073 493.065 407.601 500.146 407.601C507.23 407.601 513.732 410.073 518.833 414.187L532.848 400.284C530.799 397.408 529.596 393.897 529.596 390.108C529.596 380.356 537.578 372.434 547.412 372.434C557.245 372.434 565.228 380.356 565.228 390.108C565.228 399.864 557.245 407.782 547.412 407.782C543.596 407.782 540.057 406.589 537.155 404.559L523.139 418.463C527.29 423.52 529.778 429.973 529.778 436.998C529.778 441.548 528.734 445.859 526.87 449.708L534.822 453.213C538.065 448.835 543.294 445.992 549.184 445.992C559.018 445.992 567 453.911 567 463.666C567 473.419 559.018 481.34 549.184 481.34C539.35 481.34 531.368 473.419 531.368 463.666C531.368 461.914 531.627 460.225 532.105 458.627L523.648 454.899C518.812 461.134 511.509 465.397 503.192 466.24V478.325C508.293 479.661 512.054 484.271 512.054 489.748C512.054 496.268 506.718 501.561 500.146 501.561C493.577 501.561 488.242 496.268 488.242 489.748C488.242 484.271 492.003 479.661 497.101 478.325V466.24C486.968 465.213 478.341 459.107 473.843 450.536L466.677 454.17Z" fill="white"/>
</svg>
