<svg width="18" height="18" viewBox="0 0 18 18" fill="none" xmlns="http://www.w3.org/2000/svg">
<path d="M6.37545 7.12493C6.37545 7.53818 6.47145 7.92968 6.64245 8.27768C6.27495 8.74868 6.0462 9.33293 6.01545 9.96968C5.3097 9.22868 4.87545 8.22668 4.87545 7.12568C4.87545 4.56743 7.21695 2.54543 9.8697 3.08993C11.4312 3.41093 12.6964 4.66868 13.0294 6.22793C13.1299 6.69893 13.1487 7.16018 13.0977 7.60118C13.0542 7.97468 12.7264 8.25068 12.3499 8.25068H12.3162C11.8722 8.25068 11.5602 7.85543 11.6089 7.41443C11.6419 7.11818 11.6247 6.80693 11.5489 6.48968C11.3254 5.54993 10.5589 4.78868 9.6177 4.57193C7.9032 4.17818 6.3747 5.47718 6.3747 7.12568L6.37545 7.12493ZM3.45795 6.15368C3.66345 4.95893 4.2477 3.86993 5.1537 3.02018C6.30045 1.94543 7.80195 1.41443 9.3762 1.51193C12.3409 1.70393 14.6592 4.30118 14.6247 7.41068C14.6104 8.71268 13.5199 9.74918 12.2187 9.74918H10.4142C10.2312 9.12743 9.6627 8.66993 8.9817 8.66993C8.15295 8.66993 7.4817 9.34118 7.4817 10.1699C7.4817 10.9987 8.15295 11.6699 8.9817 11.6699C9.3852 11.6699 9.75045 11.5087 10.0197 11.2492H12.2187C14.3329 11.2492 16.0947 9.56543 16.1247 7.45193C16.1802 3.53618 13.2387 0.258682 9.47295 0.0156823C7.47495 -0.114068 5.5797 0.564682 4.12845 1.92668C3.0042 2.98043 2.25645 4.37543 1.9872 5.87618C1.90545 6.33218 2.2662 6.75068 2.72895 6.75068C3.08295 6.75068 3.3987 6.50393 3.45795 6.15443V6.15368ZM9.00045 12.7499C6.2292 12.7499 3.83145 14.4689 3.0342 17.0264C2.91045 17.4217 3.1317 17.8424 3.52695 17.9662C3.92145 18.0854 4.3422 17.8679 4.46595 17.4734C5.0577 15.5759 6.92145 14.2499 8.9997 14.2499C11.0779 14.2499 12.9424 15.5759 13.5334 17.4734C13.6339 17.7944 13.9294 17.9999 14.2497 17.9999C14.3239 17.9999 14.3982 17.9887 14.4732 17.9662C14.8684 17.8424 15.0889 17.4217 14.9659 17.0264C14.1687 14.4689 11.7709 12.7499 8.9997 12.7499H9.00045Z" fill="url(#paint0_linear_913_2564)"/>
<defs>
<linearGradient id="paint0_linear_913_2564" x1="1.97559" y1="0" x2="19.5173" y2="4.36315" gradientUnits="userSpaceOnUse">
<stop stop-color="#181BF2"/>
<stop offset="1" stop-color="#0ABEFF"/>
</linearGradient>
</defs>
</svg>
