<svg width="22" height="18" viewBox="0 0 22 18" fill="none" xmlns="http://www.w3.org/2000/svg">
<path d="M17.4167 0H4.58333C3.3682 0.00129916 2.20326 0.432722 1.34403 1.19963C0.484808 1.96655 0.00145554 3.00633 0 4.09091V13.9091C0.00145554 14.9937 0.484808 16.0335 1.34403 16.8004C2.20326 17.5673 3.3682 17.9987 4.58333 18H17.4167C18.6318 17.9987 19.7967 17.5673 20.656 16.8004C21.5152 16.0335 21.9985 14.9937 22 13.9091V4.09091C21.9985 3.00633 21.5152 1.96655 20.656 1.19963C19.7967 0.432722 18.6318 0.00129916 17.4167 0ZM4.58333 1.63636H17.4167C17.9656 1.63733 18.5016 1.78488 18.9557 2.06002C19.4099 2.33517 19.7614 2.72532 19.965 3.18027L12.9452 9.44673C12.4286 9.90598 11.7291 10.1638 11 10.1638C10.2709 10.1638 9.57144 9.90598 9.05483 9.44673L2.035 3.18027C2.23864 2.72532 2.59015 2.33517 3.04429 2.06002C3.49844 1.78488 4.03445 1.63733 4.58333 1.63636ZM17.4167 16.3636H4.58333C3.85399 16.3636 3.15451 16.105 2.63879 15.6447C2.12306 15.1844 1.83333 14.5601 1.83333 13.9091V5.31818L7.75867 10.6036C8.61908 11.3697 9.78474 11.7999 11 11.7999C12.2153 11.7999 13.3809 11.3697 14.2413 10.6036L20.1667 5.31818V13.9091C20.1667 14.5601 19.8769 15.1844 19.3612 15.6447C18.8455 16.105 18.146 16.3636 17.4167 16.3636Z" fill="url(#paint0_linear_913_2001)"/>
<defs>
<linearGradient id="paint0_linear_913_2001" x1="0" y1="0" x2="25.1933" y2="9.7427" gradientUnits="userSpaceOnUse">
<stop stop-color="#181BF2"/>
<stop offset="1" stop-color="#0ABEFF"/>
</linearGradient>
</defs>
</svg>
