<svg width="28" height="20" viewBox="0 0 28 20" fill="none" xmlns="http://www.w3.org/2000/svg">
<path d="M25.4224 0H2.57764C1.13734 0 0 1.15457 0 2.54416V17.2871C0 18.7087 1.16977 19.8313 2.57764 19.8313H25.4224C26.8627 19.8313 28 18.6767 28 17.2871V2.54416C28 1.12251 26.8302 0 25.4224 0ZM26.3594 17.2871C26.3594 17.7975 25.9406 18.2119 25.4224 18.2119H2.57764C2.06052 18.2119 1.64062 17.7986 1.64062 17.2871V2.54416C1.64062 2.03376 2.05942 1.61932 2.57764 1.61932H25.4224C25.9395 1.61932 26.3594 2.03268 26.3594 2.54416V17.2871Z" fill="url(#paint0_linear_913_1978)"/>
<path d="M10.9783 11.8966C11.455 11.3699 11.7454 10.6757 11.7454 9.91551C11.7454 8.27357 10.392 6.93774 8.72847 6.93774C7.06493 6.93774 5.71158 8.27357 5.71158 9.91551C5.71158 10.6757 6.00202 11.3699 6.47862 11.8966C5.2294 12.6483 4.39355 14.0059 4.39355 15.5525C4.39355 15.9997 4.76084 16.3622 5.21387 16.3622H12.243C12.696 16.3622 13.0633 15.9997 13.0633 15.5525C13.0633 14.0059 12.2275 12.6483 10.9783 11.8966ZM8.72847 8.55706C9.48737 8.55706 10.1048 9.16647 10.1048 9.91551C10.1048 10.6646 9.48737 11.274 8.72847 11.274C7.96957 11.274 7.3522 10.6646 7.3522 9.91551C7.3522 9.16647 7.96957 8.55706 8.72847 8.55706ZM6.16182 14.7429C6.50963 13.6712 7.52873 12.8933 8.72847 12.8933C9.9282 12.8933 10.9473 13.6712 11.2951 14.7429H6.16182Z" fill="url(#paint1_linear_913_1978)"/>
<path d="M22.7863 7.80518H16.6357C16.1827 7.80518 15.8154 8.16769 15.8154 8.61483C15.8154 9.06198 16.1827 9.42449 16.6357 9.42449H22.7863C23.2393 9.42449 23.6066 9.06198 23.6066 8.61483C23.6066 8.16769 23.2393 7.80518 22.7863 7.80518Z" fill="url(#paint2_linear_913_1978)"/>
<path d="M22.7868 3.46899H5.21387C4.76084 3.46899 4.39355 3.83151 4.39355 4.27865C4.39355 4.7258 4.76084 5.08831 5.21387 5.08831H22.7868C23.2399 5.08831 23.6071 4.7258 23.6071 4.27865C23.6071 3.83151 23.2399 3.46899 22.7868 3.46899Z" fill="url(#paint3_linear_913_1978)"/>
<path d="M22.7863 11.2739H16.6357C16.1827 11.2739 15.8154 11.6364 15.8154 12.0836C15.8154 12.5307 16.1827 12.8932 16.6357 12.8932H22.7863C23.2393 12.8932 23.6066 12.5307 23.6066 12.0836C23.6066 11.6364 23.2393 11.2739 22.7863 11.2739Z" fill="url(#paint4_linear_913_1978)"/>
<path d="M21.029 14.7429H16.6357C16.1827 14.7429 15.8154 15.1054 15.8154 15.5526C15.8154 15.9997 16.1827 16.3622 16.6357 16.3622H21.029C21.482 16.3622 21.8493 15.9997 21.8493 15.5526C21.8493 15.1054 21.482 14.7429 21.029 14.7429Z" fill="url(#paint5_linear_913_1978)"/>
<defs>
<linearGradient id="paint0_linear_913_1978" x1="0" y1="0" x2="30.727" y2="13.7269" gradientUnits="userSpaceOnUse">
<stop stop-color="#181BF2"/>
<stop offset="1" stop-color="#0ABEFF"/>
</linearGradient>
<linearGradient id="paint1_linear_913_1978" x1="4.39355" y1="6.93774" x2="14.9151" y2="10.0002" gradientUnits="userSpaceOnUse">
<stop stop-color="#181BF2"/>
<stop offset="1" stop-color="#0ABEFF"/>
</linearGradient>
<linearGradient id="paint2_linear_913_1978" x1="15.8154" y1="7.80518" x2="18.907" y2="12.5116" gradientUnits="userSpaceOnUse">
<stop stop-color="#181BF2"/>
<stop offset="1" stop-color="#0ABEFF"/>
</linearGradient>
<linearGradient id="paint3_linear_913_1978" x1="4.39355" y1="3.46899" x2="6.06922" y2="9.75982" gradientUnits="userSpaceOnUse">
<stop stop-color="#181BF2"/>
<stop offset="1" stop-color="#0ABEFF"/>
</linearGradient>
<linearGradient id="paint4_linear_913_1978" x1="15.8154" y1="11.2739" x2="18.907" y2="15.9803" gradientUnits="userSpaceOnUse">
<stop stop-color="#181BF2"/>
<stop offset="1" stop-color="#0ABEFF"/>
</linearGradient>
<linearGradient id="paint5_linear_913_1978" x1="15.8154" y1="14.7429" x2="19.1389" y2="18.6612" gradientUnits="userSpaceOnUse">
<stop stop-color="#181BF2"/>
<stop offset="1" stop-color="#0ABEFF"/>
</linearGradient>
</defs>
</svg>
