<svg width="21" height="20" viewBox="0 0 21 20" fill="none" xmlns="http://www.w3.org/2000/svg">
<g clip-path="url(#clip0_913_1845)">
<path d="M18.8972 10.9332L17.183 7.93324C16.8179 7.29602 16.2913 6.76635 15.6562 6.39765C15.021 6.02895 14.2999 5.83427 13.5655 5.83324H7.43384C6.69945 5.83427 5.97832 6.02895 5.3432 6.39765C4.70807 6.76635 4.18141 7.29602 3.81634 7.93324L2.10217 10.9332C1.59842 11.8149 1.33331 12.8128 1.33301 13.8282V14.9999C1.33317 15.5849 1.48727 16.1595 1.77982 16.6661C2.07237 17.1726 2.49308 17.5933 2.99967 17.8857V18.3332C2.99967 18.7753 3.17527 19.1992 3.48783 19.5118C3.80039 19.8243 4.22431 19.9999 4.66634 19.9999C5.10837 19.9999 5.53229 19.8243 5.84485 19.5118C6.15741 19.1992 6.33301 18.7753 6.33301 18.3332H14.6663C14.6663 18.7753 14.8419 19.1992 15.1545 19.5118C15.4671 19.8243 15.891 19.9999 16.333 19.9999C16.775 19.9999 17.199 19.8243 17.5115 19.5118C17.8241 19.1992 17.9997 18.7753 17.9997 18.3332V17.8857C18.5063 17.5933 18.927 17.1726 19.2195 16.6661C19.5121 16.1595 19.6662 15.5849 19.6663 14.9999V13.8282C19.666 12.8128 19.4009 11.8149 18.8972 10.9332ZM5.26384 8.75991C5.4828 8.37762 5.79871 8.05983 6.1797 7.83861C6.56069 7.61739 6.99328 7.50056 7.43384 7.49991H13.5655C14.0055 7.50115 14.4374 7.61825 14.8178 7.83945C15.1981 8.06064 15.5135 8.37811 15.7322 8.75991L17.3972 11.6666H3.60217L5.26384 8.75991ZM17.9997 14.9999C17.9997 15.4419 17.8241 15.8659 17.5115 16.1784C17.199 16.491 16.775 16.6666 16.333 16.6666H4.66634C4.22431 16.6666 3.80039 16.491 3.48783 16.1784C3.17527 15.8659 2.99967 15.4419 2.99967 14.9999V13.8282C3.00007 13.6628 3.01008 13.4975 3.02967 13.3332H4.66634V14.1666C4.66634 14.3876 4.75414 14.5996 4.91042 14.7558C5.0667 14.9121 5.27866 14.9999 5.49967 14.9999C5.72069 14.9999 5.93265 14.9121 6.08893 14.7558C6.24521 14.5996 6.33301 14.3876 6.33301 14.1666V13.3332H14.6663V14.1666C14.6663 14.3876 14.7541 14.5996 14.9104 14.7558C15.0667 14.9121 15.2787 14.9999 15.4997 14.9999C15.7207 14.9999 15.9327 14.9121 16.0889 14.7558C16.2452 14.5996 16.333 14.3876 16.333 14.1666V13.3332H17.9697C17.9893 13.4975 17.9993 13.6628 17.9997 13.8282V14.9999ZM9.32134 3.67824C9.00889 3.3657 8.83336 2.94185 8.83336 2.49991C8.83336 2.05797 9.00889 1.63412 9.32134 1.32158L9.98801 0.571577C10.0519 0.499616 10.1303 0.442013 10.2181 0.402565C10.3058 0.363117 10.401 0.342721 10.4972 0.342721C10.5934 0.342721 10.6885 0.363117 10.7763 0.402565C10.8641 0.442013 10.9425 0.499616 11.0063 0.571577L11.673 1.32158C11.9006 1.55629 12.0547 1.8524 12.1162 2.1735C12.1778 2.4946 12.1442 2.82669 12.0195 3.12894C11.8949 3.43119 11.6846 3.69042 11.4146 3.87477C11.1446 4.05912 10.8266 4.16055 10.4997 4.16658C10.2808 4.16699 10.0639 4.12405 9.86168 4.04023C9.65944 3.95642 9.4758 3.83339 9.32134 3.67824ZM14.3088 3.67824C13.9964 3.3657 13.8209 2.94185 13.8209 2.49991C13.8209 2.05797 13.9964 1.63412 14.3088 1.32158L14.9755 0.571577C15.0395 0.499596 15.1179 0.441982 15.2058 0.402527C15.2936 0.363072 15.3888 0.342673 15.4851 0.342673C15.5814 0.342673 15.6766 0.363072 15.7644 0.402527C15.8522 0.441982 15.9307 0.499596 15.9947 0.571577L16.6613 1.32158C16.889 1.55634 17.0431 1.85253 17.1046 2.1737C17.1661 2.49487 17.1324 2.82703 17.0077 3.12931C16.8829 3.43159 16.6725 3.69082 16.4024 3.87511C16.1323 4.05939 15.8141 4.1607 15.4872 4.16658C15.2683 4.16689 15.0515 4.12391 14.8492 4.0401C14.647 3.95629 14.4634 3.83331 14.3088 3.67824ZM4.30884 3.67824C3.99639 3.3657 3.82086 2.94185 3.82086 2.49991C3.82086 2.05797 3.99639 1.63412 4.30884 1.32158L4.97551 0.571577C5.03948 0.498765 5.11825 0.440433 5.20655 0.400473C5.29486 0.360513 5.39067 0.339844 5.48759 0.339844C5.58452 0.339844 5.68033 0.360513 5.76863 0.400473C5.85693 0.440433 5.9357 0.498765 5.99967 0.571577L6.66634 1.32158C6.89426 1.55665 7.0484 1.85329 7.10975 2.17491C7.17111 2.49654 7.137 2.82908 7.01164 3.13156C6.88627 3.43403 6.67513 3.6932 6.40424 3.87712C6.13335 4.06104 5.81456 4.16166 5.48717 4.16658C5.26827 4.16689 5.05146 4.12391 4.84923 4.0401C4.64701 3.95629 4.46335 3.83331 4.30884 3.67824Z" fill="url(#paint0_linear_913_1845)"/>
</g>
<defs>
<linearGradient id="paint0_linear_913_1845" x1="1.33301" y1="0.339844" x2="23.5343" y2="6.89044" gradientUnits="userSpaceOnUse">
<stop stop-color="#181BF2"/>
<stop offset="1" stop-color="#0ABEFF"/>
</linearGradient>
<clipPath id="clip0_913_1845">
<rect width="20" height="20" fill="white" transform="translate(0.5)"/>
</clipPath>
</defs>
</svg>
