<svg width="360" height="257" viewBox="0 0 360 257" fill="none" xmlns="http://www.w3.org/2000/svg">
<path d="M323.929 236.455H300.081V236.635H323.929V236.455Z" fill="#EBEBEB"/>
<path d="M238.478 238.41H232.219V238.59H238.478V238.41Z" fill="#EBEBEB"/>
<path d="M299.36 229.767H285.542V229.947H299.36V229.767Z" fill="#EBEBEB"/>
<path d="M68.8695 230.977H37.7705V231.157H68.8695V230.977Z" fill="#EBEBEB"/>
<path d="M79.84 230.977H75.2803V231.157H79.84V230.977Z" fill="#EBEBEB"/>
<path d="M162.106 234.018H94.6592V234.198H162.106V234.018Z" fill="#EBEBEB"/>
<path d="M360 224.861H0V225.041H360V224.861Z" fill="#EBEBEB"/>
<path d="M290.487 107.234C300.33 99.5633 313.014 98.3452 322.856 90.6747C318.463 86.2794 314.069 81.8841 309.675 77.4888C299.833 85.1593 287.149 86.3773 277.307 94.0479C281.701 98.4425 286.094 102.838 290.487 107.234Z" fill="#F5F5F5"/>
<path d="M283.118 92.2048C290.625 87.9737 299.349 86.6016 306.793 82.2617C308.4 83.0382 310.336 83.2514 311.955 82.7004C314.166 84.9124 315.271 86.0181 317.483 88.2302C316.695 89.6132 316.481 91.1229 317.044 92.5174C309.6 96.8573 300.876 98.2287 293.369 102.461C291.762 101.685 289.826 101.471 288.207 102.022C285.996 99.8098 284.89 98.7041 282.679 96.4921C283.467 95.1091 283.681 93.5993 283.118 92.2048Z" fill="#E6E6E6"/>
<path d="M295.603 93.9557C297.706 96.0597 301.399 97.0343 303.889 96.1699C306.38 95.3055 306.663 92.8695 304.56 90.7655C302.457 88.6615 298.764 87.6869 296.274 88.5505C293.783 89.4156 293.5 91.8517 295.603 93.9557Z" fill="#FAFAFA"/>
<path d="M280.899 24.2629C287.618 29.9086 289.17 39.13 284.329 44.8679L282.641 46.8704C277.821 52.5997 268.471 52.6624 261.759 47.013C255.048 41.3636 253.496 32.143 258.337 26.4043L260.022 24.3954C264.842 18.6668 274.181 18.6171 280.899 24.2629Z" fill="#E0E0E0"/>
<path d="M284.327 44.8689C289.147 39.1386 287.613 29.9116 280.901 24.2599C274.188 18.6081 264.838 18.6718 260.018 24.4022C255.197 30.1325 256.731 39.3595 263.444 45.0112C270.157 50.663 279.506 50.5993 284.327 44.8689Z" fill="#F5F5F5"/>
<path d="M282.217 43.0934C286.201 38.3574 284.933 30.7314 279.385 26.0602C273.837 21.389 266.109 21.4415 262.125 26.1775C258.141 30.9134 259.409 38.5394 264.957 43.2106C270.505 47.8818 278.233 47.8293 282.217 43.0934Z" fill="#E0E0E0"/>
<path d="M277.962 38.8986L279.403 40.497L278.402 41.4031L276.976 39.8105C275.836 40.7599 274.406 41.2886 272.922 41.3087L272.166 39.4028C273.408 39.41 274.62 39.016 275.622 38.2791L273.048 35.4217C271.347 36.2515 269.431 37.0359 267.645 35.0522C266.334 33.5935 266.098 31.5075 267.808 29.5807L266.359 27.9629L267.357 27.064L268.783 28.6566C269.716 27.901 270.847 27.4306 272.041 27.3017L272.825 29.2191C271.868 29.3409 270.953 29.6866 270.154 30.2276L272.753 33.1203C274.457 32.284 276.381 31.4614 278.166 33.4459C279.461 34.8627 279.673 36.948 277.962 38.8986ZM271.465 33.6764L269.181 31.1258C268.529 31.7805 268.506 32.8322 269.128 33.515C269.732 34.2202 270.54 34.0661 271.465 33.6764ZM276.699 34.9434C276.075 34.2469 275.254 34.3722 274.299 34.7979L276.576 37.306C277.311 36.3833 277.259 35.5593 276.702 34.9369L276.699 34.9434Z" fill="#F5F5F5"/>
<path d="M314.826 142.608C319.386 151.74 316.78 162.297 308.964 166.181L306.236 167.537C298.446 171.421 288.44 167.163 283.889 158.031C279.338 148.899 281.944 138.341 289.761 134.458L292.488 133.093C300.278 129.209 310.266 133.476 314.826 142.608Z" fill="#E0E0E0"/>
<path d="M308.95 166.194C316.742 162.309 319.37 151.755 314.819 142.619C310.269 133.484 300.263 129.227 292.471 133.112C284.679 136.996 282.052 147.551 286.602 156.687C291.153 165.822 301.158 170.079 308.95 166.194Z" fill="#F5F5F5"/>
<path d="M307.52 163.329C313.96 160.118 316.131 151.395 312.37 143.844C308.609 136.294 300.34 132.775 293.9 135.986C287.461 139.196 285.289 147.919 289.05 155.47C292.811 163.021 301.08 166.539 307.52 163.329Z" fill="#E0E0E0"/>
<path d="M304.928 156.866L305.727 159.237L304.24 159.74L303.454 157.381C301.8 157.868 300.028 157.77 298.437 157.105L298.51 154.721C299.833 155.303 301.308 155.443 302.717 155.12L301.292 150.881C299.093 150.979 296.686 150.93 295.697 147.987C294.972 145.825 295.685 143.49 298.399 142.224L297.601 139.828L299.081 139.33L299.867 141.689C301.212 141.314 302.636 141.336 303.97 141.75L303.921 144.159C302.843 143.846 301.707 143.791 300.604 143.999L302.042 148.288C304.246 148.183 306.678 148.195 307.667 151.139C308.392 153.253 307.655 155.576 304.928 156.866ZM300.408 148.289L299.149 144.51C298.151 144.908 297.64 146.019 297.988 147.036C298.308 148.068 299.241 148.277 300.408 148.289ZM305.407 152.061C305.063 151.029 304.13 150.783 302.914 150.796L304.185 154.525C305.395 153.88 305.72 152.977 305.413 152.055L305.407 152.061Z" fill="#F5F5F5"/>
<path d="M104.715 20.9759L107.81 22.5238C116.681 26.9321 119.639 38.9129 114.474 49.2774C109.309 59.6419 97.9535 64.4737 89.1119 60.0654L86.0166 58.5268C77.1455 54.1186 74.1885 42.1377 79.3631 31.7732C84.537 21.4102 95.8727 16.5683 104.715 20.9759Z" fill="#E0E0E0"/>
<path d="M111.375 47.7373C116.539 37.3697 113.557 25.3912 104.713 20.9825C95.8702 16.5739 84.5149 21.4046 79.3507 31.7722C74.1864 42.1398 77.1688 54.1184 86.0121 58.527C94.8553 62.9357 106.211 58.105 111.375 47.7373Z" fill="#F5F5F5"/>
<path d="M108.596 46.3542C112.865 37.7849 110.4 27.8844 103.092 24.2408C95.7831 20.5972 86.398 24.5903 82.1296 33.1595C77.8611 41.7288 80.3257 51.6293 87.6343 55.2729C94.9429 58.9165 104.328 54.9234 108.596 46.3542Z" fill="#E0E0E0"/>
<path d="M92.2352 48.3405L90.9737 50.8846L89.3768 50.0959L90.6382 47.5712C88.9203 46.6327 87.5768 45.1323 86.833 43.3207L88.8044 41.4666C89.3984 42.9966 90.4704 44.2931 91.86 45.1647L94.1172 40.6188C92.274 38.9326 90.3812 36.9604 91.9486 33.8047C93.1021 31.4875 95.5464 30.1859 98.7404 31.3492L100.022 28.7856L101.609 29.5744L100.347 32.0991C101.727 32.8784 102.853 34.0388 103.59 35.442L101.619 37.335C101.005 36.2192 100.137 35.2626 99.0853 34.5445L96.7985 39.14C98.6518 40.8263 100.594 42.7884 99.0262 45.944C97.9124 48.2224 95.4579 49.4944 92.2352 48.3405ZM95.4874 37.8284L97.5085 33.7853C96.3889 33.3034 95.0878 33.7846 94.5514 34.8802C93.9797 35.9649 94.5608 36.8819 95.4874 37.8284ZM96.4731 44.8694C97.0253 43.7651 96.4731 42.8179 95.4874 41.852L93.5161 45.8655C95.0043 46.3193 95.99 45.8555 96.4832 44.8694H96.4731Z" fill="#F5F5F5"/>
<path d="M79.096 139.371L81.6426 138.522C88.9254 136.072 97.1169 141.021 99.9659 149.54C102.815 158.059 99.2358 166.941 91.9696 169.375L89.4287 170.229C82.1459 172.68 73.9545 167.73 71.1105 159.206C68.2665 150.681 71.8298 141.805 79.096 139.371Z" fill="#E0E0E0"/>
<path d="M89.4394 170.236C96.7077 167.802 100.288 158.92 97.4363 150.399C94.5845 141.878 86.3805 136.943 79.1122 139.378C71.8438 141.813 68.2635 150.694 71.1153 159.215C73.9671 167.736 82.1711 172.671 89.4394 170.236Z" fill="#F5F5F5"/>
<path d="M88.5449 167.559C94.5519 165.547 97.5107 158.206 95.1535 151.163C92.7964 144.12 86.0159 140.041 80.0089 142.053C74.002 144.065 71.0432 151.406 73.4003 158.449C75.7574 165.493 82.5379 169.571 88.5449 167.559Z" fill="#E0E0E0"/>
<path d="M87.2562 161.229L87.959 163.317L86.6507 163.761L85.9588 161.684C84.5022 162.111 82.9427 162.026 81.5416 161.44L81.6064 159.341C82.7706 159.854 84.0695 159.977 85.3101 159.693L84.0558 155.961C82.1205 156.047 80.0008 156.004 79.1303 153.413C78.4924 151.509 79.1195 149.454 81.5092 148.339L80.8065 146.229L82.1097 145.792L82.8016 147.869C83.986 147.539 85.2395 147.558 86.4131 147.923L86.3699 150.043C85.421 149.768 84.4209 149.72 83.4503 149.903L84.7153 153.678C86.6565 153.586 88.7978 153.597 89.6682 156.188C90.3054 158.049 89.6567 160.093 87.2562 161.229ZM83.2768 153.678L82.1687 150.352C81.2903 150.702 80.841 151.68 81.147 152.575C81.4278 153.484 82.2494 153.667 83.2768 153.678ZM87.6782 156.999C87.375 156.09 86.5535 155.874 85.4829 155.885L86.6018 159.168C87.6666 158.601 87.9532 157.805 87.6832 156.994L87.6782 156.999Z" fill="#F5F5F5"/>
<path d="M58.2383 114.43C76.3916 116.686 90.8053 128.579 108.959 130.835C108.959 121.721 108.959 112.607 108.959 103.493C90.806 101.237 76.3924 89.3429 58.2383 87.0869C58.239 96.2017 58.239 105.316 58.2383 114.43Z" fill="#F5F5F5"/>
<path d="M66.1738 91.2041C78.3432 94.6047 88.8084 102.23 101.025 105.452C101.887 107.924 103.672 110.154 105.923 111.262C105.923 115.849 105.923 118.141 105.923 122.728C103.673 123.345 101.887 124.689 101.025 126.719C88.8092 123.497 78.3432 115.871 66.1738 112.47C65.312 109.999 63.5264 107.769 61.2764 106.661C61.2764 102.074 61.2764 99.7815 61.2764 95.1946C63.5256 94.578 65.3112 93.2339 66.1738 91.2041Z" fill="#E6E6E6"/>
<path d="M77.3018 105.97C77.3018 110.332 80.1206 115.174 83.5982 116.861C87.0758 118.548 89.8938 116.316 89.8938 111.953C89.8938 107.59 87.075 102.749 83.5982 101.062C80.1206 99.3753 77.3018 101.607 77.3018 105.97Z" fill="#FAFAFA"/>
<path d="M126.853 13.223C134.52 23.0696 135.737 35.7592 143.405 45.6051C147.798 41.2098 152.192 36.8145 156.586 32.4192C148.918 22.5726 147.701 9.88296 140.034 0.036377C135.64 4.4324 131.247 8.82771 126.853 13.223Z" fill="#F5F5F5"/>
<path d="M141.874 5.85053C146.104 13.3619 147.475 22.0884 151.813 29.5356C151.037 31.1433 150.824 33.0803 151.375 34.7002C149.164 36.9123 148.058 38.0179 145.847 40.23C144.465 39.442 142.956 39.2281 141.562 39.7913C137.224 32.3441 135.853 23.6169 131.623 16.1062C132.399 14.4985 132.612 12.5616 132.062 10.9417C134.273 8.7296 135.378 7.62392 137.589 5.41187C138.971 6.2006 140.48 6.41381 141.874 5.85053Z" fill="#E6E6E6"/>
<path d="M140.124 18.3411C138.021 20.4451 137.047 24.1395 137.911 26.6311C138.775 29.1226 141.21 29.4057 143.313 27.3024C145.415 25.1991 146.39 21.5039 145.527 19.0124C144.663 16.5209 142.228 16.2371 140.124 18.3411Z" fill="#FAFAFA"/>
<path d="M180 257C257.099 257 319.601 253.348 319.601 248.844C319.601 244.34 257.099 240.688 180 240.688C102.901 240.688 40.4004 244.34 40.4004 248.844C40.4004 253.348 102.901 257 180 257Z" fill="#F5F5F5"/>
<path d="M277.903 141.167C276.444 139.947 275.001 138.689 273.583 137.418L269.326 133.599C268.627 133.025 268.005 132.003 267.891 131.025C267.755 130.05 267.946 129.254 268.169 128.607C268.643 127.313 269.327 126.429 270.008 125.592C271.409 123.958 272.939 122.705 274.644 121.556L276.267 123.454C275.107 124.847 273.943 126.354 273.076 127.812C272.646 128.53 272.299 129.295 272.199 129.837C272.144 130.102 272.183 130.281 272.215 130.254C272.258 130.225 272.173 130.069 272.22 130.094L273.375 130.931L274.539 131.816C275.309 132.406 276.067 133.005 276.814 133.614C278.316 134.826 279.778 136.069 281.212 137.362L277.903 141.167Z" fill="#803E3C"/>
<path d="M280.669 142.51C278.109 142.886 272.187 136.881 272.187 136.881L276.247 132.232C276.247 132.232 279.432 134.212 281.726 136.615C284.081 139.084 283.479 142.097 280.669 142.51Z" fill="url(#paint0_linear_110_376)"/>
<path opacity="0.7" d="M280.669 142.51C278.109 142.886 272.187 136.881 272.187 136.881L276.247 132.232C276.247 132.232 279.432 134.212 281.726 136.615C284.081 139.084 283.479 142.097 280.669 142.51Z" fill="white"/>
<path d="M274.1 122.634L274.776 119.362L277.725 121.604C277.725 121.604 276.945 124.487 275.478 124.022L274.1 122.634Z" fill="#7F3E3B"/>
<path d="M277.033 116.944L278.914 119.732L277.724 121.604L274.775 119.362L277.033 116.944Z" fill="#7F3E3B"/>
<path opacity="0.2" d="M279.557 139.265C278.358 140.282 275.678 139.359 274.094 138.67C275.962 140.326 278.754 142.513 280.423 142.508C280.619 140.708 280.702 138.293 279.557 139.265Z" fill="#0C0C0C"/>
<path d="M263.636 241.255L260.333 240.055L262.152 232.092L265.454 233.292L263.636 241.255Z" fill="#7F3E3B"/>
<path d="M289.688 245.643H286.181L285.187 237.521H288.693L289.688 245.643Z" fill="#7F3E3B"/>
<path d="M285.722 245.237H289.997C290.14 245.237 290.266 245.337 290.298 245.476L291.022 248.595C291.097 248.918 290.846 249.224 290.515 249.218C289.14 249.195 288.135 249.114 286.403 249.114C285.337 249.114 282.125 249.225 280.653 249.225C279.214 249.225 278.975 247.769 279.576 247.637C282.272 247.046 284.299 246.231 285.156 245.453C285.31 245.313 285.512 245.237 285.722 245.237Z" fill="url(#paint1_linear_110_376)"/>
<path d="M260.212 239.383L263.964 240.188C264.104 240.218 264.206 240.341 264.209 240.485L264.263 243.678C264.268 244.009 263.967 244.257 263.643 244.181C262.295 243.868 260.355 243.369 258.654 243.004C256.665 242.577 255.432 242.175 253.099 241.675C251.689 241.372 251.589 239.865 252.206 239.862C255.014 239.852 256.714 240.403 259.329 239.471C259.614 239.371 259.915 239.319 260.212 239.383Z" fill="url(#paint2_linear_110_376)"/>
<path opacity="0.2" d="M262.153 232.094L261.214 236.198L264.518 237.399L265.457 233.295L262.153 232.094Z" fill="#0C0C0C"/>
<path opacity="0.2" d="M288.694 237.523H285.187L285.701 241.71H289.208L288.694 237.523Z" fill="#0C0C0C"/>
<path d="M299.936 138.954C298.399 142.661 297.241 147.211 296.343 150.839C295.689 153.494 295.18 156.044 294.776 158.363C293.826 163.798 293.442 167.988 293.108 169.38C290.413 168.835 280.254 166.778 274.715 165.655C274.581 145.515 280.637 135.941 280.637 135.941C280.637 135.941 282.74 135.8 285.144 135.974C285.461 135.995 285.782 136.026 286.107 136.062C288.214 136.292 291.601 137.057 293.928 137.645C294.417 137.769 294.91 137.908 295.389 138.05C297.823 138.781 299.936 138.954 299.936 138.954Z" fill="url(#paint3_linear_110_376)"/>
<path opacity="0.7" d="M299.936 138.954C298.399 142.661 297.241 147.211 296.343 150.839C295.689 153.494 295.18 156.044 294.776 158.363C293.826 163.798 293.442 167.988 293.108 169.38C290.413 168.835 280.254 166.778 274.715 165.655C274.581 145.515 280.637 135.941 280.637 135.941C280.637 135.941 282.74 135.8 285.144 135.974C285.461 135.995 285.782 136.026 286.107 136.062C288.214 136.292 291.601 137.057 293.928 137.645C294.417 137.769 294.91 137.908 295.389 138.05C297.823 138.781 299.936 138.954 299.936 138.954Z" fill="white"/>
<path d="M286.354 139.886C285.632 141.276 281.341 158.452 280.18 162.168C280.316 162.997 280.495 163.833 280.714 164.677C281.304 163.963 281.926 163.255 282.58 162.552C283.37 158.926 286.409 141.806 287.21 140.018L286.354 139.886Z" fill="url(#paint4_linear_110_376)"/>
<path d="M286.328 140.96L286.029 139.104L287.38 138.811L288.201 139.569L286.328 140.96Z" fill="url(#paint5_linear_110_376)"/>
<path d="M294.846 128.676C293.869 131.094 292.49 135.608 293.927 137.645C292.381 138.713 290.252 139.458 287.437 138.824C285.282 138.339 285.464 136.803 286.107 136.061C289.042 135.959 289.37 133.862 289.257 131.806L294.846 128.676Z" fill="#7F3E3B"/>
<path d="M287.38 138.811C287.38 138.811 287.987 140.026 288.737 141.257C290.315 140.802 294.065 139.485 294.329 137.587C294.259 137.002 293.607 136.52 293.607 136.52C293.607 136.52 291.085 138.072 287.38 138.811Z" fill="white"/>
<path d="M287.381 138.811C287.381 138.811 286.075 139.483 285.1 140.481C284.228 139.55 285.543 136.194 286.011 135.891C286.949 135.543 287.497 135.721 287.497 135.721C287.497 135.721 285.836 138.062 287.381 138.811Z" fill="white"/>
<path opacity="0.2" d="M292.566 129.953L289.259 131.803C289.287 132.29 289.288 132.778 289.233 133.241C290.335 133.303 292.033 132.424 292.363 131.324C292.528 130.775 292.608 130.232 292.566 129.953Z" fill="#0C0C0C"/>
<path d="M288.464 119.92C287.509 120.963 286.548 123.576 288.638 123.556C290.728 123.536 290.106 118.125 288.464 119.92Z" fill="#263238"/>
<path d="M296.508 125.686C295.23 128.919 294.645 130.878 292.43 132.011C289.097 133.716 285.523 130.833 285.811 127.273C286.07 124.068 288.117 119.32 291.77 119.093C295.368 118.871 297.786 122.453 296.508 125.686Z" fill="#7F3E3B"/>
<path d="M289.348 121.194C287.178 120.111 286.497 117.083 290.091 116.303C290.171 116.286 290.253 116.271 290.335 116.258C291.146 116.13 291.814 116.726 291.94 117.538C291.951 117.606 291.969 117.677 291.996 117.749C292.365 117.369 293.202 116.831 294.233 116.758C295.071 116.699 295.689 117.451 295.634 118.29C295.597 118.854 295.854 119.402 296.565 119.421C298.45 119.473 300.64 120.843 299.548 122.736C301.14 124.729 298.659 127.496 295.141 127.778C294.185 125.847 295.731 122.989 295.731 122.989C293.962 122.955 291.314 122.176 289.348 121.194Z" fill="#263238"/>
<path d="M299.02 122.807C299.02 122.807 300.626 122.582 300.08 121.072C301.282 122.077 300.404 123.004 299.02 122.807Z" fill="#263238"/>
<path d="M298.69 123.055C298.69 123.055 300.247 122.601 300.369 124.202C301.052 122.793 299.871 122.308 298.69 123.055Z" fill="#263238"/>
<path d="M296.883 128.851C296.342 129.615 295.499 130.053 294.74 130.164C293.596 130.332 293.161 129.268 293.594 128.259C293.982 127.35 295.046 126.169 296.139 126.463C297.215 126.753 297.502 127.979 296.883 128.851Z" fill="#7F3E3B"/>
<path d="M260.245 234.987L265.838 237.016C265.838 237.016 270.208 217.77 272.53 207.1C273.237 203.854 274.657 199.391 276.339 194.636C278.462 188.645 280.996 182.199 283.04 177.159C285.197 171.851 286.804 168.105 286.804 168.105L274.711 165.655C274.711 165.655 265.485 192.218 263.412 202.717C261.255 213.633 260.245 234.987 260.245 234.987Z" fill="#263238"/>
<path opacity="0.6" d="M276.341 194.635C278.463 188.644 280.997 182.198 283.042 177.158L282.106 174.262C278.646 177.466 276.487 188.504 276.341 194.635Z" fill="#0C0C0C"/>
<path d="M281.236 166.977C281.236 166.977 279.077 197.264 278.946 207.556C278.803 218.826 284.071 240.899 284.071 240.899H290.493C290.493 240.899 287.928 220.982 288.781 209.817C289.736 197.331 293.105 169.382 293.105 169.382L281.236 166.977Z" fill="#263238"/>
<path d="M283.304 241.038H290.866L290.844 238.778L282.949 238.322L283.304 241.038Z" fill="#263238"/>
<path d="M259.498 234.915L266.196 237.241L266.925 235.078L259.6 232.409L259.498 234.915Z" fill="#263238"/>
<path d="M291.211 124.924C291.123 125.192 290.91 125.362 290.735 125.303C290.559 125.244 290.489 124.978 290.576 124.71C290.664 124.441 290.877 124.271 291.052 124.33C291.227 124.389 291.299 124.655 291.211 124.924Z" fill="#263238"/>
<path d="M288.18 123.902C288.092 124.17 287.879 124.34 287.704 124.281C287.529 124.222 287.458 123.956 287.545 123.688C287.633 123.419 287.846 123.249 288.021 123.308C288.196 123.367 288.267 123.632 288.18 123.902Z" fill="#263238"/>
<path d="M289.099 124.36C289.099 124.36 287.987 125.642 287.074 126.138C287.405 126.716 288.278 126.784 288.278 126.784L289.099 124.36Z" fill="#630F0F"/>
<path d="M292.465 124.257C292.408 124.246 292.358 124.205 292.338 124.146C292.097 123.442 291.507 123.281 291.501 123.279C291.412 123.256 291.358 123.166 291.381 123.076C291.403 122.988 291.494 122.934 291.581 122.958C291.613 122.965 292.353 123.168 292.651 124.041C292.682 124.128 292.635 124.223 292.549 124.252C292.521 124.261 292.492 124.263 292.465 124.257Z" fill="#263238"/>
<path d="M287.214 122.415C287.183 122.41 287.153 122.395 287.129 122.371C287.063 122.307 287.061 122.201 287.124 122.135C287.762 121.477 288.511 121.626 288.546 121.628C288.636 121.646 288.694 121.734 288.677 121.824C288.659 121.914 288.574 121.973 288.484 121.955C288.453 121.947 287.874 121.84 287.362 122.368C287.322 122.41 287.266 122.426 287.214 122.415Z" fill="#263238"/>
<path d="M284.569 245.85C284.302 245.85 284.052 245.804 283.892 245.671C283.765 245.565 283.706 245.418 283.716 245.232C283.723 245.094 283.796 245.028 283.855 244.997C284.241 244.797 285.379 245.493 285.508 245.572C285.537 245.59 285.552 245.623 285.547 245.656C285.542 245.689 285.517 245.716 285.485 245.724C285.242 245.783 284.893 245.85 284.569 245.85ZM284.041 245.124C283.997 245.124 283.961 245.13 283.933 245.145C283.911 245.156 283.885 245.178 283.881 245.242C283.874 245.374 283.912 245.472 283.997 245.544C284.191 245.704 284.649 245.727 285.243 245.607C284.845 245.378 284.31 245.124 284.041 245.124Z" fill="url(#paint6_linear_110_376)"/>
<path d="M285.466 245.726C285.452 245.726 285.438 245.722 285.426 245.715C285.061 245.518 284.352 244.75 284.422 244.359C284.435 244.288 284.486 244.165 284.684 244.141C284.813 244.126 284.933 244.161 285.039 244.247C285.451 244.58 285.544 245.592 285.548 245.635C285.551 245.665 285.536 245.695 285.511 245.711C285.497 245.721 285.482 245.726 285.466 245.726ZM284.744 244.304C284.731 244.304 284.718 244.305 284.706 244.306C284.598 244.319 284.589 244.369 284.586 244.391C284.544 244.621 284.997 245.202 285.361 245.476C285.317 245.181 285.199 244.591 284.936 244.377C284.875 244.328 284.812 244.304 284.744 244.304Z" fill="url(#paint7_linear_110_376)"/>
<path d="M259.777 239.783C259.774 239.784 259.77 239.784 259.766 239.784C259.19 239.775 258.178 239.699 257.869 239.285C257.777 239.161 257.753 239.017 257.798 238.858C257.826 238.763 257.887 238.698 257.977 238.671C258.444 238.524 259.68 239.523 259.819 239.637C259.847 239.659 259.857 239.697 259.845 239.73C259.834 239.758 259.808 239.779 259.777 239.783ZM258.059 238.822C258.047 238.824 258.037 238.826 258.026 238.829C257.99 238.841 257.97 238.863 257.957 238.905C257.926 239.013 257.941 239.105 258.002 239.187C258.175 239.419 258.733 239.573 259.518 239.61C259.027 239.234 258.337 238.789 258.059 238.822Z" fill="url(#paint8_linear_110_376)"/>
<path d="M259.776 239.783C259.756 239.785 259.735 239.78 259.717 239.767C259.34 239.492 258.67 238.575 258.813 238.201C258.847 238.113 258.935 238.014 259.163 238.039C259.332 238.058 259.475 238.137 259.586 238.275C259.949 238.727 259.853 239.67 259.848 239.71C259.846 239.74 259.827 239.765 259.799 239.776C259.792 239.78 259.784 239.781 259.776 239.783ZM259.06 238.203C258.988 238.212 258.974 238.248 258.969 238.261C258.884 238.486 259.323 239.188 259.694 239.532C259.705 239.253 259.696 238.675 259.457 238.378C259.373 238.275 259.272 238.218 259.146 238.204C259.11 238.2 259.082 238.201 259.06 238.203Z" fill="url(#paint9_linear_110_376)"/>
<path opacity="0.2" d="M297.788 140.96L295.317 142.006V143.569C295.317 143.569 295.745 146.726 297.094 147.87C297.641 145.774 298.271 143.556 298.996 141.459C298.328 141.125 297.788 140.96 297.788 140.96Z" fill="#0C0C0C"/>
<path d="M298.312 139.893C299.321 139.736 300.405 139.59 301.442 139.402C302.49 139.238 303.53 139.055 304.543 138.838C305.546 138.61 306.555 138.39 307.418 138.091C307.842 137.946 308.249 137.786 308.483 137.659C308.514 137.636 308.596 137.6 308.592 137.6C308.586 137.608 308.637 137.571 308.59 137.621C308.528 137.692 308.487 137.751 308.459 137.8C308.357 137.997 308.412 137.973 308.433 137.877C308.491 137.664 308.53 137.223 308.515 136.774C308.506 136.318 308.462 135.825 308.4 135.324C308.293 134.315 308.094 133.276 307.904 132.225C307.708 131.175 307.478 130.118 307.227 129.064C307.005 128.003 306.731 126.937 306.493 125.889L308.828 125.006C309.357 126.025 309.8 127.044 310.259 128.079C310.688 129.121 311.098 130.175 311.481 131.251C311.869 132.328 312.191 133.433 312.475 134.594C312.607 135.178 312.725 135.776 312.806 136.419C312.88 137.067 312.95 137.737 312.836 138.614C312.763 139.059 312.671 139.578 312.274 140.243C312.173 140.408 312.048 140.578 311.89 140.749C311.75 140.9 311.691 140.947 311.584 141.049C311.382 141.242 311.223 141.346 311.036 141.491C310.347 141.969 309.743 142.261 309.142 142.519C307.95 143.018 306.824 143.371 305.687 143.661C303.415 144.244 301.218 144.651 298.902 144.899L298.312 139.893Z" fill="#803E3C"/>
<path d="M296.251 144.5C298.297 146.061 305.765 144.45 305.765 144.45L304.526 138.002C304.526 138.002 301.061 138.255 297.882 139.174C294.418 140.175 293.772 142.608 296.251 144.5Z" fill="url(#paint10_linear_110_376)"/>
<path opacity="0.7" d="M296.251 144.5C298.297 146.061 305.765 144.45 305.765 144.45L304.526 138.002C304.526 138.002 301.061 138.255 297.882 139.174C294.418 140.175 293.772 142.608 296.251 144.5Z" fill="white"/>
<path d="M309.218 125.813L309.469 122.417L305.444 123.949C305.444 123.949 305.874 126.881 307.46 126.813L309.218 125.813Z" fill="#7F3E3B"/>
<path d="M307.921 120.096L304.652 121.517L305.445 123.949L309.469 122.417L307.921 120.096Z" fill="#7F3E3B"/>
<path d="M287.566 127.95C287.566 127.95 288.396 127.83 290.663 128.035C290.315 128.72 289.751 129.253 288.591 129.137C287.432 129.021 287.566 127.95 287.566 127.95Z" fill="white"/>
<path d="M106.145 33.2671H118.227L137.384 249H125.302C119.729 249 114.81 244.48 114.315 238.904L96.9499 43.3616C96.4559 37.7867 100.573 33.2671 106.145 33.2671Z" fill="url(#paint11_linear_110_376)"/>
<path d="M260.799 249H128.882C122.638 249 117.135 243.936 116.589 237.69L99.7011 44.5766C99.1549 38.33 103.773 33.2671 110.017 33.2671H241.933C248.177 33.2671 253.681 38.33 254.227 44.5766L271.114 237.69C271.661 243.936 267.043 249 260.799 249Z" fill="url(#paint12_linear_110_376)"/>
<path opacity="0.5" d="M260.799 249H128.882C122.638 249 117.135 243.936 116.589 237.69L99.7011 44.5766C99.1549 38.33 103.773 33.2671 110.017 33.2671H241.933C248.177 33.2671 253.681 38.33 254.227 44.5766L271.114 237.69C271.661 243.936 267.043 249 260.799 249Z" fill="white"/>
<path opacity="0.2" d="M130.193 224.35H259.41L243.073 40.3755H113.856L130.193 224.35Z" fill="#0C0C0C"/>
<path d="M135.843 221.832H265.06L243.073 40.3755H113.856L135.843 221.832Z" fill="url(#paint13_linear_110_376)"/>
<path opacity="0.8" d="M135.843 221.832H265.06L243.073 40.3755H113.856L135.843 221.832Z" fill="white"/>
<path d="M235.146 90.6001H154.316C153.39 90.6001 152.572 89.8492 152.491 88.9219C152.41 87.9956 153.096 87.2437 154.022 87.2437H234.853C235.78 87.2437 236.597 87.9945 236.677 88.9219C236.758 89.8482 236.072 90.6001 235.146 90.6001Z" fill="#263238"/>
<path d="M232.622 100.114H140.884C139.957 100.114 139.14 99.3627 139.058 98.4353C138.977 97.509 139.663 96.7571 140.589 96.7571H232.327C233.254 96.7571 234.071 97.508 234.152 98.4353C234.234 99.3627 233.548 100.114 232.622 100.114Z" fill="#263238"/>
<path d="M236.81 109.627H141.716C140.789 109.627 139.972 108.877 139.891 107.949C139.81 107.023 140.496 106.271 141.422 106.271H236.517C237.443 106.271 238.261 107.022 238.342 107.949C238.423 108.877 237.738 109.627 236.81 109.627Z" fill="#263238"/>
<path d="M225.894 119.141H142.547C141.621 119.141 140.803 118.39 140.722 117.463C140.64 116.537 141.327 115.785 142.253 115.785H225.6C226.526 115.785 227.344 116.536 227.424 117.463C227.507 118.389 226.822 119.141 225.894 119.141Z" fill="#263238"/>
<path d="M238.475 128.655H157.645C156.719 128.655 155.901 127.904 155.82 126.977C155.738 126.05 156.424 125.299 157.351 125.299H238.181C239.108 125.299 239.925 126.05 240.005 126.977C240.088 127.904 239.402 128.655 238.475 128.655Z" fill="#263238"/>
<path d="M235.111 138.169H144.211C143.285 138.169 142.467 137.418 142.387 136.491C142.305 135.564 142.992 134.812 143.918 134.812H234.816C235.744 134.812 236.56 135.563 236.642 136.491C236.723 137.417 236.037 138.169 235.111 138.169Z" fill="#263238"/>
<path d="M240.138 147.68H145.043C144.117 147.68 143.299 146.93 143.218 146.002C143.137 145.076 143.823 144.324 144.749 144.324H239.843C240.77 144.324 241.588 145.075 241.668 146.002C241.75 146.93 241.064 147.68 240.138 147.68Z" fill="#263238"/>
<path d="M234.258 157.196H145.876C144.95 157.196 144.132 156.445 144.051 155.518C143.97 154.59 144.656 153.839 145.582 153.839H233.964C234.89 153.839 235.708 154.59 235.79 155.518C235.87 156.444 235.184 157.196 234.258 157.196Z" fill="#263238"/>
<g opacity="0.3">
<path d="M235.146 90.6001H154.316C153.39 90.6001 152.572 89.8492 152.491 88.9219C152.41 87.9956 153.096 87.2437 154.022 87.2437H234.853C235.78 87.2437 236.597 87.9945 236.677 88.9219C236.758 89.8482 236.072 90.6001 235.146 90.6001Z" fill="white"/>
<path d="M232.622 100.114H140.884C139.957 100.114 139.14 99.3627 139.058 98.4353C138.977 97.509 139.663 96.7571 140.589 96.7571H232.327C233.254 96.7571 234.071 97.508 234.152 98.4353C234.234 99.3627 233.548 100.114 232.622 100.114Z" fill="white"/>
<path d="M236.81 109.627H141.716C140.789 109.627 139.972 108.877 139.891 107.949C139.81 107.023 140.496 106.271 141.422 106.271H236.517C237.443 106.271 238.261 107.022 238.342 107.949C238.423 108.877 237.738 109.627 236.81 109.627Z" fill="white"/>
<path d="M225.894 119.141H142.547C141.621 119.141 140.803 118.39 140.722 117.463C140.64 116.537 141.327 115.785 142.253 115.785H225.6C226.526 115.785 227.344 116.536 227.424 117.463C227.507 118.389 226.822 119.141 225.894 119.141Z" fill="white"/>
<path d="M238.475 128.655H157.645C156.719 128.655 155.901 127.904 155.82 126.977C155.738 126.05 156.424 125.299 157.351 125.299H238.181C239.108 125.299 239.925 126.05 240.005 126.977C240.088 127.904 239.402 128.655 238.475 128.655Z" fill="white"/>
<path d="M235.111 138.169H144.211C143.285 138.169 142.467 137.418 142.387 136.491C142.305 135.564 142.992 134.812 143.918 134.812H234.816C235.744 134.812 236.56 135.563 236.642 136.491C236.723 137.417 236.037 138.169 235.111 138.169Z" fill="white"/>
<path d="M240.138 147.68H145.043C144.117 147.68 143.299 146.93 143.218 146.002C143.137 145.076 143.823 144.324 144.749 144.324H239.843C240.77 144.324 241.588 145.075 241.668 146.002C241.75 146.93 241.064 147.68 240.138 147.68Z" fill="white"/>
<path d="M234.258 157.196H145.876C144.95 157.196 144.132 156.445 144.051 155.518C143.97 154.59 144.656 153.839 145.582 153.839H233.964C234.89 153.839 235.708 154.59 235.79 155.518C235.87 156.444 235.184 157.196 234.258 157.196Z" fill="white"/>
</g>
<path d="M238.892 208.68H210.527C209.6 208.68 208.783 207.93 208.703 207.002C208.621 206.075 209.308 205.324 210.234 205.324H238.599C239.525 205.324 240.343 206.075 240.423 207.002C240.504 207.928 239.819 208.68 238.892 208.68Z" fill="#263238"/>
<path d="M208.463 202.874L208.462 202.872C208.224 202.563 208.262 202.145 208.552 201.933C210.56 200.454 212.777 198.723 214.851 196.988C215.339 193.805 217.483 189.726 219.659 187.83C221.288 186.41 222.5 186.584 223.229 186.979C223.735 187.255 224.053 187.703 224.121 188.242C224.385 190.293 220.229 194.341 216.131 197.789C216.067 198.462 216.109 199.042 216.284 199.471C216.465 199.917 216.764 200.123 217.286 200.156C219.579 200.304 220.831 199.089 222.041 197.914C223.402 196.594 224.809 195.228 227.368 196.489C229.626 197.6 229.68 198.718 229.554 199.678C229.539 199.79 229.516 199.96 229.53 200.013C229.54 200.013 229.821 200.278 231.573 200.499C235.485 201.001 237.594 198.157 238.303 196.949C238.474 196.66 238.843 196.568 239.166 196.732C239.539 196.922 239.693 197.376 239.496 197.71C238.648 199.145 236.17 202.436 231.519 201.849C229.768 201.628 228.914 201.325 228.472 200.767C228.084 200.276 228.15 199.762 228.201 199.387C228.272 198.849 228.327 198.424 226.852 197.698C225.238 196.902 224.433 197.572 223.037 198.928C221.767 200.162 220.185 201.699 217.319 201.513C216.238 201.443 215.423 200.865 215.025 199.882C214.906 199.589 214.828 199.259 214.786 198.902C212.598 200.684 210.572 202.205 209.424 203.051C209.13 203.266 208.702 203.184 208.463 202.874ZM222.241 188.059C221.657 188.059 220.996 188.547 220.607 188.887C218.977 190.307 217.443 193.022 216.655 195.444C220.19 192.346 222.918 189.475 222.767 188.298C222.76 188.244 222.757 188.215 222.658 188.162C222.528 188.091 222.386 188.059 222.241 188.059Z" fill="#263238"/>
<g opacity="0.3">
<path d="M238.892 208.68H210.527C209.6 208.68 208.783 207.93 208.703 207.002C208.621 206.075 209.308 205.324 210.234 205.324H238.599C239.525 205.324 240.343 206.075 240.423 207.002C240.504 207.928 239.819 208.68 238.892 208.68Z" fill="white"/>
<path d="M208.463 202.874L208.462 202.872C208.224 202.563 208.262 202.145 208.552 201.933C210.56 200.454 212.777 198.723 214.851 196.988C215.339 193.805 217.483 189.726 219.659 187.83C221.288 186.41 222.5 186.584 223.229 186.979C223.735 187.255 224.053 187.703 224.121 188.242C224.385 190.293 220.229 194.341 216.131 197.789C216.067 198.462 216.109 199.042 216.284 199.471C216.465 199.917 216.764 200.123 217.286 200.156C219.579 200.304 220.831 199.089 222.041 197.914C223.402 196.594 224.809 195.228 227.368 196.489C229.626 197.6 229.68 198.718 229.554 199.678C229.539 199.79 229.516 199.96 229.53 200.013C229.54 200.013 229.821 200.278 231.573 200.499C235.485 201.001 237.594 198.157 238.303 196.949C238.474 196.66 238.843 196.568 239.166 196.732C239.539 196.922 239.693 197.376 239.496 197.71C238.648 199.145 236.17 202.436 231.519 201.849C229.768 201.628 228.914 201.325 228.472 200.767C228.084 200.276 228.15 199.762 228.201 199.387C228.272 198.849 228.327 198.424 226.852 197.698C225.238 196.902 224.433 197.572 223.037 198.928C221.767 200.162 220.185 201.699 217.319 201.513C216.238 201.443 215.423 200.865 215.025 199.882C214.906 199.589 214.828 199.259 214.786 198.902C212.598 200.684 210.572 202.205 209.424 203.051C209.13 203.266 208.702 203.184 208.463 202.874ZM222.241 188.059C221.657 188.059 220.996 188.547 220.607 188.887C218.977 190.307 217.443 193.022 216.655 195.444C220.19 192.346 222.918 189.475 222.767 188.298C222.76 188.244 222.757 188.215 222.658 188.162C222.528 188.091 222.386 188.059 222.241 188.059Z" fill="white"/>
</g>
<path d="M206.213 192.823C202.694 192.823 199.429 190.155 198.74 186.577L198.482 185.237C197.746 181.412 200.228 177.974 204.016 177.572L238.901 173.871C240.737 173.674 242.6 174.214 244.148 175.385C245.698 176.558 246.748 178.223 247.105 180.076L247.363 181.417C247.72 183.269 247.34 185.087 246.295 186.535C245.25 187.982 243.665 188.887 241.83 189.081L206.946 192.784C206.699 192.809 206.456 192.823 206.213 192.823ZM239.745 175.081C239.543 175.081 239.341 175.092 239.139 175.114L204.254 178.815C202.748 178.975 201.447 179.717 200.59 180.906C199.732 182.094 199.421 183.586 199.714 185.106L199.972 186.446C200.576 189.585 203.598 191.861 206.704 191.54L241.589 187.837C243.095 187.677 244.396 186.935 245.253 185.747C246.111 184.56 246.422 183.068 246.129 181.548L245.871 180.207C245.579 178.687 244.717 177.32 243.445 176.358C242.345 175.524 241.051 175.081 239.745 175.081Z" fill="url(#paint14_linear_110_376)"/>
<path d="M206.257 186.38L203.604 186.661L203.298 187.978L202.564 188.057L203.854 182.777L204.56 182.702L207.797 187.501L207.048 187.58L206.257 186.38ZM205.896 185.83L204.345 183.475L203.743 186.059L205.896 185.83Z" fill="url(#paint15_linear_110_376)"/>
<path d="M211.129 182.483C211.56 182.756 211.827 183.165 211.933 183.713C212.038 184.26 211.936 184.709 211.625 185.06C211.313 185.411 210.835 185.621 210.189 185.69L208.955 185.821L209.249 187.347L208.536 187.423L207.565 182.384L209.512 182.177C210.159 182.109 210.698 182.211 211.129 182.483ZM211.025 184.665C211.226 184.446 211.291 184.154 211.221 183.789C211.151 183.424 210.978 183.157 210.703 182.988C210.427 182.818 210.063 182.758 209.612 182.806L208.4 182.934L208.835 185.195L210.048 185.067C210.499 185.019 210.825 184.885 211.025 184.665Z" fill="url(#paint16_linear_110_376)"/>
<path d="M216.207 181.945C216.638 182.218 216.905 182.628 217.011 183.175C217.116 183.723 217.014 184.172 216.703 184.522C216.393 184.874 215.913 185.083 215.267 185.152L214.034 185.282L214.327 186.809L213.614 186.884L212.644 181.845L214.59 181.638C215.238 181.57 215.775 181.673 216.207 181.945ZM216.103 184.127C216.304 183.907 216.369 183.615 216.299 183.25C216.229 182.886 216.056 182.618 215.781 182.449C215.505 182.28 215.142 182.219 214.69 182.267L213.478 182.396L213.913 184.657L215.126 184.528C215.577 184.48 215.903 184.346 216.103 184.127Z" fill="url(#paint17_linear_110_376)"/>
<path d="M222.027 185.991L220.653 184.558C220.522 184.582 220.418 184.597 220.342 184.606L219.109 184.736L219.404 186.269L218.691 186.345L217.721 181.305L219.667 181.098C220.314 181.03 220.853 181.132 221.283 181.405C221.714 181.677 221.982 182.087 222.087 182.634C222.162 183.023 222.131 183.363 221.993 183.657C221.855 183.951 221.623 184.178 221.295 184.341L222.804 185.907L222.027 185.991ZM221.179 183.591C221.379 183.37 221.444 183.076 221.374 182.712C221.304 182.347 221.131 182.079 220.856 181.91C220.58 181.741 220.217 181.68 219.765 181.728L218.553 181.857L218.99 184.125L220.202 183.997C220.654 183.948 220.98 183.813 221.179 183.591Z" fill="url(#paint18_linear_110_376)"/>
<path d="M224.712 185.424C224.265 185.244 223.888 184.97 223.582 184.6C223.276 184.231 223.075 183.804 222.982 183.319C222.889 182.834 222.92 182.383 223.074 181.965C223.229 181.547 223.487 181.206 223.848 180.939C224.209 180.674 224.642 180.514 225.145 180.46C225.644 180.406 226.117 180.471 226.564 180.651C227.011 180.832 227.386 181.105 227.69 181.472C227.993 181.839 228.192 182.268 228.286 182.757C228.38 183.247 228.351 183.698 228.199 184.114C228.045 184.53 227.788 184.871 227.428 185.136C227.067 185.403 226.636 185.561 226.137 185.615C225.634 185.668 225.159 185.605 224.712 185.424ZM226.954 184.618C227.214 184.418 227.4 184.162 227.511 183.85C227.623 183.537 227.644 183.198 227.574 182.833C227.504 182.469 227.356 182.148 227.13 181.871C226.905 181.594 226.63 181.386 226.305 181.25C225.98 181.113 225.636 181.064 225.269 181.102C224.904 181.141 224.588 181.26 224.323 181.46C224.059 181.659 223.87 181.915 223.758 182.228C223.646 182.541 223.626 182.88 223.695 183.245C223.765 183.61 223.914 183.93 224.139 184.208C224.365 184.485 224.643 184.692 224.972 184.829C225.301 184.965 225.648 185.014 226.015 184.975C226.38 184.936 226.694 184.816 226.954 184.618Z" fill="url(#paint19_linear_110_376)"/>
<path d="M233.07 179.678L231.851 184.95L231.145 185.025L227.979 180.219L228.748 180.137L231.341 184.087L232.355 179.755L233.07 179.678Z" fill="url(#paint20_linear_110_376)"/>
<path d="M238.176 183.638L238.296 184.264L234.674 184.649L233.704 179.61L237.227 179.236L237.347 179.862L234.537 180.159L234.835 181.708L237.337 181.442L237.455 182.055L234.953 182.32L235.266 183.947L238.176 183.638Z" fill="url(#paint21_linear_110_376)"/>
<path d="M238.482 179.104L240.586 178.88C241.113 178.824 241.602 178.88 242.052 179.049C242.501 179.217 242.876 179.479 243.175 179.837C243.473 180.195 243.671 180.621 243.766 181.115C243.861 181.609 243.832 182.06 243.68 182.465C243.528 182.87 243.267 183.2 242.9 183.454C242.531 183.709 242.084 183.864 241.556 183.92L239.453 184.144L238.482 179.104ZM241.392 183.299C241.796 183.256 242.135 183.139 242.412 182.948C242.688 182.757 242.882 182.51 242.994 182.207C243.106 181.904 243.125 181.564 243.053 181.19C242.981 180.816 242.834 180.494 242.613 180.227C242.391 179.958 242.112 179.762 241.775 179.637C241.438 179.511 241.067 179.47 240.664 179.512L239.317 179.656L240.046 183.443L241.392 183.299Z" fill="url(#paint22_linear_110_376)"/>
<path d="M153.436 28.2034H163.555L165.195 46.6706H155.076C151.663 46.6706 148.651 43.903 148.348 40.4877L147.806 34.3852C147.501 30.9709 150.022 28.2034 153.436 28.2034Z" fill="#263238"/>
<path d="M198.472 46.6711H157.578C153.754 46.6711 150.383 43.5703 150.048 39.7444L149.644 35.1297C149.31 31.3048 152.138 28.2029 155.962 28.2029H196.857C200.68 28.2029 204.051 31.3037 204.386 35.1297L204.789 39.7444C205.124 43.5703 202.295 46.6711 198.472 46.6711Z" fill="#263238"/>
<path opacity="0.5" d="M198.472 46.6711H157.578C153.754 46.6711 150.383 43.5703 150.048 39.7444L149.644 35.1297C149.31 31.3048 152.138 28.2029 155.962 28.2029H196.857C200.68 28.2029 204.051 31.3037 204.386 35.1297L204.789 39.7444C205.124 43.5703 202.295 46.6711 198.472 46.6711Z" fill="white"/>
<path d="M198.156 39.3966C198.243 40.4016 197.501 41.2155 196.496 41.2155C195.492 41.2155 194.607 40.4016 194.519 39.3966C194.432 38.3926 195.174 37.5776 196.179 37.5776C197.183 37.5776 198.068 38.3915 198.156 39.3966Z" fill="#263238"/>
<path d="M160.257 39.3966C160.344 40.4016 159.602 41.2155 158.597 41.2155C157.594 41.2155 156.708 40.4016 156.62 39.3966C156.533 38.3926 157.275 37.5776 158.28 37.5776C159.284 37.5776 160.169 38.3915 160.257 39.3966Z" fill="#263238"/>
<path d="M137.162 226.706L136.507 225.446C136.013 224.497 136.245 223.332 137.064 222.644L138.235 221.661C138.633 221.326 138.905 220.867 139.007 220.357L140.003 215.346C140.105 214.836 140.029 214.308 139.789 213.847L138.745 211.84C138.251 210.891 138.483 209.726 139.302 209.038L141.275 207.38C141.673 207.046 141.945 206.587 142.046 206.077L143.656 197.984L138.03 196.865L132.403 195.745L130.794 203.839C130.693 204.348 130.768 204.877 131.008 205.338L132.198 207.624C132.691 208.573 132.46 209.738 131.64 210.426L129.908 211.88C129.51 212.214 129.238 212.674 129.137 213.183L128.14 218.195C128.039 218.704 128.114 219.233 128.354 219.694L129.06 221.052C129.554 222.001 129.323 223.166 128.503 223.854L127.417 224.766C126.597 225.454 126.366 226.619 126.859 227.568L127.302 228.419C127.796 229.369 127.564 230.533 126.745 231.221C125.926 231.909 125.694 233.074 126.188 234.023L127.57 236.682L130.015 237.169L132.461 237.656L134.756 235.729C135.575 235.041 135.807 233.876 135.313 232.927C134.819 231.977 135.051 230.813 135.87 230.125L136.605 229.508C137.424 228.82 137.655 227.654 137.162 226.706Z" fill="#263238"/>
<path opacity="0.6" d="M137.162 226.706L136.507 225.446C136.013 224.497 136.245 223.332 137.064 222.644L138.235 221.661C138.633 221.326 138.905 220.867 139.007 220.357L140.003 215.346C140.105 214.836 140.029 214.308 139.789 213.847L138.745 211.84C138.251 210.891 138.483 209.726 139.302 209.038L141.275 207.38C141.673 207.046 141.945 206.587 142.046 206.077L143.656 197.984L138.03 196.865L132.403 195.745L130.794 203.839C130.693 204.348 130.768 204.877 131.008 205.338L132.198 207.624C132.691 208.573 132.46 209.738 131.64 210.426L129.908 211.88C129.51 212.214 129.238 212.674 129.137 213.183L128.14 218.195C128.039 218.704 128.114 219.233 128.354 219.694L129.06 221.052C129.554 222.001 129.323 223.166 128.503 223.854L127.417 224.766C126.597 225.454 126.366 226.619 126.859 227.568L127.302 228.419C127.796 229.369 127.564 230.533 126.745 231.221C125.926 231.909 125.694 233.074 126.188 234.023L127.57 236.682L130.015 237.169L132.461 237.656L134.756 235.729C135.575 235.041 135.807 233.876 135.313 232.927C134.819 231.977 135.051 230.813 135.87 230.125L136.605 229.508C137.424 228.82 137.655 227.654 137.162 226.706Z" fill="white"/>
<path opacity="0.2" d="M141.276 207.38C141.673 207.046 141.945 206.587 142.047 206.077L143.656 197.984L140.843 197.424L138.03 196.865L132.404 195.745L131.207 201.766L136.833 202.885L130.017 237.169L132.463 237.656L134.758 235.73C135.577 235.042 135.809 233.877 135.315 232.928C134.821 231.978 135.053 230.813 135.872 230.126L136.607 229.509C137.426 228.821 137.658 227.656 137.164 226.707L136.509 225.448C136.015 224.499 136.247 223.334 137.066 222.646L138.238 221.662C138.635 221.328 138.908 220.868 139.009 220.359L140.006 215.347C140.107 214.838 140.032 214.309 139.792 213.848L138.748 211.841C138.254 210.892 138.486 209.727 139.305 209.039L141.276 207.38Z" fill="#0C0C0C"/>
<path d="M155.267 186.937C153.778 185.17 147.191 181.934 143.65 181.229C140.109 180.524 132.785 180.993 130.733 182.055C126.175 184.414 123.342 192.782 127.848 196.567C129.671 198.098 136.656 199.824 139.803 200.579C142.95 201.335 150.044 202.122 152.382 201.449C158.159 199.786 158.575 190.862 155.267 186.937ZM147.589 187.658L137.551 185.66C136.812 185.513 136.722 184.606 137.43 184.429C139.603 183.884 141.804 183.617 143.123 183.88C144.442 184.143 146.374 185.232 148.171 186.566C148.758 187.001 148.328 187.805 147.589 187.658Z" fill="#263238"/>
<path opacity="0.6" d="M155.267 186.937C153.778 185.17 147.191 181.934 143.65 181.229C140.109 180.524 132.785 180.993 130.733 182.055C126.175 184.414 123.342 192.782 127.848 196.567C129.671 198.098 136.656 199.824 139.803 200.579C142.95 201.335 150.044 202.122 152.382 201.449C158.159 199.786 158.575 190.862 155.267 186.937ZM147.589 187.658L137.551 185.66C136.812 185.513 136.722 184.606 137.43 184.429C139.603 183.884 141.804 183.617 143.123 183.88C144.442 184.143 146.374 185.232 148.171 186.566C148.758 187.001 148.328 187.805 147.589 187.658Z" fill="#0C0C0C"/>
<path d="M152.816 186.45C151.327 184.683 144.74 181.446 141.199 180.741C137.658 180.037 130.334 180.505 128.282 181.567C123.725 183.926 120.891 192.294 125.397 196.079C127.22 197.611 134.205 199.336 137.352 200.091C140.498 200.847 147.593 201.635 149.931 200.962C155.708 199.298 156.124 190.375 152.816 186.45ZM145.138 187.171L135.099 185.173C134.36 185.026 134.27 184.119 134.979 183.941C137.151 183.397 139.353 183.13 140.671 183.393C141.99 183.655 143.922 184.745 145.72 186.079C146.307 186.514 145.876 187.317 145.138 187.171Z" fill="#263238"/>
<path d="M138.635 186.785C136.094 192.922 129.143 195.925 122.967 193.645C116.778 191.36 113.414 184.378 115.534 178.128C117.917 171.103 125.986 167.201 132.302 169.818L133.269 170.219C133.73 170.41 133.949 170.939 133.758 171.4C133.567 171.861 133.039 172.08 132.578 171.889L131.611 171.487C126.299 169.286 119.509 172.547 117.338 178.445C115.455 183.56 117.938 189.432 122.907 191.668C128.34 194.111 134.702 191.559 136.965 186.092C139.43 180.138 135.062 175.853 130.573 173.993L129.245 173.442C128.785 173.251 128.566 172.723 128.756 172.262C128.947 171.801 129.476 171.582 129.937 171.773L131.264 172.323C138.084 175.149 141.046 180.961 138.635 186.785Z" fill="#263238"/>
<g opacity="0.5">
<path d="M138.635 186.785C136.094 192.922 129.143 195.925 122.967 193.645C116.778 191.36 113.414 184.378 115.534 178.128C117.917 171.103 125.986 167.201 132.302 169.818L133.269 170.219C133.73 170.41 133.949 170.939 133.758 171.4C133.567 171.861 133.039 172.08 132.578 171.889L131.611 171.487C126.299 169.286 119.509 172.547 117.338 178.445C115.455 183.56 117.938 189.432 122.907 191.668C128.34 194.111 134.702 191.559 136.965 186.092C139.43 180.138 135.062 175.853 130.573 173.993L129.245 173.442C128.785 173.251 128.566 172.723 128.756 172.262C128.947 171.801 129.476 171.582 129.937 171.773L131.264 172.323C138.084 175.149 141.046 180.961 138.635 186.785Z" fill="white"/>
</g>
<path d="M130.121 199.313C129.65 195.732 124.665 189.233 121.329 187.85C117.993 186.468 109.874 187.537 107.01 189.736C100.648 194.62 92.3215 211.732 94.7357 219.383C95.712 222.478 102.08 225.888 104.962 227.38C107.844 228.872 114.922 230.369 117.846 228.959C125.07 225.478 131.168 207.266 130.121 199.313ZM124.084 194.574L114.629 190.656C113.933 190.368 114.074 189.333 114.822 189.251C117.117 189.001 119.37 189.068 120.612 189.583C121.854 190.098 123.495 191.644 124.94 193.444C125.411 194.031 124.78 194.863 124.084 194.574Z" fill="#263238"/>
<path opacity="0.6" d="M130.121 199.313C129.65 195.732 124.665 189.233 121.329 187.85C117.993 186.468 109.874 187.537 107.01 189.736C100.648 194.62 92.3215 211.732 94.7357 219.383C95.712 222.478 102.08 225.888 104.962 227.38C107.844 228.872 114.922 230.369 117.846 228.959C125.07 225.478 131.168 207.266 130.121 199.313ZM124.084 194.574L114.629 190.656C113.933 190.368 114.074 189.333 114.822 189.251C117.117 189.001 119.37 189.068 120.612 189.583C121.854 190.098 123.495 191.644 124.94 193.444C125.411 194.031 124.78 194.863 124.084 194.574Z" fill="#0C0C0C"/>
<path d="M127.812 198.356C127.341 194.775 122.356 188.276 119.02 186.893C115.685 185.511 107.566 186.58 104.702 188.779C98.3397 193.663 90.0129 210.776 92.4271 218.425C93.4041 221.521 99.7718 224.931 102.654 226.423C105.536 227.915 112.614 229.412 115.538 228.002C122.761 224.521 128.859 206.31 127.812 198.356ZM121.776 193.617L112.32 189.699C111.624 189.411 111.766 188.376 112.514 188.294C114.808 188.044 117.061 188.112 118.304 188.626C119.547 189.141 121.187 190.687 122.633 192.487C123.103 193.074 122.471 193.906 121.776 193.617Z" fill="#263238"/>
<path d="M121.209 208.036L102.583 200.318C101.255 202.493 100.018 204.995 99.0679 207.446L118.694 215.579C119.744 213.177 120.625 210.527 121.209 208.036Z" fill="url(#paint23_linear_110_376)"/>
<path d="M98.3365 209.498C97.3487 212.553 96.9195 215.345 97.4638 217.069C97.5265 217.212 98.3487 218.798 104.745 222.109C107.016 223.292 111.908 223.954 113.037 223.441C114.644 222.665 116.312 220.408 117.766 217.549L98.3365 209.498Z" fill="url(#paint24_linear_110_376)"/>
<path d="M121.648 205.865C121.96 204.007 122.063 202.325 121.892 201.025C121.636 199.083 118.039 194.393 116.231 193.644C114.423 192.895 108.565 193.667 107.013 194.858C105.986 195.647 104.878 196.914 103.79 198.465L121.648 205.865Z" fill="url(#paint25_linear_110_376)"/>
<path d="M112.458 208.312L108.625 206.723L107.468 209.518L111.301 211.107L112.458 208.312Z" fill="white"/>
<path d="M111.667 208.751L111.147 208.536L111.717 207.158C111.918 206.672 111.687 206.114 111.202 205.913C110.717 205.712 110.159 205.943 109.958 206.429L109.388 207.807L108.868 207.591L109.438 206.214C109.758 205.443 110.645 205.074 111.417 205.394C112.189 205.714 112.557 206.603 112.237 207.374L111.667 208.751Z" fill="white"/>
<path d="M108.627 217.554L104.794 215.966L103.637 218.761L107.47 220.349L108.627 217.554Z" fill="white"/>
<path d="M105.562 217.046L105.042 216.831L105.613 215.453C105.932 214.682 106.82 214.314 107.592 214.633C108.364 214.953 108.732 215.842 108.412 216.614L107.892 216.398C108.093 215.913 107.862 215.354 107.376 215.154C106.891 214.953 106.333 215.184 106.132 215.669L105.562 217.046Z" fill="white"/>
<path d="M117.957 198.858L116.365 198.198L115.033 196.036L113.039 200.853L115.509 200.266L117.101 200.926L117.957 198.858Z" fill="white"/>
<path d="M110.983 199.926C110.227 198.098 111.097 195.994 112.925 195.238L113.211 195.931C111.766 196.529 111.077 198.192 111.676 199.639L110.983 199.926Z" fill="white"/>
<path d="M112.619 199.248C112.433 198.799 112.433 198.306 112.619 197.858C112.805 197.409 113.154 197.06 113.602 196.875L113.888 197.567C113.625 197.676 113.42 197.881 113.311 198.144C113.203 198.407 113.203 198.697 113.311 198.961L112.619 199.248Z" fill="white"/>
<defs>
<linearGradient id="paint0_linear_110_376" x1="272.187" y1="132.232" x2="285.179" y2="136.623" gradientUnits="userSpaceOnUse">
<stop stop-color="#181BF2"/>
<stop offset="1" stop-color="#0ABEFF"/>
</linearGradient>
<linearGradient id="paint1_linear_110_376" x1="279.268" y1="245.237" x2="287.544" y2="252.964" gradientUnits="userSpaceOnUse">
<stop stop-color="#181BF2"/>
<stop offset="1" stop-color="#0ABEFF"/>
</linearGradient>
<linearGradient id="paint2_linear_110_376" x1="251.845" y1="239.355" x2="261.699" y2="247.354" gradientUnits="userSpaceOnUse">
<stop stop-color="#181BF2"/>
<stop offset="1" stop-color="#0ABEFF"/>
</linearGradient>
<linearGradient id="paint3_linear_110_376" x1="274.712" y1="135.887" x2="306.133" y2="143.374" gradientUnits="userSpaceOnUse">
<stop stop-color="#181BF2"/>
<stop offset="1" stop-color="#0ABEFF"/>
</linearGradient>
<linearGradient id="paint4_linear_110_376" x1="280.18" y1="139.886" x2="289.36" y2="140.709" gradientUnits="userSpaceOnUse">
<stop stop-color="#181BF2"/>
<stop offset="1" stop-color="#0ABEFF"/>
</linearGradient>
<linearGradient id="paint5_linear_110_376" x1="286.029" y1="138.811" x2="288.623" y2="139.64" gradientUnits="userSpaceOnUse">
<stop stop-color="#181BF2"/>
<stop offset="1" stop-color="#0ABEFF"/>
</linearGradient>
<linearGradient id="paint6_linear_110_376" x1="283.715" y1="244.961" x2="285.407" y2="246.066" gradientUnits="userSpaceOnUse">
<stop stop-color="#181BF2"/>
<stop offset="1" stop-color="#0ABEFF"/>
</linearGradient>
<linearGradient id="paint7_linear_110_376" x1="284.417" y1="244.137" x2="285.834" y2="244.457" gradientUnits="userSpaceOnUse">
<stop stop-color="#181BF2"/>
<stop offset="1" stop-color="#0ABEFF"/>
</linearGradient>
<linearGradient id="paint8_linear_110_376" x1="257.776" y1="238.656" x2="259.816" y2="239.843" gradientUnits="userSpaceOnUse">
<stop stop-color="#181BF2"/>
<stop offset="1" stop-color="#0ABEFF"/>
</linearGradient>
<linearGradient id="paint9_linear_110_376" x1="258.793" y1="238.035" x2="260.151" y2="238.298" gradientUnits="userSpaceOnUse">
<stop stop-color="#181BF2"/>
<stop offset="1" stop-color="#0ABEFF"/>
</linearGradient>
<linearGradient id="paint10_linear_110_376" x1="294.756" y1="138.002" x2="306.487" y2="143.693" gradientUnits="userSpaceOnUse">
<stop stop-color="#181BF2"/>
<stop offset="1" stop-color="#0ABEFF"/>
</linearGradient>
<linearGradient id="paint11_linear_110_376" x1="96.9097" y1="33.2671" x2="150.003" y2="36.4188" gradientUnits="userSpaceOnUse">
<stop stop-color="#181BF2"/>
<stop offset="1" stop-color="#0ABEFF"/>
</linearGradient>
<linearGradient id="paint12_linear_110_376" x1="99.6572" y1="33.2671" x2="311.988" y2="86.6754" gradientUnits="userSpaceOnUse">
<stop stop-color="#181BF2"/>
<stop offset="1" stop-color="#0ABEFF"/>
</linearGradient>
<linearGradient id="paint13_linear_110_376" x1="113.856" y1="40.3755" x2="299.964" y2="89.4438" gradientUnits="userSpaceOnUse">
<stop stop-color="#181BF2"/>
<stop offset="1" stop-color="#0ABEFF"/>
</linearGradient>
<linearGradient id="paint14_linear_110_376" x1="198.353" y1="173.831" x2="237.083" y2="205.539" gradientUnits="userSpaceOnUse">
<stop stop-color="#181BF2"/>
<stop offset="1" stop-color="#0ABEFF"/>
</linearGradient>
<linearGradient id="paint15_linear_110_376" x1="202.564" y1="182.702" x2="208.852" y2="184.647" gradientUnits="userSpaceOnUse">
<stop stop-color="#181BF2"/>
<stop offset="1" stop-color="#0ABEFF"/>
</linearGradient>
<linearGradient id="paint16_linear_110_376" x1="207.565" y1="182.156" x2="212.987" y2="183.592" gradientUnits="userSpaceOnUse">
<stop stop-color="#181BF2"/>
<stop offset="1" stop-color="#0ABEFF"/>
</linearGradient>
<linearGradient id="paint17_linear_110_376" x1="212.644" y1="181.618" x2="218.065" y2="183.054" gradientUnits="userSpaceOnUse">
<stop stop-color="#181BF2"/>
<stop offset="1" stop-color="#0ABEFF"/>
</linearGradient>
<linearGradient id="paint18_linear_110_376" x1="217.721" y1="181.078" x2="223.842" y2="182.947" gradientUnits="userSpaceOnUse">
<stop stop-color="#181BF2"/>
<stop offset="1" stop-color="#0ABEFF"/>
</linearGradient>
<linearGradient id="paint19_linear_110_376" x1="222.93" y1="180.442" x2="229.353" y2="182.56" gradientUnits="userSpaceOnUse">
<stop stop-color="#181BF2"/>
<stop offset="1" stop-color="#0ABEFF"/>
</linearGradient>
<linearGradient id="paint20_linear_110_376" x1="227.979" y1="179.678" x2="234.123" y2="181.529" gradientUnits="userSpaceOnUse">
<stop stop-color="#181BF2"/>
<stop offset="1" stop-color="#0ABEFF"/>
</linearGradient>
<linearGradient id="paint21_linear_110_376" x1="233.704" y1="179.236" x2="239.343" y2="180.749" gradientUnits="userSpaceOnUse">
<stop stop-color="#181BF2"/>
<stop offset="1" stop-color="#0ABEFF"/>
</linearGradient>
<linearGradient id="paint22_linear_110_376" x1="238.482" y1="178.859" x2="244.858" y2="180.897" gradientUnits="userSpaceOnUse">
<stop stop-color="#181BF2"/>
<stop offset="1" stop-color="#0ABEFF"/>
</linearGradient>
<linearGradient id="paint23_linear_110_376" x1="99.0679" y1="200.318" x2="123.142" y2="211.368" gradientUnits="userSpaceOnUse">
<stop stop-color="#181BF2"/>
<stop offset="1" stop-color="#0ABEFF"/>
</linearGradient>
<linearGradient id="paint24_linear_110_376" x1="97.2256" y1="209.498" x2="119.538" y2="219.769" gradientUnits="userSpaceOnUse">
<stop stop-color="#181BF2"/>
<stop offset="1" stop-color="#0ABEFF"/>
</linearGradient>
<linearGradient id="paint25_linear_110_376" x1="103.79" y1="193.348" x2="123.552" y2="202.433" gradientUnits="userSpaceOnUse">
<stop stop-color="#181BF2"/>
<stop offset="1" stop-color="#0ABEFF"/>
</linearGradient>
</defs>
</svg>
