<svg width="360" height="268" viewBox="0 0 360 268" fill="none" xmlns="http://www.w3.org/2000/svg">
<path d="M323.929 247.455H300.081V247.635H323.929V247.455Z" fill="#EBEBEB"/>
<path d="M238.478 249.41H232.219V249.59H238.478V249.41Z" fill="#EBEBEB"/>
<path d="M299.36 240.767H285.542V240.947H299.36V240.767Z" fill="#EBEBEB"/>
<path d="M68.8695 241.977H37.7705V242.157H68.8695V241.977Z" fill="#EBEBEB"/>
<path d="M79.84 241.977H75.2803V242.157H79.84V241.977Z" fill="#EBEBEB"/>
<path d="M162.106 245.018H94.6592V245.198H162.106V245.018Z" fill="#EBEBEB"/>
<path d="M171.649 203.737H32.6181C30.3522 203.737 28.5083 201.892 28.5083 199.626V4.11151C28.5083 1.8447 30.3522 0 32.6181 0H171.649C173.914 0 175.758 1.8447 175.758 4.11151V199.626C175.758 201.892 173.914 203.737 171.649 203.737ZM32.6181 0.180796C30.4509 0.180796 28.6883 1.9441 28.6883 4.11223V199.626C28.6883 201.794 30.4509 203.558 32.6181 203.558H171.649C173.816 203.558 175.578 201.794 175.578 199.626V4.11151C175.578 1.94411 173.816 0.180076 171.649 0.180076L32.6181 0.180796Z" fill="#EBEBEB"/>
<path d="M327.383 203.737H188.351C186.086 203.737 184.242 201.892 184.242 199.626V4.11151C184.242 1.8447 186.086 0 188.351 0H327.383C329.649 0 331.492 1.8447 331.492 4.11151V199.626C331.492 201.892 329.648 203.737 327.383 203.737ZM188.351 0.180796C186.185 0.180796 184.422 1.9441 184.422 4.11223V199.626C184.422 201.794 186.185 203.558 188.351 203.558H327.383C329.55 203.558 331.312 201.794 331.312 199.626V4.11151C331.312 1.94411 329.55 0.180076 327.383 0.180076L188.351 0.180796Z" fill="#EBEBEB"/>
<path d="M360 235.861H0V236.041H360V235.861Z" fill="#EBEBEB"/>
<path d="M290.487 118.234C300.33 110.563 313.014 109.345 322.856 101.674C318.463 97.2791 314.069 92.8838 309.675 88.4885C299.833 96.1591 287.149 97.3771 277.307 105.048C281.701 109.442 286.094 113.838 290.487 118.234Z" fill="#F5F5F5"/>
<path d="M283.118 103.205C290.625 98.9735 299.349 97.6013 306.793 93.2615C308.4 94.038 310.336 94.2512 311.955 93.7001C314.166 95.9122 315.271 97.0179 317.483 99.2299C316.695 100.613 316.481 102.123 317.044 103.517C309.6 107.857 300.876 109.228 293.369 113.46C291.762 112.685 289.826 112.471 288.207 113.022C285.996 110.81 284.89 109.704 282.679 107.492C283.467 106.109 283.681 104.599 283.118 103.205Z" fill="#E6E6E6"/>
<path d="M295.603 104.955C297.706 107.059 301.399 108.034 303.889 107.17C306.38 106.305 306.663 103.869 304.56 101.765C302.457 99.6612 298.764 98.6866 296.274 99.5503C293.783 100.415 293.5 102.851 295.603 104.955Z" fill="#FAFAFA"/>
<path d="M280.899 35.2626C287.618 40.9084 289.17 50.1297 284.329 55.8677L282.641 57.8701C277.821 63.5994 268.471 63.6621 261.759 58.0128C255.048 52.3634 253.496 43.1428 258.337 37.4041L260.022 35.3952C264.842 29.6666 274.181 29.6169 280.899 35.2626Z" fill="#E0E0E0"/>
<path d="M284.327 55.8687C289.147 50.1384 287.613 40.9114 280.901 35.2596C274.188 29.6079 264.838 29.6716 260.018 35.4019C255.197 41.1322 256.731 50.3592 263.444 56.011C270.157 61.6627 279.506 61.599 284.327 55.8687Z" fill="#F5F5F5"/>
<path d="M282.217 54.0931C286.201 49.3572 284.933 41.7312 279.385 37.06C273.837 32.3888 266.109 32.4413 262.125 37.1772C258.141 41.9132 259.409 49.5392 264.957 54.2104C270.505 58.8816 278.233 58.8291 282.217 54.0931Z" fill="#E0E0E0"/>
<path d="M277.962 49.8983L279.403 51.4967L278.402 52.4029L276.976 50.8103C275.836 51.7596 274.406 52.2883 272.922 52.3085L272.166 50.4026C273.408 50.4098 274.62 50.0158 275.622 49.2789L273.048 46.4214C271.347 47.2512 269.431 48.0356 267.645 46.0519C266.334 44.5933 266.098 42.5073 267.808 40.5805L266.359 38.9627L267.357 38.0637L268.783 39.6563C269.716 38.9007 270.847 38.4304 272.041 38.3014L272.825 40.2189C271.868 40.3406 270.953 40.6864 270.154 41.2273L272.753 44.1201C274.457 43.2838 276.381 42.4612 278.166 44.4456C279.461 45.8625 279.673 47.9478 277.962 49.8983ZM271.465 44.6761L269.181 42.1255C268.529 42.7803 268.506 43.8319 269.128 44.5148C269.732 45.22 270.54 45.0658 271.465 44.6761ZM276.699 45.9431C276.075 45.2466 275.254 45.3719 274.299 45.7976L276.576 48.3058C277.311 47.383 277.259 46.559 276.702 45.9367L276.699 45.9431Z" fill="#F5F5F5"/>
<path d="M314.826 153.608C319.386 162.74 316.78 173.297 308.964 177.181L306.236 178.537C298.446 182.421 288.44 178.163 283.889 169.031C279.338 159.899 281.944 149.341 289.761 145.458L292.488 144.093C300.278 140.209 310.266 144.476 314.826 153.608Z" fill="#E0E0E0"/>
<path d="M308.95 177.194C316.742 173.309 319.37 162.755 314.819 153.619C310.269 144.484 300.263 140.227 292.471 144.112C284.679 147.996 282.052 158.551 286.602 167.687C291.153 176.822 301.158 181.079 308.95 177.194Z" fill="#F5F5F5"/>
<path d="M307.52 174.329C313.96 171.118 316.131 162.395 312.37 154.844C308.609 147.294 300.34 143.775 293.9 146.986C287.461 150.196 285.289 158.919 289.05 166.47C292.811 174.021 301.08 177.539 307.52 174.329Z" fill="#E0E0E0"/>
<path d="M304.928 167.866L305.727 170.237L304.24 170.74L303.454 168.381C301.8 168.868 300.028 168.77 298.437 168.105L298.51 165.721C299.833 166.303 301.308 166.443 302.717 166.12L301.292 161.881C299.093 161.979 296.686 161.93 295.697 158.987C294.972 156.825 295.685 154.49 298.399 153.224L297.601 150.828L299.081 150.33L299.867 152.689C301.212 152.314 302.636 152.336 303.97 152.75L303.921 155.159C302.843 154.846 301.707 154.791 300.604 154.999L302.042 159.288C304.246 159.183 306.678 159.195 307.667 162.139C308.392 164.253 307.655 166.576 304.928 167.866ZM300.408 159.289L299.149 155.51C298.151 155.908 297.64 157.019 297.988 158.036C298.308 159.068 299.241 159.277 300.408 159.289ZM305.407 163.061C305.063 162.029 304.13 161.783 302.914 161.796L304.185 165.525C305.395 164.88 305.72 163.977 305.413 163.055L305.407 163.061Z" fill="#F5F5F5"/>
<path d="M109.492 45.8433L112.587 47.3912C121.458 51.7995 124.416 63.7803 119.251 74.1448C114.085 84.5093 102.73 89.3411 93.8888 84.9328L90.7935 83.3943C81.9224 78.986 78.9653 67.0052 84.14 56.6407C89.3139 46.2776 100.65 41.4357 109.492 45.8433Z" fill="#E0E0E0"/>
<path d="M116.152 72.6048C121.316 62.2371 118.334 50.2586 109.49 45.8499C100.647 41.4413 89.2918 46.272 84.1275 56.6396C78.9633 67.0072 81.9457 78.9858 90.7889 83.3944C99.6321 87.8031 110.987 82.9724 116.152 72.6048Z" fill="#F5F5F5"/>
<path d="M113.373 71.2216C117.642 62.6524 115.177 52.7519 107.869 49.1083C100.56 45.4647 91.1749 49.4577 86.9064 58.027C82.638 66.5962 85.1025 76.4967 92.4111 80.1403C99.7197 83.7839 109.105 79.7909 113.373 71.2216Z" fill="#E0E0E0"/>
<path d="M97.012 73.2079L95.7506 75.7521L94.1536 74.9633L95.4151 72.4387C93.6971 71.5001 92.3536 69.9997 91.6099 68.1881L93.5812 66.3341C94.1752 67.864 95.2473 69.1605 96.6369 70.0321L98.8941 65.4863C97.0509 63.8 95.158 61.8278 96.7255 58.6722C97.8789 56.3549 100.323 55.0534 103.517 56.2166L104.799 53.6531L106.386 54.4418L105.124 56.9665C106.504 57.7459 107.63 58.9063 108.367 60.3094L106.396 62.2024C105.782 61.0866 104.914 60.1301 103.862 59.4119L101.575 64.0075C103.429 65.6937 105.371 67.6558 103.803 70.8115C102.689 73.0898 100.235 74.3619 97.012 73.2079ZM100.264 62.6958L102.285 58.6527C101.166 58.1708 99.8647 58.652 99.3283 59.7476C98.7566 60.8324 99.3376 61.7493 100.264 62.6958ZM101.25 69.7368C101.802 68.6326 101.25 67.6854 100.264 66.7194L98.2929 70.733C99.7811 71.1868 100.767 70.7229 101.26 69.7368H101.25Z" fill="#F5F5F5"/>
<path d="M79.096 150.371L81.6426 149.522C88.9254 147.072 97.1169 152.021 99.9659 160.54C102.815 169.059 99.2358 177.941 91.9696 180.375L89.4287 181.229C82.1459 183.68 73.9545 178.73 71.1105 170.206C68.2665 161.681 71.8298 152.805 79.096 150.371Z" fill="#E0E0E0"/>
<path d="M89.4394 181.236C96.7077 178.802 100.288 169.92 97.4363 161.399C94.5845 152.878 86.3805 147.943 79.1122 150.378C71.8438 152.813 68.2635 161.694 71.1153 170.215C73.9671 178.736 82.1711 183.671 89.4394 181.236Z" fill="#F5F5F5"/>
<path d="M88.5449 178.559C94.5519 176.547 97.5107 169.206 95.1535 162.163C92.7964 155.12 86.0159 151.041 80.0089 153.053C74.002 155.065 71.0432 162.406 73.4003 169.449C75.7574 176.493 82.5379 180.571 88.5449 178.559Z" fill="#E0E0E0"/>
<path d="M87.2562 172.229L87.959 174.317L86.6507 174.761L85.9588 172.684C84.5022 173.111 82.9427 173.026 81.5416 172.44L81.6064 170.341C82.7706 170.854 84.0695 170.977 85.3101 170.693L84.0558 166.961C82.1205 167.047 80.0008 167.004 79.1303 164.413C78.4924 162.509 79.1195 160.454 81.5092 159.339L80.8065 157.229L82.1097 156.792L82.8016 158.869C83.986 158.539 85.2395 158.558 86.4131 158.923L86.3699 161.043C85.421 160.768 84.4209 160.72 83.4503 160.903L84.7153 164.678C86.6565 164.586 88.7978 164.597 89.6682 167.188C90.3054 169.049 89.6567 171.093 87.2562 172.229ZM83.2768 164.678L82.1687 161.352C81.2903 161.702 80.841 162.68 81.147 163.575C81.4278 164.484 82.2494 164.667 83.2768 164.678ZM87.6782 167.999C87.375 167.09 86.5535 166.874 85.4829 166.885L86.6018 170.168C87.6666 169.601 87.9532 168.805 87.6832 167.994L87.6782 167.999Z" fill="#F5F5F5"/>
<path d="M58.2383 125.43C76.3916 127.686 90.8053 139.579 108.959 141.835C108.959 132.721 108.959 123.607 108.959 114.493C90.806 112.237 76.3924 100.343 58.2383 98.0869C58.239 107.202 58.239 116.316 58.2383 125.43Z" fill="#F5F5F5"/>
<path d="M66.1738 102.204C78.3432 105.605 88.8084 113.23 101.025 116.452C101.887 118.924 103.672 121.154 105.923 122.262C105.923 126.849 105.923 129.141 105.923 133.728C103.673 134.345 101.887 135.689 101.025 137.719C88.8092 134.497 78.3432 126.871 66.1738 123.47C65.312 120.999 63.5264 118.769 61.2764 117.661C61.2764 113.074 61.2764 110.782 61.2764 106.195C63.5256 105.578 65.3112 104.234 66.1738 102.204Z" fill="#E6E6E6"/>
<path d="M77.3018 116.97C77.3018 121.332 80.1206 126.174 83.5982 127.861C87.0758 129.548 89.8938 127.316 89.8938 122.953C89.8938 118.59 87.075 113.749 83.5982 112.062C80.1206 110.375 77.3018 112.607 77.3018 116.97Z" fill="#FAFAFA"/>
<path d="M126.853 24.223C134.52 34.0696 135.737 46.7592 143.405 56.6051C147.798 52.2098 152.192 47.8145 156.586 43.4192C148.918 33.5726 147.701 20.883 140.034 11.0364C135.64 15.4324 131.247 19.8277 126.853 24.223Z" fill="#F5F5F5"/>
<path d="M141.874 16.8505C146.104 24.3619 147.475 33.0884 151.813 40.5356C151.037 42.1433 150.824 44.0803 151.375 45.7002C149.164 47.9123 148.058 49.0179 145.847 51.23C144.465 50.442 142.956 50.2281 141.562 50.7913C137.224 43.3441 135.853 34.6169 131.623 27.1062C132.399 25.4985 132.612 23.5616 132.062 21.9417C134.273 19.7296 135.378 18.6239 137.589 16.4119C138.971 17.2006 140.48 17.4138 141.874 16.8505Z" fill="#E6E6E6"/>
<path d="M140.124 29.3411C138.021 31.4451 137.047 35.1395 137.911 37.6311C138.775 40.1226 141.21 40.4057 143.313 38.3024C145.415 36.1991 146.39 32.5039 145.527 30.0124C144.663 27.5209 142.228 27.2371 140.124 29.3411Z" fill="#FAFAFA"/>
<path d="M180 268C257.099 268 319.601 264.348 319.601 259.844C319.601 255.34 257.099 251.688 180 251.688C102.901 251.688 40.4004 255.34 40.4004 259.844C40.4004 264.348 102.901 268 180 268Z" fill="#F5F5F5"/>
<path d="M277.903 152.167C276.444 150.947 275.001 149.689 273.583 148.418L269.326 144.599C268.627 144.025 268.005 143.003 267.891 142.025C267.755 141.05 267.946 140.254 268.169 139.607C268.643 138.313 269.327 137.429 270.008 136.592C271.409 134.958 272.939 133.705 274.644 132.556L276.267 134.454C275.107 135.847 273.943 137.354 273.076 138.812C272.646 139.53 272.299 140.295 272.199 140.837C272.144 141.102 272.183 141.281 272.215 141.254C272.258 141.225 272.173 141.069 272.22 141.094L273.375 141.931L274.539 142.816C275.309 143.406 276.067 144.005 276.814 144.614C278.316 145.826 279.778 147.069 281.212 148.362L277.903 152.167Z" fill="#803E3C"/>
<path d="M280.669 153.51C278.109 153.886 272.187 147.881 272.187 147.881L276.247 143.232C276.247 143.232 279.432 145.212 281.726 147.615C284.081 150.084 283.479 153.097 280.669 153.51Z" fill="url(#paint0_linear_110_376)"/>
<path opacity="0.7" d="M280.669 153.51C278.109 153.886 272.187 147.881 272.187 147.881L276.247 143.232C276.247 143.232 279.432 145.212 281.726 147.615C284.081 150.084 283.479 153.097 280.669 153.51Z" fill="white"/>
<path d="M274.1 133.634L274.776 130.362L277.725 132.604C277.725 132.604 276.945 135.487 275.478 135.022L274.1 133.634Z" fill="#7F3E3B"/>
<path d="M277.033 127.944L278.914 130.732L277.724 132.604L274.775 130.362L277.033 127.944Z" fill="#7F3E3B"/>
<path opacity="0.2" d="M279.557 150.265C278.358 151.282 275.678 150.359 274.094 149.67C275.962 151.326 278.754 153.513 280.423 153.508C280.619 151.708 280.702 149.293 279.557 150.265Z" fill="#0C0C0C"/>
<path d="M263.636 252.255L260.333 251.055L262.152 243.092L265.454 244.292L263.636 252.255Z" fill="#7F3E3B"/>
<path d="M289.688 256.643H286.181L285.187 248.521H288.693L289.688 256.643Z" fill="#7F3E3B"/>
<path d="M285.722 256.237H289.997C290.14 256.237 290.266 256.337 290.298 256.476L291.022 259.595C291.097 259.918 290.846 260.224 290.515 260.218C289.14 260.195 288.135 260.114 286.403 260.114C285.337 260.114 282.125 260.225 280.653 260.225C279.214 260.225 278.975 258.769 279.576 258.637C282.272 258.046 284.299 257.231 285.156 256.453C285.31 256.313 285.512 256.237 285.722 256.237Z" fill="url(#paint1_linear_110_376)"/>
<path d="M260.212 250.383L263.964 251.188C264.104 251.218 264.206 251.341 264.209 251.485L264.263 254.678C264.268 255.009 263.967 255.257 263.643 255.181C262.295 254.868 260.355 254.369 258.654 254.004C256.665 253.577 255.432 253.175 253.099 252.675C251.689 252.372 251.589 250.865 252.206 250.862C255.014 250.852 256.714 251.403 259.329 250.471C259.614 250.371 259.915 250.319 260.212 250.383Z" fill="url(#paint2_linear_110_376)"/>
<path opacity="0.2" d="M262.153 243.094L261.214 247.198L264.518 248.399L265.457 244.295L262.153 243.094Z" fill="#0C0C0C"/>
<path opacity="0.2" d="M288.694 248.523H285.187L285.701 252.71H289.208L288.694 248.523Z" fill="#0C0C0C"/>
<path d="M299.936 149.954C298.399 153.661 297.241 158.211 296.343 161.839C295.689 164.494 295.18 167.044 294.776 169.363C293.826 174.798 293.442 178.988 293.108 180.38C290.413 179.835 280.254 177.778 274.715 176.655C274.581 156.515 280.637 146.941 280.637 146.941C280.637 146.941 282.74 146.8 285.144 146.974C285.461 146.995 285.782 147.026 286.107 147.062C288.214 147.292 291.601 148.057 293.928 148.645C294.417 148.769 294.91 148.908 295.389 149.05C297.823 149.781 299.936 149.954 299.936 149.954Z" fill="url(#paint3_linear_110_376)"/>
<path opacity="0.7" d="M299.936 149.954C298.399 153.661 297.241 158.211 296.343 161.839C295.689 164.494 295.18 167.044 294.776 169.363C293.826 174.798 293.442 178.988 293.108 180.38C290.413 179.835 280.254 177.778 274.715 176.655C274.581 156.515 280.637 146.941 280.637 146.941C280.637 146.941 282.74 146.8 285.144 146.974C285.461 146.995 285.782 147.026 286.107 147.062C288.214 147.292 291.601 148.057 293.928 148.645C294.417 148.769 294.91 148.908 295.389 149.05C297.823 149.781 299.936 149.954 299.936 149.954Z" fill="white"/>
<path d="M286.354 150.886C285.632 152.276 281.341 169.452 280.18 173.168C280.316 173.997 280.495 174.833 280.714 175.677C281.304 174.963 281.926 174.255 282.58 173.552C283.37 169.926 286.409 152.806 287.21 151.018L286.354 150.886Z" fill="url(#paint4_linear_110_376)"/>
<path d="M286.328 151.96L286.029 150.104L287.38 149.811L288.201 150.569L286.328 151.96Z" fill="url(#paint5_linear_110_376)"/>
<path d="M294.846 139.676C293.869 142.094 292.49 146.608 293.927 148.645C292.381 149.713 290.252 150.458 287.437 149.824C285.282 149.339 285.464 147.803 286.107 147.061C289.042 146.959 289.37 144.862 289.257 142.806L294.846 139.676Z" fill="#7F3E3B"/>
<path d="M287.38 149.811C287.38 149.811 287.987 151.026 288.737 152.257C290.315 151.802 294.065 150.485 294.329 148.587C294.259 148.002 293.607 147.52 293.607 147.52C293.607 147.52 291.085 149.072 287.38 149.811Z" fill="white"/>
<path d="M287.381 149.811C287.381 149.811 286.075 150.483 285.1 151.481C284.228 150.55 285.543 147.194 286.011 146.891C286.949 146.543 287.497 146.721 287.497 146.721C287.497 146.721 285.836 149.062 287.381 149.811Z" fill="white"/>
<path opacity="0.2" d="M292.566 140.953L289.259 142.803C289.287 143.29 289.288 143.778 289.233 144.241C290.335 144.303 292.033 143.424 292.363 142.324C292.528 141.775 292.608 141.232 292.566 140.953Z" fill="#0C0C0C"/>
<path d="M288.464 130.92C287.509 131.963 286.548 134.576 288.638 134.556C290.728 134.536 290.106 129.125 288.464 130.92Z" fill="#263238"/>
<path d="M296.508 136.686C295.23 139.919 294.645 141.878 292.43 143.011C289.097 144.716 285.523 141.833 285.811 138.273C286.07 135.068 288.117 130.32 291.77 130.093C295.368 129.871 297.786 133.453 296.508 136.686Z" fill="#7F3E3B"/>
<path d="M289.348 132.194C287.178 131.111 286.497 128.083 290.091 127.303C290.171 127.286 290.253 127.271 290.335 127.258C291.146 127.13 291.814 127.726 291.94 128.538C291.951 128.606 291.969 128.677 291.996 128.749C292.365 128.369 293.202 127.831 294.233 127.758C295.071 127.699 295.689 128.451 295.634 129.29C295.597 129.854 295.854 130.402 296.565 130.421C298.45 130.473 300.64 131.843 299.548 133.736C301.14 135.729 298.659 138.496 295.141 138.778C294.185 136.847 295.731 133.989 295.731 133.989C293.962 133.955 291.314 133.176 289.348 132.194Z" fill="#263238"/>
<path d="M299.02 133.807C299.02 133.807 300.626 133.582 300.08 132.072C301.282 133.077 300.404 134.004 299.02 133.807Z" fill="#263238"/>
<path d="M298.69 134.055C298.69 134.055 300.247 133.601 300.369 135.202C301.052 133.793 299.871 133.308 298.69 134.055Z" fill="#263238"/>
<path d="M296.883 139.851C296.342 140.615 295.499 141.053 294.74 141.164C293.596 141.332 293.161 140.268 293.594 139.259C293.982 138.35 295.046 137.169 296.139 137.463C297.215 137.753 297.502 138.979 296.883 139.851Z" fill="#7F3E3B"/>
<path d="M260.245 245.987L265.838 248.016C265.838 248.016 270.208 228.77 272.53 218.1C273.237 214.854 274.657 210.391 276.339 205.636C278.462 199.645 280.996 193.199 283.04 188.159C285.197 182.851 286.804 179.105 286.804 179.105L274.711 176.655C274.711 176.655 265.485 203.218 263.412 213.717C261.255 224.633 260.245 245.987 260.245 245.987Z" fill="#263238"/>
<path opacity="0.6" d="M276.341 205.635C278.463 199.644 280.997 193.198 283.042 188.158L282.106 185.262C278.646 188.466 276.487 199.504 276.341 205.635Z" fill="#0C0C0C"/>
<path d="M281.236 177.977C281.236 177.977 279.077 208.264 278.946 218.556C278.803 229.826 284.071 251.899 284.071 251.899H290.493C290.493 251.899 287.928 231.982 288.781 220.817C289.736 208.331 293.105 180.382 293.105 180.382L281.236 177.977Z" fill="#263238"/>
<path d="M283.304 252.038H290.866L290.844 249.778L282.949 249.322L283.304 252.038Z" fill="#263238"/>
<path d="M259.498 245.915L266.196 248.241L266.925 246.078L259.6 243.409L259.498 245.915Z" fill="#263238"/>
<path d="M291.211 135.924C291.123 136.192 290.91 136.362 290.735 136.303C290.559 136.244 290.489 135.978 290.576 135.71C290.664 135.441 290.877 135.271 291.052 135.33C291.227 135.389 291.299 135.655 291.211 135.924Z" fill="#263238"/>
<path d="M288.18 134.902C288.092 135.17 287.879 135.34 287.704 135.281C287.529 135.222 287.458 134.956 287.545 134.688C287.633 134.419 287.846 134.249 288.021 134.308C288.196 134.367 288.267 134.632 288.18 134.902Z" fill="#263238"/>
<path d="M289.099 135.36C289.099 135.36 287.987 136.642 287.074 137.138C287.405 137.716 288.278 137.784 288.278 137.784L289.099 135.36Z" fill="#630F0F"/>
<path d="M292.465 135.257C292.408 135.246 292.358 135.205 292.338 135.146C292.097 134.442 291.507 134.281 291.501 134.279C291.412 134.256 291.358 134.166 291.381 134.076C291.403 133.988 291.494 133.934 291.581 133.958C291.613 133.965 292.353 134.168 292.651 135.041C292.682 135.128 292.635 135.223 292.549 135.252C292.521 135.261 292.492 135.263 292.465 135.257Z" fill="#263238"/>
<path d="M287.214 133.415C287.183 133.41 287.153 133.395 287.129 133.371C287.063 133.307 287.061 133.201 287.124 133.135C287.762 132.477 288.511 132.626 288.546 132.628C288.636 132.646 288.694 132.734 288.677 132.824C288.659 132.914 288.574 132.973 288.484 132.955C288.453 132.947 287.874 132.84 287.362 133.368C287.322 133.41 287.266 133.426 287.214 133.415Z" fill="#263238"/>
<path d="M284.569 256.85C284.302 256.85 284.052 256.804 283.892 256.671C283.765 256.565 283.706 256.418 283.716 256.232C283.723 256.094 283.796 256.028 283.855 255.997C284.241 255.797 285.379 256.493 285.508 256.572C285.537 256.59 285.552 256.623 285.547 256.656C285.542 256.689 285.517 256.716 285.485 256.724C285.242 256.783 284.893 256.85 284.569 256.85ZM284.041 256.124C283.997 256.124 283.961 256.13 283.933 256.145C283.911 256.156 283.885 256.178 283.881 256.242C283.874 256.374 283.912 256.472 283.997 256.544C284.191 256.704 284.649 256.727 285.243 256.607C284.845 256.378 284.31 256.124 284.041 256.124Z" fill="url(#paint6_linear_110_376)"/>
<path d="M285.466 256.726C285.452 256.726 285.438 256.722 285.426 256.715C285.061 256.518 284.352 255.75 284.422 255.359C284.435 255.288 284.486 255.165 284.684 255.141C284.813 255.126 284.933 255.161 285.039 255.247C285.451 255.58 285.544 256.592 285.548 256.635C285.551 256.665 285.536 256.695 285.511 256.711C285.497 256.721 285.482 256.726 285.466 256.726ZM284.744 255.304C284.731 255.304 284.718 255.305 284.706 255.306C284.598 255.319 284.589 255.369 284.586 255.391C284.544 255.621 284.997 256.202 285.361 256.476C285.317 256.181 285.199 255.591 284.936 255.377C284.875 255.328 284.812 255.304 284.744 255.304Z" fill="url(#paint7_linear_110_376)"/>
<path d="M259.777 250.783C259.774 250.784 259.77 250.784 259.766 250.784C259.19 250.775 258.178 250.699 257.869 250.285C257.777 250.161 257.753 250.017 257.798 249.858C257.826 249.763 257.887 249.698 257.977 249.671C258.444 249.524 259.68 250.523 259.819 250.637C259.847 250.659 259.857 250.697 259.845 250.73C259.834 250.758 259.808 250.779 259.777 250.783ZM258.059 249.822C258.047 249.824 258.037 249.826 258.026 249.829C257.99 249.841 257.97 249.863 257.957 249.905C257.926 250.013 257.941 250.105 258.002 250.187C258.175 250.419 258.733 250.573 259.518 250.61C259.027 250.234 258.337 249.789 258.059 249.822Z" fill="url(#paint8_linear_110_376)"/>
<path d="M259.776 250.783C259.756 250.785 259.735 250.78 259.717 250.767C259.34 250.492 258.67 249.575 258.813 249.201C258.847 249.113 258.935 249.014 259.163 249.039C259.332 249.058 259.475 249.137 259.586 249.275C259.949 249.727 259.853 250.67 259.848 250.71C259.846 250.74 259.827 250.765 259.799 250.776C259.792 250.78 259.784 250.781 259.776 250.783ZM259.06 249.203C258.988 249.212 258.974 249.248 258.969 249.261C258.884 249.486 259.323 250.188 259.694 250.532C259.705 250.253 259.696 249.675 259.457 249.378C259.373 249.275 259.272 249.218 259.146 249.204C259.11 249.2 259.082 249.201 259.06 249.203Z" fill="url(#paint9_linear_110_376)"/>
<path opacity="0.2" d="M297.788 151.96L295.317 153.006V154.569C295.317 154.569 295.745 157.726 297.094 158.87C297.641 156.774 298.271 154.556 298.996 152.459C298.328 152.125 297.788 151.96 297.788 151.96Z" fill="#0C0C0C"/>
<path d="M298.312 150.893C299.321 150.736 300.405 150.59 301.442 150.402C302.49 150.238 303.53 150.055 304.543 149.838C305.546 149.61 306.555 149.39 307.418 149.091C307.842 148.946 308.249 148.786 308.483 148.659C308.514 148.636 308.596 148.6 308.592 148.6C308.586 148.608 308.637 148.571 308.59 148.621C308.528 148.692 308.487 148.751 308.459 148.8C308.357 148.997 308.412 148.973 308.433 148.877C308.491 148.664 308.53 148.223 308.515 147.774C308.506 147.318 308.462 146.825 308.4 146.324C308.293 145.315 308.094 144.276 307.904 143.225C307.708 142.175 307.478 141.118 307.227 140.064C307.005 139.003 306.731 137.937 306.493 136.889L308.828 136.006C309.357 137.025 309.8 138.044 310.259 139.079C310.688 140.121 311.098 141.175 311.481 142.251C311.869 143.328 312.191 144.433 312.475 145.594C312.607 146.178 312.725 146.776 312.806 147.419C312.88 148.067 312.95 148.737 312.836 149.614C312.763 150.059 312.671 150.578 312.274 151.243C312.173 151.408 312.048 151.578 311.89 151.749C311.75 151.9 311.691 151.947 311.584 152.049C311.382 152.242 311.223 152.346 311.036 152.491C310.347 152.969 309.743 153.261 309.142 153.519C307.95 154.018 306.824 154.371 305.687 154.661C303.415 155.244 301.218 155.651 298.902 155.899L298.312 150.893Z" fill="#803E3C"/>
<path d="M296.251 155.5C298.297 157.061 305.765 155.45 305.765 155.45L304.526 149.002C304.526 149.002 301.061 149.255 297.882 150.174C294.418 151.175 293.772 153.608 296.251 155.5Z" fill="url(#paint10_linear_110_376)"/>
<path opacity="0.7" d="M296.251 155.5C298.297 157.061 305.765 155.45 305.765 155.45L304.526 149.002C304.526 149.002 301.061 149.255 297.882 150.174C294.418 151.175 293.772 153.608 296.251 155.5Z" fill="white"/>
<path d="M309.218 136.813L309.469 133.417L305.444 134.949C305.444 134.949 305.874 137.881 307.46 137.813L309.218 136.813Z" fill="#7F3E3B"/>
<path d="M307.921 131.096L304.652 132.517L305.445 134.949L309.469 133.417L307.921 131.096Z" fill="#7F3E3B"/>
<path d="M287.566 138.95C287.566 138.95 288.396 138.83 290.663 139.035C290.315 139.72 289.751 140.253 288.591 140.137C287.432 140.021 287.566 138.95 287.566 138.95Z" fill="white"/>
<path d="M157.391 42.6943H165.72L178.928 191.43H170.598C166.756 191.43 163.365 188.314 163.023 184.47L151.051 49.6539C150.711 45.8104 153.549 42.6943 157.391 42.6943Z" fill="url(#paint11_linear_110_376)"/>
<path d="M264.016 191.43H173.067C168.762 191.43 164.967 187.939 164.591 183.633L152.948 50.4916C152.571 46.1849 155.755 42.6943 160.06 42.6943H251.009C255.314 42.6943 259.108 46.1849 259.485 50.4916L271.128 183.633C271.504 187.939 268.321 191.43 264.016 191.43Z" fill="url(#paint12_linear_110_376)"/>
<path opacity="0.5" d="M264.016 191.43H173.067C168.762 191.43 164.967 187.939 164.591 183.633L152.948 50.4916C152.571 46.1849 155.755 42.6943 160.06 42.6943H251.009C255.314 42.6943 259.108 46.1849 259.485 50.4916L271.128 183.633C271.504 187.939 268.321 191.43 264.016 191.43Z" fill="white"/>
<path opacity="0.2" d="M173.971 174.435H263.058L251.795 47.5952H162.707L173.971 174.435Z" fill="#0C0C0C"/>
<path d="M177.866 172.699H266.954L251.795 47.5952H162.707L177.866 172.699Z" fill="url(#paint13_linear_110_376)"/>
<path opacity="0.8" d="M177.866 172.699H266.954L251.795 47.5952H162.707L177.866 172.699Z" fill="white"/>
<path d="M246.33 82.2223H190.602C189.963 82.2223 189.399 81.7046 189.344 81.0652C189.288 80.4266 189.761 79.9082 190.399 79.9082H246.127C246.767 79.9082 247.33 80.4259 247.385 81.0652C247.441 81.7039 246.968 82.2223 246.33 82.2223Z" fill="#263238"/>
<path d="M244.59 88.7814H181.341C180.703 88.7814 180.139 88.2637 180.083 87.6243C180.026 86.9857 180.5 86.4673 181.138 86.4673H244.387C245.025 86.4673 245.589 86.985 245.644 87.6243C245.701 88.2637 245.228 88.7814 244.59 88.7814Z" fill="#263238"/>
<path d="M247.477 95.3407H181.915C181.276 95.3407 180.712 94.823 180.657 94.1836C180.601 93.545 181.074 93.0266 181.712 93.0266H247.275C247.914 93.0266 248.477 93.5443 248.533 94.1836C248.589 94.823 248.117 95.3407 247.477 95.3407Z" fill="#263238"/>
<path d="M239.951 101.9H182.488C181.85 101.9 181.286 101.382 181.23 100.743C181.173 100.104 181.647 99.5859 182.285 99.5859H239.748C240.387 99.5859 240.951 100.104 241.006 100.743C241.063 101.382 240.591 101.9 239.951 101.9Z" fill="#263238"/>
<path d="M248.625 108.459H192.897C192.258 108.459 191.694 107.942 191.638 107.302C191.582 106.663 192.055 106.145 192.694 106.145H248.422C249.061 106.145 249.624 106.663 249.68 107.302C249.737 107.942 249.264 108.459 248.625 108.459Z" fill="#263238"/>
<path d="M246.306 115.018H183.635C182.997 115.018 182.433 114.501 182.378 113.861C182.321 113.223 182.794 112.704 183.433 112.704H246.103C246.742 112.704 247.305 113.222 247.361 113.861C247.417 114.5 246.944 115.018 246.306 115.018Z" fill="#263238"/>
<path d="M249.771 121.576H184.209C183.57 121.576 183.006 121.058 182.95 120.419C182.894 119.78 183.367 119.262 184.006 119.262H249.568C250.207 119.262 250.771 119.78 250.826 120.419C250.883 121.058 250.41 121.576 249.771 121.576Z" fill="#263238"/>
<path d="M245.717 128.136H184.783C184.144 128.136 183.58 127.619 183.525 126.979C183.469 126.34 183.942 125.822 184.581 125.822H245.515C246.154 125.822 246.717 126.34 246.773 126.979C246.829 127.618 246.356 128.136 245.717 128.136Z" fill="#263238"/>
<g opacity="0.3">
<path d="M246.33 82.2223H190.602C189.963 82.2223 189.399 81.7046 189.344 81.0652C189.288 80.4266 189.761 79.9082 190.399 79.9082H246.127C246.767 79.9082 247.33 80.4259 247.385 81.0652C247.441 81.7039 246.968 82.2223 246.33 82.2223Z" fill="white"/>
<path d="M244.59 88.7814H181.341C180.703 88.7814 180.139 88.2637 180.083 87.6243C180.026 86.9857 180.5 86.4673 181.138 86.4673H244.387C245.025 86.4673 245.589 86.985 245.644 87.6243C245.701 88.2637 245.228 88.7814 244.59 88.7814Z" fill="white"/>
<path d="M247.477 95.3407H181.915C181.276 95.3407 180.712 94.823 180.657 94.1836C180.601 93.545 181.074 93.0266 181.712 93.0266H247.275C247.914 93.0266 248.477 93.5443 248.533 94.1836C248.589 94.823 248.117 95.3407 247.477 95.3407Z" fill="white"/>
<path d="M239.951 101.9H182.488C181.85 101.9 181.286 101.382 181.23 100.743C181.173 100.104 181.647 99.5859 182.285 99.5859H239.748C240.387 99.5859 240.951 100.104 241.006 100.743C241.063 101.382 240.591 101.9 239.951 101.9Z" fill="white"/>
<path d="M248.625 108.459H192.897C192.258 108.459 191.694 107.942 191.638 107.302C191.582 106.663 192.055 106.145 192.694 106.145H248.422C249.061 106.145 249.624 106.663 249.68 107.302C249.737 107.942 249.264 108.459 248.625 108.459Z" fill="white"/>
<path d="M246.306 115.018H183.635C182.997 115.018 182.433 114.501 182.378 113.861C182.321 113.223 182.794 112.704 183.433 112.704H246.103C246.742 112.704 247.305 113.222 247.361 113.861C247.417 114.5 246.944 115.018 246.306 115.018Z" fill="white"/>
<path d="M249.771 121.576H184.209C183.57 121.576 183.006 121.058 182.95 120.419C182.894 119.78 183.367 119.262 184.006 119.262H249.568C250.207 119.262 250.771 119.78 250.826 120.419C250.883 121.058 250.41 121.576 249.771 121.576Z" fill="white"/>
<path d="M245.717 128.136H184.783C184.144 128.136 183.58 127.619 183.525 126.979C183.469 126.34 183.942 125.822 184.581 125.822H245.515C246.154 125.822 246.717 126.34 246.773 126.979C246.829 127.618 246.356 128.136 245.717 128.136Z" fill="white"/>
</g>
<path d="M248.913 163.632H229.357C228.717 163.632 228.154 163.115 228.099 162.475C228.043 161.836 228.516 161.318 229.154 161.318H248.71C249.349 161.318 249.913 161.836 249.968 162.475C250.024 163.114 249.552 163.632 248.913 163.632Z" fill="#263238"/>
<path d="M227.933 159.629L227.933 159.628C227.768 159.415 227.795 159.126 227.995 158.98C229.379 157.961 230.908 156.767 232.338 155.571C232.674 153.376 234.152 150.564 235.652 149.257C236.776 148.278 237.611 148.398 238.113 148.67C238.463 148.861 238.681 149.17 238.729 149.541C238.91 150.955 236.046 153.746 233.22 156.123C233.176 156.587 233.205 156.987 233.325 157.283C233.45 157.591 233.657 157.733 234.017 157.755C235.597 157.857 236.46 157.019 237.295 156.209C238.233 155.299 239.203 154.357 240.967 155.227C242.524 155.993 242.562 156.764 242.474 157.426C242.464 157.503 242.449 157.62 242.458 157.656C242.465 157.656 242.659 157.839 243.866 157.992C246.563 158.338 248.018 156.377 248.507 155.544C248.624 155.345 248.879 155.281 249.101 155.395C249.358 155.526 249.465 155.838 249.329 156.069C248.744 157.058 247.036 159.327 243.829 158.923C242.622 158.77 242.033 158.561 241.729 158.176C241.461 157.838 241.507 157.483 241.541 157.225C241.59 156.854 241.628 156.561 240.612 156.061C239.499 155.512 238.944 155.974 237.982 156.909C237.105 157.759 236.015 158.819 234.039 158.691C233.294 158.642 232.732 158.244 232.458 157.566C232.376 157.365 232.322 157.137 232.293 156.891C230.785 158.119 229.388 159.168 228.596 159.751C228.393 159.899 228.098 159.843 227.933 159.629ZM237.432 149.415C237.03 149.415 236.574 149.752 236.306 149.986C235.182 150.965 234.125 152.837 233.581 154.506C236.018 152.371 237.9 150.391 237.795 149.579C237.79 149.543 237.788 149.523 237.72 149.486C237.63 149.437 237.532 149.415 237.432 149.415Z" fill="#263238"/>
<g opacity="0.3">
<path d="M248.913 163.632H229.357C228.717 163.632 228.154 163.115 228.099 162.475C228.043 161.836 228.516 161.318 229.154 161.318H248.71C249.349 161.318 249.913 161.836 249.968 162.475C250.024 163.114 249.552 163.632 248.913 163.632Z" fill="white"/>
<path d="M227.933 159.629L227.933 159.628C227.768 159.415 227.795 159.126 227.995 158.98C229.379 157.961 230.908 156.767 232.338 155.571C232.674 153.376 234.152 150.564 235.652 149.257C236.776 148.278 237.611 148.398 238.113 148.67C238.463 148.861 238.681 149.17 238.729 149.541C238.91 150.955 236.046 153.746 233.22 156.123C233.176 156.587 233.205 156.987 233.325 157.283C233.45 157.591 233.657 157.733 234.017 157.755C235.597 157.857 236.46 157.019 237.295 156.209C238.233 155.299 239.203 154.357 240.967 155.227C242.524 155.993 242.562 156.764 242.474 157.426C242.464 157.503 242.449 157.62 242.458 157.656C242.465 157.656 242.659 157.839 243.866 157.992C246.563 158.338 248.018 156.377 248.507 155.544C248.624 155.345 248.879 155.281 249.101 155.395C249.358 155.526 249.465 155.838 249.329 156.069C248.744 157.058 247.036 159.327 243.829 158.923C242.622 158.77 242.033 158.561 241.729 158.176C241.461 157.838 241.507 157.483 241.541 157.225C241.59 156.854 241.628 156.561 240.612 156.061C239.499 155.512 238.944 155.974 237.982 156.909C237.105 157.759 236.015 158.819 234.039 158.691C233.294 158.642 232.732 158.244 232.458 157.566C232.376 157.365 232.322 157.137 232.293 156.891C230.785 158.119 229.388 159.168 228.596 159.751C228.393 159.899 228.098 159.843 227.933 159.629ZM237.432 149.415C237.03 149.415 236.574 149.752 236.306 149.986C235.182 150.965 234.125 152.837 233.581 154.506C236.018 152.371 237.9 150.391 237.795 149.579C237.79 149.543 237.788 149.523 237.72 149.486C237.63 149.437 237.532 149.415 237.432 149.415Z" fill="white"/>
</g>
<path d="M226.382 152.699C223.956 152.699 221.704 150.86 221.23 148.393L221.052 147.469C220.544 144.832 222.256 142.462 224.867 142.185L248.918 139.633C250.184 139.497 251.468 139.87 252.536 140.677C253.605 141.485 254.328 142.634 254.575 143.911L254.752 144.836C254.999 146.113 254.737 147.366 254.017 148.364C253.296 149.362 252.203 149.986 250.938 150.12L226.887 152.672C226.717 152.69 226.549 152.699 226.382 152.699ZM249.501 140.468C249.361 140.468 249.222 140.475 249.082 140.49L225.032 143.042C223.993 143.152 223.096 143.664 222.505 144.483C221.914 145.302 221.699 146.331 221.901 147.379L222.079 148.303C222.496 150.467 224.579 152.036 226.721 151.815L250.772 149.262C251.81 149.152 252.707 148.64 253.298 147.821C253.889 147.002 254.104 145.974 253.902 144.926L253.724 144.001C253.523 142.953 252.929 142.011 252.052 141.348C251.293 140.773 250.401 140.468 249.501 140.468Z" fill="url(#paint14_linear_110_376)"/>
<path d="M226.412 148.257L224.583 148.451L224.372 149.359L223.866 149.413L224.755 145.774L225.242 145.722L227.474 149.03L226.958 149.085L226.412 148.257ZM226.164 147.878L225.094 146.255L224.679 148.036L226.164 147.878Z" fill="url(#paint15_linear_110_376)"/>
<path d="M229.771 145.571C230.068 145.759 230.253 146.041 230.325 146.418C230.398 146.796 230.328 147.105 230.113 147.348C229.899 147.59 229.569 147.734 229.123 147.782L228.273 147.872L228.475 148.924L227.983 148.976L227.314 145.502L228.657 145.359C229.103 145.313 229.474 145.383 229.771 145.571ZM229.7 147.075C229.838 146.924 229.883 146.722 229.834 146.471C229.786 146.22 229.667 146.035 229.477 145.918C229.287 145.802 229.037 145.76 228.726 145.793L227.89 145.882L228.19 147.44L229.026 147.352C229.337 147.319 229.562 147.226 229.7 147.075Z" fill="url(#paint16_linear_110_376)"/>
<path d="M233.272 145.2C233.569 145.388 233.754 145.67 233.826 146.048C233.899 146.425 233.829 146.735 233.614 146.976C233.4 147.219 233.07 147.363 232.624 147.41L231.774 147.501L231.976 148.553L231.484 148.605L230.815 145.131L232.158 144.988C232.604 144.941 232.975 145.012 233.272 145.2ZM233.201 146.704C233.339 146.553 233.384 146.351 233.335 146.1C233.287 145.848 233.168 145.664 232.978 145.547C232.788 145.43 232.538 145.389 232.227 145.422L231.391 145.51L231.691 147.069L232.527 146.98C232.838 146.947 233.063 146.855 233.201 146.704Z" fill="url(#paint17_linear_110_376)"/>
<path d="M237.285 147.989L236.338 147.001C236.247 147.017 236.176 147.028 236.123 147.034L235.273 147.124L235.477 148.181L234.985 148.233L234.316 144.759L235.658 144.616C236.104 144.568 236.475 144.639 236.772 144.827C237.069 145.015 237.254 145.297 237.326 145.675C237.378 145.943 237.356 146.178 237.261 146.38C237.166 146.582 237.007 146.739 236.78 146.852L237.821 147.931L237.285 147.989ZM236.701 146.335C236.838 146.182 236.883 145.979 236.834 145.728C236.786 145.477 236.667 145.292 236.477 145.176C236.287 145.059 236.037 145.017 235.726 145.05L234.89 145.139L235.191 146.703L236.027 146.614C236.338 146.58 236.563 146.487 236.701 146.335Z" fill="url(#paint18_linear_110_376)"/>
<path d="M239.136 147.598C238.828 147.474 238.568 147.285 238.357 147.03C238.146 146.776 238.008 146.481 237.943 146.147C237.879 145.813 237.9 145.502 238.007 145.214C238.113 144.925 238.291 144.69 238.54 144.506C238.789 144.323 239.088 144.213 239.435 144.176C239.779 144.139 240.105 144.183 240.413 144.307C240.721 144.432 240.98 144.621 241.189 144.874C241.398 145.126 241.536 145.422 241.6 145.76C241.665 146.097 241.645 146.409 241.54 146.695C241.434 146.982 241.257 147.217 241.008 147.4C240.759 147.583 240.463 147.693 240.119 147.73C239.772 147.766 239.444 147.723 239.136 147.598ZM240.682 147.042C240.861 146.905 240.989 146.728 241.066 146.513C241.143 146.297 241.158 146.063 241.109 145.812C241.061 145.561 240.959 145.34 240.803 145.149C240.648 144.958 240.458 144.814 240.234 144.72C240.011 144.626 239.773 144.592 239.52 144.619C239.268 144.645 239.051 144.727 238.868 144.865C238.686 145.002 238.555 145.179 238.478 145.395C238.401 145.61 238.387 145.845 238.435 146.096C238.483 146.347 238.586 146.568 238.741 146.76C238.897 146.951 239.088 147.094 239.315 147.188C239.542 147.282 239.782 147.315 240.034 147.289C240.286 147.261 240.502 147.179 240.682 147.042Z" fill="url(#paint19_linear_110_376)"/>
<path d="M244.898 143.636L244.058 147.271L243.571 147.323L241.388 144.01L241.919 143.953L243.707 146.676L244.406 143.69L244.898 143.636Z" fill="url(#paint20_linear_110_376)"/>
<path d="M248.418 146.367L248.501 146.799L246.004 147.064L245.335 143.59L247.764 143.332L247.847 143.763L245.91 143.969L246.115 145.036L247.84 144.853L247.922 145.275L246.197 145.458L246.413 146.58L248.418 146.367Z" fill="url(#paint21_linear_110_376)"/>
<path d="M248.63 143.241L250.08 143.087C250.444 143.048 250.781 143.087 251.091 143.203C251.4 143.319 251.659 143.499 251.865 143.746C252.071 143.993 252.207 144.287 252.272 144.627C252.338 144.968 252.318 145.279 252.213 145.558C252.108 145.837 251.929 146.065 251.675 146.24C251.421 146.416 251.113 146.522 250.749 146.561L249.299 146.716L248.63 143.241ZM250.636 146.133C250.914 146.103 251.148 146.023 251.339 145.891C251.529 145.76 251.663 145.589 251.74 145.38C251.817 145.171 251.831 144.937 251.781 144.679C251.732 144.421 251.63 144.199 251.477 144.015C251.325 143.83 251.133 143.695 250.9 143.608C250.667 143.522 250.412 143.493 250.134 143.522L249.205 143.621L249.708 146.232L250.636 146.133Z" fill="url(#paint22_linear_110_376)"/>
<path d="M189.995 39.2034H196.972L198.102 51.9355H191.126C188.773 51.9355 186.696 50.0274 186.487 47.6727L186.113 43.4654C185.903 41.1115 187.641 39.2034 189.995 39.2034Z" fill="#263238"/>
<path d="M221.045 51.9357H192.851C190.215 51.9357 187.891 49.7979 187.659 47.1601L187.381 43.9785C187.15 41.3415 189.1 39.2029 191.737 39.2029H219.931C222.567 39.2029 224.891 41.3408 225.122 43.9785L225.4 47.1601C225.632 49.7979 223.681 51.9357 221.045 51.9357Z" fill="#263238"/>
<path opacity="0.5" d="M221.045 51.9357H192.851C190.215 51.9357 187.891 49.7979 187.659 47.1601L187.381 43.9785C187.15 41.3415 189.1 39.2029 191.737 39.2029H219.931C222.567 39.2029 224.891 41.3408 225.122 43.9785L225.4 47.1601C225.632 49.7979 223.681 51.9357 221.045 51.9357Z" fill="white"/>
<path d="M220.827 46.9203C220.887 47.6132 220.375 48.1744 219.683 48.1744C218.99 48.1744 218.38 47.6132 218.32 46.9203C218.259 46.2281 218.771 45.6663 219.464 45.6663C220.157 45.6663 220.766 46.2274 220.827 46.9203Z" fill="#263238"/>
<path d="M194.697 46.9203C194.758 47.6132 194.246 48.1744 193.553 48.1744C192.861 48.1744 192.251 47.6132 192.19 46.9203C192.13 46.2281 192.642 45.6663 193.334 45.6663C194.027 45.6663 194.637 46.2274 194.697 46.9203Z" fill="#263238"/>
<path d="M156.108 145.254L155.453 143.995C154.959 143.045 155.19 141.88 156.01 141.193L157.181 140.209C157.579 139.874 157.851 139.415 157.952 138.906L158.949 133.894C159.05 133.384 158.975 132.856 158.735 132.395L157.691 130.388C157.197 129.439 157.429 128.274 158.248 127.586L160.221 125.929C160.619 125.594 160.891 125.135 160.992 124.626L162.601 116.532L156.975 115.413L151.349 114.293L149.74 122.387C149.639 122.896 149.714 123.425 149.954 123.886L151.143 126.172C151.637 127.121 151.405 128.286 150.586 128.974L148.854 130.428C148.456 130.763 148.184 131.222 148.083 131.731L147.086 136.743C146.985 137.252 147.06 137.781 147.3 138.242L148.006 139.6C148.5 140.549 148.268 141.714 147.449 142.402L146.363 143.315C145.543 144.002 145.312 145.167 145.805 146.117L146.248 146.967C146.742 147.917 146.51 149.081 145.691 149.769C144.871 150.457 144.64 151.622 145.133 152.571L146.516 155.23L148.961 155.717L151.407 156.204L153.701 154.277C154.521 153.589 154.753 152.424 154.259 151.475C153.765 150.526 153.997 149.361 154.816 148.673L155.55 148.056C156.37 147.368 156.601 146.202 156.108 145.254Z" fill="#263238"/>
<path opacity="0.6" d="M156.108 145.254L155.453 143.995C154.959 143.045 155.19 141.88 156.01 141.193L157.181 140.209C157.579 139.874 157.851 139.415 157.952 138.906L158.949 133.894C159.05 133.384 158.975 132.856 158.735 132.395L157.691 130.388C157.197 129.439 157.429 128.274 158.248 127.586L160.221 125.929C160.619 125.594 160.891 125.135 160.992 124.626L162.601 116.532L156.975 115.413L151.349 114.293L149.74 122.387C149.639 122.896 149.714 123.425 149.954 123.886L151.143 126.172C151.637 127.121 151.405 128.286 150.586 128.974L148.854 130.428C148.456 130.763 148.184 131.222 148.083 131.731L147.086 136.743C146.985 137.252 147.06 137.781 147.3 138.242L148.006 139.6C148.5 140.549 148.268 141.714 147.449 142.402L146.363 143.315C145.543 144.002 145.312 145.167 145.805 146.117L146.248 146.967C146.742 147.917 146.51 149.081 145.691 149.769C144.871 150.457 144.64 151.622 145.133 152.571L146.516 155.23L148.961 155.717L151.407 156.204L153.701 154.277C154.521 153.589 154.753 152.424 154.259 151.475C153.765 150.526 153.997 149.361 154.816 148.673L155.55 148.056C156.37 147.368 156.601 146.202 156.108 145.254Z" fill="white"/>
<path opacity="0.2" d="M160.222 125.929C160.619 125.594 160.891 125.135 160.993 124.626L162.602 116.532L159.789 115.972L156.976 115.413L151.35 114.293L150.153 120.314L155.779 121.433L148.963 155.718L151.409 156.204L153.703 154.278C154.523 153.59 154.755 152.425 154.261 151.476C153.767 150.526 153.999 149.362 154.818 148.674L155.552 148.057C156.372 147.369 156.604 146.204 156.11 145.255L155.455 143.996C154.961 143.047 155.193 141.882 156.012 141.194L157.184 140.21C157.581 139.876 157.853 139.416 157.955 138.907L158.951 133.895C159.053 133.386 158.977 132.857 158.738 132.396L157.694 130.389C157.2 129.44 157.432 128.275 158.251 127.587L160.222 125.929Z" fill="#0C0C0C"/>
<path d="M174.213 105.485C172.724 103.719 166.137 100.482 162.596 99.777C159.055 99.0726 151.731 99.5408 149.679 100.603C145.121 102.962 142.288 111.33 146.794 115.115C148.617 116.647 155.601 118.372 158.749 119.127C161.896 119.883 168.99 120.67 171.328 119.997C177.105 118.334 177.52 109.41 174.213 105.485ZM166.535 106.206L156.496 104.208C155.758 104.061 155.668 103.154 156.376 102.977C158.548 102.432 160.75 102.166 162.068 102.428C163.388 102.691 165.319 103.78 167.117 105.114C167.704 105.549 167.273 106.353 166.535 106.206Z" fill="#263238"/>
<path opacity="0.6" d="M174.213 105.485C172.724 103.719 166.137 100.482 162.596 99.777C159.055 99.0726 151.731 99.5408 149.679 100.603C145.121 102.962 142.288 111.33 146.794 115.115C148.617 116.647 155.601 118.372 158.749 119.127C161.896 119.883 168.99 120.67 171.328 119.997C177.105 118.334 177.52 109.41 174.213 105.485ZM166.535 106.206L156.496 104.208C155.758 104.061 155.668 103.154 156.376 102.977C158.548 102.432 160.75 102.166 162.068 102.428C163.388 102.691 165.319 103.78 167.117 105.114C167.704 105.549 167.273 106.353 166.535 106.206Z" fill="#0C0C0C"/>
<path d="M171.762 104.998C170.273 103.231 163.686 99.9944 160.145 99.2892C156.604 98.5848 149.28 99.053 147.228 100.115C142.671 102.474 139.837 110.842 144.343 114.627C146.166 116.159 153.151 117.884 156.298 118.64C159.444 119.395 166.539 120.183 168.877 119.51C174.654 117.846 175.07 108.923 171.762 104.998ZM164.084 105.719L154.045 103.721C153.306 103.574 153.216 102.667 153.925 102.49C156.097 101.945 158.299 101.678 159.617 101.941C160.936 102.204 162.868 103.293 164.666 104.627C165.252 105.062 164.822 105.865 164.084 105.719Z" fill="#263238"/>
<path d="M157.581 105.333C155.04 111.47 148.089 114.473 141.913 112.193C135.724 109.908 132.36 102.926 134.479 96.676C136.863 89.6509 144.932 85.749 151.248 88.3658L152.215 88.767C152.676 88.9579 152.895 89.4866 152.704 89.9476C152.513 90.4086 151.985 90.6276 151.524 90.4367L150.556 90.0355C145.245 87.8343 138.455 91.0951 136.284 96.9929C134.401 102.108 136.884 107.98 141.853 110.216C147.286 112.66 153.648 110.107 155.911 104.64C158.376 98.6857 154.008 94.4013 149.519 92.5407L148.191 91.9904C147.73 91.7995 147.511 91.2708 147.702 90.8098C147.893 90.3488 148.422 90.1299 148.882 90.3207L150.21 90.8711C157.03 93.6975 159.992 99.509 157.581 105.333Z" fill="#263238"/>
<g opacity="0.5">
<path d="M157.581 105.333C155.04 111.47 148.089 114.473 141.913 112.193C135.724 109.908 132.36 102.926 134.479 96.676C136.863 89.6509 144.932 85.749 151.248 88.3658L152.215 88.767C152.676 88.9579 152.895 89.4866 152.704 89.9476C152.513 90.4086 151.985 90.6276 151.524 90.4367L150.556 90.0355C145.245 87.8343 138.455 91.0951 136.284 96.9929C134.401 102.108 136.884 107.98 141.853 110.216C147.286 112.66 153.648 110.107 155.911 104.64C158.376 98.6857 154.008 94.4013 149.519 92.5407L148.191 91.9904C147.73 91.7995 147.511 91.2708 147.702 90.8098C147.893 90.3488 148.422 90.1299 148.882 90.3207L150.21 90.8711C157.03 93.6975 159.992 99.509 157.581 105.333Z" fill="white"/>
</g>
<path d="M149.067 117.861C148.596 114.28 143.61 107.781 140.275 106.398C136.939 105.016 128.82 106.085 125.956 108.284C119.594 113.168 111.267 130.28 113.681 137.931C114.658 141.026 121.025 144.436 123.908 145.928C126.79 147.42 133.868 148.917 136.791 147.507C144.016 144.026 150.113 125.814 149.067 117.861ZM143.03 113.123L133.574 109.204C132.879 108.916 133.02 107.881 133.768 107.799C136.063 107.549 138.316 107.617 139.558 108.131C140.8 108.646 142.44 110.192 143.886 111.992C144.357 112.579 143.726 113.411 143.03 113.123Z" fill="#263238"/>
<path opacity="0.6" d="M149.067 117.861C148.596 114.28 143.61 107.781 140.275 106.398C136.939 105.016 128.82 106.085 125.956 108.284C119.594 113.168 111.267 130.28 113.681 137.931C114.658 141.026 121.025 144.436 123.908 145.928C126.79 147.42 133.868 148.917 136.791 147.507C144.016 144.026 150.113 125.814 149.067 117.861ZM143.03 113.123L133.574 109.204C132.879 108.916 133.02 107.881 133.768 107.799C136.063 107.549 138.316 107.617 139.558 108.131C140.8 108.646 142.44 110.192 143.886 111.992C144.357 112.579 143.726 113.411 143.03 113.123Z" fill="#0C0C0C"/>
<path d="M146.758 116.904C146.286 113.323 141.302 106.824 137.966 105.441C134.63 104.059 126.512 105.128 123.647 107.327C117.286 112.211 108.959 129.324 111.373 136.974C112.35 140.069 118.718 143.479 121.6 144.971C124.482 146.463 131.56 147.96 134.483 146.55C141.707 143.069 147.805 124.858 146.758 116.904ZM140.722 112.166L131.266 108.247C130.57 107.959 130.711 106.924 131.459 106.842C133.754 106.593 136.007 106.66 137.25 107.175C138.492 107.69 140.133 109.235 141.578 111.035C142.048 111.622 141.417 112.454 140.722 112.166Z" fill="#263238"/>
<path d="M140.154 126.584L121.529 118.866C120.201 121.041 118.964 123.543 118.014 125.995L137.64 134.128C138.69 131.725 139.57 129.075 140.154 126.584Z" fill="url(#paint23_linear_110_376)"/>
<path d="M117.282 128.046C116.294 131.101 115.865 133.893 116.41 135.617C116.472 135.76 117.295 137.346 123.691 140.657C125.962 141.84 130.854 142.502 131.983 141.989C133.59 141.213 135.258 138.956 136.712 136.097L117.282 128.046Z" fill="url(#paint24_linear_110_376)"/>
<path d="M140.594 124.413C140.906 122.555 141.009 120.874 140.838 119.573C140.582 117.631 136.985 112.942 135.177 112.192C133.369 111.443 127.51 112.215 125.959 113.406C124.931 114.195 123.824 115.462 122.735 117.013L140.594 124.413Z" fill="url(#paint25_linear_110_376)"/>
<path d="M131.404 126.86L127.571 125.271L126.414 128.066L130.247 129.655L131.404 126.86Z" fill="white"/>
<path d="M130.613 127.299L130.093 127.084L130.663 125.706C130.864 125.22 130.633 124.662 130.148 124.461C129.662 124.26 129.104 124.492 128.904 124.977L128.333 126.355L127.813 126.14L128.384 124.762C128.703 123.991 129.591 123.622 130.363 123.942C131.135 124.262 131.503 125.151 131.183 125.922L130.613 127.299Z" fill="white"/>
<path d="M127.573 136.102L123.74 134.514L122.583 137.309L126.416 138.897L127.573 136.102Z" fill="white"/>
<path d="M124.508 135.595L123.988 135.379L124.559 134.001C124.878 133.23 125.766 132.862 126.538 133.182C127.31 133.501 127.678 134.39 127.358 135.162L126.838 134.946C127.039 134.461 126.808 133.903 126.322 133.702C125.837 133.501 125.279 133.732 125.078 134.217L124.508 135.595Z" fill="white"/>
<path d="M136.903 117.406L135.311 116.747L133.979 114.584L131.984 119.401L134.455 118.814L136.047 119.474L136.903 117.406Z" fill="white"/>
<path d="M129.929 118.474C129.173 116.646 130.043 114.542 131.87 113.786L132.157 114.479C130.712 115.077 130.023 116.741 130.622 118.187L129.929 118.474Z" fill="white"/>
<path d="M131.565 117.796C131.379 117.347 131.379 116.854 131.565 116.406C131.75 115.957 132.1 115.608 132.547 115.423L132.834 116.116C132.57 116.224 132.366 116.429 132.257 116.693C132.149 116.955 132.149 117.245 132.257 117.509L131.565 117.796Z" fill="white"/>
<path d="M59.1066 245.281L104.243 246.762H204.083L247.163 244.57V235.159L241.642 227.177L226.622 221.867L207.563 227.177L200.003 234.314L114.513 235.159L97.7627 222.948L84.6738 218.223L65.483 223.188L60.803 231.769L58.0425 240.417L59.1066 245.281Z" fill="#263238"/>
<path opacity="0.6" d="M59.1066 245.281L104.243 246.762H204.083L247.163 244.57V235.159L241.642 227.177L226.622 221.867L207.563 227.177L200.003 234.314L114.513 235.159L97.7627 222.948L84.6738 218.223L65.483 223.188L60.803 231.769L58.0425 240.417L59.1066 245.281Z" fill="#0C0C0C"/>
<path d="M61.7326 238.144C63.3439 234.206 69.7404 227.654 73.663 226.009C77.479 224.409 86.5366 224.111 90.2136 226.009C94.1023 228.017 99.0228 236.112 100.353 240.282C100.844 241.818 100.701 245.525 100.538 247.966L207.099 249.09C206.875 246.127 206.727 242.039 207.423 240.338C209.034 236.4 215.431 229.848 219.354 228.203C223.17 226.604 232.227 226.305 235.904 228.203C239.793 230.211 244.713 238.306 246.044 242.476C246.364 243.481 246.414 245.417 246.365 247.319C247.161 246.721 247.886 246.019 248.493 245.2L249.496 243.845C250.831 242.041 251.553 239.856 251.553 237.61V234.095C251.553 232.179 251.027 230.299 250.033 228.661L247.472 224.443V195.844C247.472 194.435 247.188 193.042 246.637 191.746L236.399 167.666C234.806 163.92 231.19 161.437 227.125 161.299C216.133 160.927 194.556 160.278 185.793 160.575C173.052 161.007 138.878 164.494 128.695 165.553C126.81 165.749 125.042 166.548 123.646 167.831L93.3938 195.63L63.3749 208.744C60.8196 209.86 58.9418 212.119 58.3118 214.837L55.4729 227.085L54.5354 228.311C53.1365 230.142 52.5086 232.447 52.7858 234.735L53.364 239.501C53.639 241.765 54.7795 243.835 56.5464 245.276L56.9194 245.58C58.2226 246.643 59.7979 247.301 61.4546 247.497C61.2084 244.515 60.9874 239.964 61.7326 238.144Z" fill="url(#paint26_linear_110_376)"/>
<path d="M80.5529 261.667C89.5993 261.667 96.9329 254.331 96.9329 245.281C96.9329 236.23 89.5993 228.894 80.5529 228.894C71.5064 228.894 64.1729 236.23 64.1729 245.281C64.1729 254.331 71.5064 261.667 80.5529 261.667Z" fill="#263238"/>
<path opacity="0.5" d="M80.5538 256.698C86.8569 256.698 91.9666 251.587 91.9666 245.281C91.9666 238.975 86.8569 233.863 80.5538 233.863C74.2508 233.863 69.1411 238.975 69.1411 245.281C69.1411 251.587 74.2508 256.698 80.5538 256.698Z" fill="white"/>
<g opacity="0.5">
<path d="M76.3521 241.523L75.5551 239.147C75.1843 238.04 73.7414 237.713 72.9695 238.588C72.0911 239.585 71.4064 240.757 70.973 242.044C70.5986 243.154 71.5987 244.249 72.7478 244.017L75.2001 243.52C76.1051 243.336 76.6459 242.4 76.3521 241.523Z" fill="#0C0C0C"/>
<path d="M81.7052 239.762L83.3656 237.882C84.1367 237.009 83.7025 235.598 82.5621 235.363C81.9133 235.23 81.2416 235.159 80.5533 235.159C79.8642 235.159 79.1932 235.23 78.5445 235.363C77.404 235.598 76.9705 237.009 77.7409 237.882L79.4013 239.762C80.0125 240.455 81.0932 240.455 81.7052 239.762Z" fill="#0C0C0C"/>
<path d="M85.9061 243.52L88.3584 244.017C89.5068 244.249 90.5069 243.154 90.1332 242.044C89.6998 240.756 89.0151 239.585 88.1367 238.588C87.3648 237.713 85.9219 238.04 85.5511 239.147L84.7548 241.523C84.4596 242.4 85.0003 243.336 85.9061 243.52Z" fill="#0C0C0C"/>
<path d="M84.7545 249.039L85.5508 251.415C85.9216 252.521 87.3645 252.849 88.1363 251.974C89.0147 250.977 89.6995 249.806 90.1329 248.519C90.5066 247.408 89.5065 246.313 88.3581 246.546L85.9058 247.043C85.0007 247.226 84.46 248.161 84.7545 249.039Z" fill="#0C0C0C"/>
<path d="M79.4008 250.8L77.7404 252.68C76.97 253.553 77.4035 254.963 78.544 255.198C79.1927 255.331 79.8644 255.402 80.5528 255.402C81.2411 255.402 81.9128 255.332 82.5616 255.198C83.702 254.963 84.1355 253.553 83.3651 252.68L81.7048 250.8C81.0935 250.106 80.0128 250.106 79.4008 250.8Z" fill="#0C0C0C"/>
<path d="M75.1993 247.042L72.747 246.545C71.5986 246.313 70.5985 247.407 70.9722 248.518C71.4057 249.805 72.0904 250.977 72.9688 251.973C73.7406 252.849 75.1835 252.522 75.5543 251.415L76.3513 249.039C76.6458 248.162 76.1051 247.226 75.1993 247.042Z" fill="#0C0C0C"/>
</g>
<g opacity="0.5">
<path d="M79.0729 244.569C79.498 244.569 79.8426 244.225 79.8426 243.8C79.8426 243.375 79.498 243.03 79.0729 243.03C78.6478 243.03 78.3032 243.375 78.3032 243.8C78.3032 244.225 78.6478 244.569 79.0729 244.569Z" fill="white"/>
<path d="M82.803 243.8C82.803 244.225 82.4582 244.569 82.0334 244.569C81.6086 244.569 81.2637 244.225 81.2637 243.8C81.2637 243.375 81.6086 243.03 82.0334 243.03C82.4582 243.03 82.803 243.374 82.803 243.8Z" fill="white"/>
<path d="M79.8426 246.762C79.8426 247.186 79.4977 247.531 79.0729 247.531C78.6481 247.531 78.3032 247.186 78.3032 246.762C78.3032 246.337 78.6481 245.992 79.0729 245.992C79.4977 245.992 79.8426 246.336 79.8426 246.762Z" fill="white"/>
<path d="M82.803 246.762C82.803 247.186 82.4582 247.531 82.0334 247.531C81.6086 247.531 81.2637 247.186 81.2637 246.762C81.2637 246.337 81.6086 245.992 82.0334 245.992C82.4582 245.992 82.803 246.336 82.803 246.762Z" fill="white"/>
</g>
<path d="M227.332 261.667C236.379 261.667 243.712 254.331 243.712 245.281C243.712 236.23 236.379 228.894 227.332 228.894C218.286 228.894 210.952 236.23 210.952 245.281C210.952 254.331 218.286 261.667 227.332 261.667Z" fill="#263238"/>
<path opacity="0.5" d="M227.332 256.698C233.635 256.698 238.744 251.587 238.744 245.281C238.744 238.975 233.635 233.863 227.332 233.863C221.029 233.863 215.919 238.975 215.919 245.281C215.919 251.587 221.029 256.698 227.332 256.698Z" fill="white"/>
<g opacity="0.5">
<path d="M223.131 241.523L222.334 239.147C221.963 238.04 220.52 237.713 219.748 238.588C218.87 239.585 218.185 240.757 217.752 242.044C217.378 243.154 218.377 244.249 219.526 244.017L221.979 243.52C222.884 243.336 223.425 242.4 223.131 241.523Z" fill="#0C0C0C"/>
<path d="M228.485 239.762L230.145 237.882C230.916 237.009 230.482 235.598 229.342 235.363C228.693 235.23 228.021 235.159 227.333 235.159C226.645 235.159 225.973 235.23 225.324 235.363C224.184 235.598 223.75 237.009 224.521 237.882L226.181 239.762C226.792 240.455 227.873 240.455 228.485 239.762Z" fill="#0C0C0C"/>
<path d="M232.686 243.52L235.138 244.017C236.286 244.249 237.286 243.154 236.913 242.044C236.479 240.756 235.794 239.585 234.916 238.588C234.144 237.713 232.701 238.04 232.33 239.147L231.533 241.523C231.24 242.4 231.78 243.336 232.686 243.52Z" fill="#0C0C0C"/>
<path d="M231.534 249.039L232.331 251.415C232.702 252.521 234.145 252.849 234.916 251.974C235.795 250.977 236.479 249.806 236.913 248.519C237.287 247.408 236.287 246.313 235.138 246.546L232.686 247.043C231.78 247.226 231.239 248.161 231.534 249.039Z" fill="#0C0C0C"/>
<path d="M226.18 250.8L224.519 252.68C223.749 253.553 224.182 254.963 225.323 255.198C225.971 255.331 226.643 255.402 227.332 255.402C228.021 255.402 228.692 255.332 229.34 255.198C230.481 254.963 230.914 253.553 230.144 252.68L228.484 250.8C227.872 250.106 226.792 250.106 226.18 250.8Z" fill="#0C0C0C"/>
<path d="M221.979 247.042L219.526 246.545C218.378 246.313 217.378 247.407 217.752 248.518C218.185 249.805 218.87 250.977 219.748 251.973C220.52 252.849 221.963 252.522 222.334 251.415L223.131 249.039C223.425 248.162 222.884 247.226 221.979 247.042Z" fill="#0C0C0C"/>
</g>
<g opacity="0.5">
<path d="M226.622 243.8C226.622 244.225 226.277 244.569 225.852 244.569C225.427 244.569 225.083 244.225 225.083 243.8C225.083 243.375 225.427 243.03 225.852 243.03C226.277 243.03 226.622 243.374 226.622 243.8Z" fill="white"/>
<path d="M228.812 244.569C229.237 244.569 229.582 244.225 229.582 243.8C229.582 243.375 229.237 243.03 228.812 243.03C228.387 243.03 228.042 243.375 228.042 243.8C228.042 244.225 228.387 244.569 228.812 244.569Z" fill="white"/>
<path d="M226.622 246.762C226.622 247.186 226.277 247.531 225.852 247.531C225.427 247.531 225.083 247.186 225.083 246.762C225.083 246.337 225.427 245.992 225.852 245.992C226.277 245.992 226.622 246.336 226.622 246.762Z" fill="white"/>
<path d="M229.582 246.762C229.582 247.186 229.237 247.531 228.812 247.531C228.387 247.531 228.042 247.186 228.042 246.762C228.042 246.337 228.387 245.992 228.812 245.992C229.237 245.992 229.582 246.336 229.582 246.762Z" fill="white"/>
</g>
<path d="M122.77 172.496C123.932 171.428 124.014 169.629 122.967 168.456L93.3936 195.632L92.5303 196.009C92.5843 196.081 92.6289 196.156 92.6908 196.223C93.7672 197.395 95.5888 197.473 96.7603 196.396L122.77 172.496Z" fill="#263238"/>
<path opacity="0.5" d="M59.4348 228.894C59.2411 228.894 59.0892 228.727 59.1086 228.534L60.4737 214.527C60.4939 214.319 60.7034 214.182 60.9028 214.247L62.1607 214.661C63.7137 215.172 64.631 216.774 64.2854 218.373L62.5574 226.373C62.2399 227.844 60.9388 228.894 59.4348 228.894Z" fill="white"/>
<g opacity="0.2">
<path d="M67.2326 219.641C67.2211 219.045 67.6949 218.551 68.2917 218.54L239.411 215.221C240.007 215.209 240.501 215.683 240.512 216.28C240.524 216.877 240.05 217.37 239.453 217.382L68.3328 220.701C67.7366 220.712 67.2441 220.238 67.2326 219.641Z" fill="white"/>
</g>
<path d="M175.254 199.405L207.099 198.855C210.55 198.795 213.163 195.712 212.657 192.296L209.482 170.865C209.297 169.61 208.234 168.673 206.967 168.644C201.445 168.516 195.908 168.423 191.506 168.423C189.384 168.423 187.528 168.445 186.061 168.495C183.197 168.593 178.641 168.918 173.322 169.361C172.042 169.468 171.028 170.494 170.939 171.776L169.45 193.29C169.219 196.637 171.901 199.463 175.254 199.405Z" fill="#263238"/>
<path d="M239.157 194.395L229.111 170.768C228.724 169.858 227.848 169.253 226.86 169.22C225.093 169.161 222.849 169.087 220.314 169.009C218.693 168.959 217.418 170.388 217.656 171.993L220.862 193.637C221.283 196.479 223.747 198.568 226.618 198.518L236.442 198.348C237.756 198.326 238.975 197.482 239.297 196.208C239.45 195.595 239.397 194.96 239.157 194.395Z" fill="#263238"/>
<path d="M160.052 170.549C148.394 171.647 136.554 172.873 131.518 173.401C129.883 173.573 128.351 174.266 127.141 175.377L109.479 191.606C106.018 194.787 108.324 200.562 113.024 200.48L155.827 199.74C158.794 199.689 161.229 197.376 161.433 194.415L162.893 173.32C163.004 171.718 161.651 170.398 160.052 170.549Z" fill="#263238"/>
<path d="M208.932 204.982L201.492 205.126C200.904 205.138 200.433 205.618 200.433 206.206C200.433 206.811 200.93 207.298 201.534 207.286L208.974 207.142C209.562 207.131 210.033 206.651 210.033 206.062C210.033 205.458 209.536 204.971 208.932 204.982Z" fill="#263238"/>
<path d="M156.753 207.096C156.753 206.491 156.257 206.005 155.652 206.016L148.212 206.16C147.624 206.172 147.153 206.652 147.153 207.24C147.153 207.845 147.65 208.332 148.254 208.32L155.693 208.176C156.282 208.165 156.753 207.684 156.753 207.096Z" fill="#263238"/>
<g opacity="0.2">
<path d="M61.7323 238.144C62.2831 236.798 63.3998 235.147 64.7786 233.491L55.7714 233.666C54.4877 233.691 53.3861 232.898 52.9397 231.77C52.7266 232.735 52.6646 233.735 52.7863 234.735L53.3645 239.501C53.6395 241.765 54.78 243.835 56.5469 245.276L56.9198 245.58C58.223 246.643 59.7984 247.301 61.4551 247.497C61.2082 244.516 60.9871 239.965 61.7323 238.144Z" fill="#0C0C0C"/>
<path d="M207.098 249.09C206.874 246.128 206.726 242.039 207.422 240.339C208.585 237.497 212.238 233.302 215.657 230.564L96.5928 232.874C98.315 235.519 99.7291 238.33 100.353 240.283C100.843 241.818 100.7 245.525 100.538 247.967L207.098 249.09Z" fill="#0C0C0C"/>
<path d="M246.044 242.476C246.364 243.481 246.414 245.417 246.365 247.319C247.16 246.721 247.885 246.019 248.492 245.199L249.495 243.844C250.831 242.041 251.552 239.855 251.552 237.61V234.095C251.552 232.178 251.027 230.299 250.032 228.661L249.131 227.176C249.029 228.709 247.783 229.94 246.219 229.97L238.38 230.122C241.656 233.368 244.985 239.159 246.044 242.476Z" fill="#0C0C0C"/>
</g>
<g opacity="0.2">
<path d="M107.072 239.005C107.056 238.209 107.689 237.552 108.483 237.537L200.179 235.758C200.975 235.742 201.632 236.375 201.647 237.171C201.662 237.966 201.03 238.623 200.235 238.639L108.54 240.417C107.744 240.433 107.087 239.8 107.072 239.005Z" fill="white"/>
</g>
<path opacity="0.6" d="M114.512 186.983L109.479 191.607C106.018 194.788 108.325 200.563 113.023 200.481L114.512 200.455V186.983Z" fill="#0C0C0C"/>
<path d="M121.399 188.188H118.855C117.583 188.188 116.553 189.219 116.553 190.491V194.032L112.299 194.856C111.773 194.958 111.393 195.418 111.393 195.955V196.962C111.393 197.748 112.182 198.29 112.915 198.006L116.955 196.442C117.463 197.192 118.386 197.625 119.354 197.41L121.753 196.876C122.501 196.71 123.032 196.047 123.032 195.281V189.823C123.033 188.92 122.301 188.188 121.399 188.188Z" fill="url(#paint27_linear_110_376)"/>
<defs>
<linearGradient id="paint0_linear_110_376" x1="272.187" y1="143.232" x2="285.179" y2="147.623" gradientUnits="userSpaceOnUse">
<stop stop-color="#181BF2"/>
<stop offset="1" stop-color="#0ABEFF"/>
</linearGradient>
<linearGradient id="paint1_linear_110_376" x1="279.268" y1="256.237" x2="287.544" y2="263.964" gradientUnits="userSpaceOnUse">
<stop stop-color="#181BF2"/>
<stop offset="1" stop-color="#0ABEFF"/>
</linearGradient>
<linearGradient id="paint2_linear_110_376" x1="251.845" y1="250.355" x2="261.699" y2="258.354" gradientUnits="userSpaceOnUse">
<stop stop-color="#181BF2"/>
<stop offset="1" stop-color="#0ABEFF"/>
</linearGradient>
<linearGradient id="paint3_linear_110_376" x1="274.712" y1="146.887" x2="306.133" y2="154.374" gradientUnits="userSpaceOnUse">
<stop stop-color="#181BF2"/>
<stop offset="1" stop-color="#0ABEFF"/>
</linearGradient>
<linearGradient id="paint4_linear_110_376" x1="280.18" y1="150.886" x2="289.36" y2="151.709" gradientUnits="userSpaceOnUse">
<stop stop-color="#181BF2"/>
<stop offset="1" stop-color="#0ABEFF"/>
</linearGradient>
<linearGradient id="paint5_linear_110_376" x1="286.029" y1="149.811" x2="288.623" y2="150.64" gradientUnits="userSpaceOnUse">
<stop stop-color="#181BF2"/>
<stop offset="1" stop-color="#0ABEFF"/>
</linearGradient>
<linearGradient id="paint6_linear_110_376" x1="283.715" y1="255.961" x2="285.407" y2="257.066" gradientUnits="userSpaceOnUse">
<stop stop-color="#181BF2"/>
<stop offset="1" stop-color="#0ABEFF"/>
</linearGradient>
<linearGradient id="paint7_linear_110_376" x1="284.417" y1="255.137" x2="285.834" y2="255.457" gradientUnits="userSpaceOnUse">
<stop stop-color="#181BF2"/>
<stop offset="1" stop-color="#0ABEFF"/>
</linearGradient>
<linearGradient id="paint8_linear_110_376" x1="257.776" y1="249.656" x2="259.816" y2="250.843" gradientUnits="userSpaceOnUse">
<stop stop-color="#181BF2"/>
<stop offset="1" stop-color="#0ABEFF"/>
</linearGradient>
<linearGradient id="paint9_linear_110_376" x1="258.793" y1="249.035" x2="260.151" y2="249.298" gradientUnits="userSpaceOnUse">
<stop stop-color="#181BF2"/>
<stop offset="1" stop-color="#0ABEFF"/>
</linearGradient>
<linearGradient id="paint10_linear_110_376" x1="294.756" y1="149.002" x2="306.487" y2="154.693" gradientUnits="userSpaceOnUse">
<stop stop-color="#181BF2"/>
<stop offset="1" stop-color="#0ABEFF"/>
</linearGradient>
<linearGradient id="paint11_linear_110_376" x1="151.023" y1="42.6943" x2="187.628" y2="44.8673" gradientUnits="userSpaceOnUse">
<stop stop-color="#181BF2"/>
<stop offset="1" stop-color="#0ABEFF"/>
</linearGradient>
<linearGradient id="paint12_linear_110_376" x1="152.917" y1="42.6943" x2="299.308" y2="79.5165" gradientUnits="userSpaceOnUse">
<stop stop-color="#181BF2"/>
<stop offset="1" stop-color="#0ABEFF"/>
</linearGradient>
<linearGradient id="paint13_linear_110_376" x1="162.707" y1="47.5952" x2="291.019" y2="81.4251" gradientUnits="userSpaceOnUse">
<stop stop-color="#181BF2"/>
<stop offset="1" stop-color="#0ABEFF"/>
</linearGradient>
<linearGradient id="paint14_linear_110_376" x1="220.963" y1="139.605" x2="247.665" y2="161.466" gradientUnits="userSpaceOnUse">
<stop stop-color="#181BF2"/>
<stop offset="1" stop-color="#0ABEFF"/>
</linearGradient>
<linearGradient id="paint15_linear_110_376" x1="223.866" y1="145.722" x2="228.201" y2="147.062" gradientUnits="userSpaceOnUse">
<stop stop-color="#181BF2"/>
<stop offset="1" stop-color="#0ABEFF"/>
</linearGradient>
<linearGradient id="paint16_linear_110_376" x1="227.314" y1="145.345" x2="231.052" y2="146.335" gradientUnits="userSpaceOnUse">
<stop stop-color="#181BF2"/>
<stop offset="1" stop-color="#0ABEFF"/>
</linearGradient>
<linearGradient id="paint17_linear_110_376" x1="230.815" y1="144.974" x2="234.553" y2="145.964" gradientUnits="userSpaceOnUse">
<stop stop-color="#181BF2"/>
<stop offset="1" stop-color="#0ABEFF"/>
</linearGradient>
<linearGradient id="paint18_linear_110_376" x1="234.316" y1="144.602" x2="238.536" y2="145.89" gradientUnits="userSpaceOnUse">
<stop stop-color="#181BF2"/>
<stop offset="1" stop-color="#0ABEFF"/>
</linearGradient>
<linearGradient id="paint19_linear_110_376" x1="237.907" y1="144.163" x2="242.336" y2="145.624" gradientUnits="userSpaceOnUse">
<stop stop-color="#181BF2"/>
<stop offset="1" stop-color="#0ABEFF"/>
</linearGradient>
<linearGradient id="paint20_linear_110_376" x1="241.388" y1="143.636" x2="245.624" y2="144.913" gradientUnits="userSpaceOnUse">
<stop stop-color="#181BF2"/>
<stop offset="1" stop-color="#0ABEFF"/>
</linearGradient>
<linearGradient id="paint21_linear_110_376" x1="245.335" y1="143.332" x2="249.223" y2="144.375" gradientUnits="userSpaceOnUse">
<stop stop-color="#181BF2"/>
<stop offset="1" stop-color="#0ABEFF"/>
</linearGradient>
<linearGradient id="paint22_linear_110_376" x1="248.63" y1="143.072" x2="253.026" y2="144.477" gradientUnits="userSpaceOnUse">
<stop stop-color="#181BF2"/>
<stop offset="1" stop-color="#0ABEFF"/>
</linearGradient>
<linearGradient id="paint23_linear_110_376" x1="118.014" y1="118.866" x2="142.088" y2="129.916" gradientUnits="userSpaceOnUse">
<stop stop-color="#181BF2"/>
<stop offset="1" stop-color="#0ABEFF"/>
</linearGradient>
<linearGradient id="paint24_linear_110_376" x1="116.171" y1="128.046" x2="138.483" y2="138.317" gradientUnits="userSpaceOnUse">
<stop stop-color="#181BF2"/>
<stop offset="1" stop-color="#0ABEFF"/>
</linearGradient>
<linearGradient id="paint25_linear_110_376" x1="122.735" y1="111.896" x2="142.498" y2="120.981" gradientUnits="userSpaceOnUse">
<stop stop-color="#181BF2"/>
<stop offset="1" stop-color="#0ABEFF"/>
</linearGradient>
<linearGradient id="paint26_linear_110_376" x1="52.7217" y1="160.5" x2="226.718" y2="284.061" gradientUnits="userSpaceOnUse">
<stop stop-color="#181BF2"/>
<stop offset="1" stop-color="#0ABEFF"/>
</linearGradient>
<linearGradient id="paint27_linear_110_376" x1="111.393" y1="188.188" x2="124.85" y2="193.198" gradientUnits="userSpaceOnUse">
<stop stop-color="#181BF2"/>
<stop offset="1" stop-color="#0ABEFF"/>
</linearGradient>
</defs>
</svg>
